<?xml version="1.0" encoding="UTF-8"?>
<svg id="Layer_1" xmlns="http://www.w3.org/2000/svg" version="1.1" viewBox="0 0 600 600">
  <!-- Generator: Adobe Illustrator 30.0.0, SVG Export Plug-In . SVG Version: 2.1.1 Build 123)  -->
  <defs>
    <style>
      .st0 {
        fill: #fff;
        fill-rule: evenodd;
      }

      .st1 {
        fill: #e26905;
      }
    </style>
  </defs>
  <rect class="st1" x="0" y="0" width="600" height="600" rx="300" ry="300"/>
  <g>
    <path class="st0" d="M438.1,393c.4-.4,6.5,2,6.5,2,2.4-5.3,5.2-9.5,7.6-14.8,2.4-4.6,11.4-26.5,7.6-28.2-10.2-4.5-19.7-7.4-29.6-13-2.7-1.2-24.9-13.7-25.4-13.3-3.4.3-10.7,13.9-12.4,17.7-1.2,3.4-3.3,9.9-2.7,13.8,2,8.5,8.8,14.8,15.6,18.8,7.9,4.5,17,10.8,25.3,14,2.3.8,4.9,2,7.2,2.9h0ZM388.5,370.6c-2.6-4.3-3.6-7-4.6-12-.7-3.1,2.7-15.2,1.2-15.3-3.1,0-11,9.7-24.7,7-1.1-.4-8.7-2.1-9.2-1.8s3.3,4.3,4.1,5.1c3.7,5.5,2.4,8.9,4.3,11.6.7,1.6,7-1.4,10.3,0,4.9,1.3,14.8,8.5,19,7.4.7,0-.4-2-.4-2h0ZM199.2,510.6c4.7-5.2,10.2-11.2,16.5-14.9,3.9-3,14.9-11.2,19.1-12.2,6.1-1.4,6.4,5.1,6.3,9-.2,7.7-1.7,34.5-4.1,37.5-2.4,3.8-15.6,11.1-20.3,12.5-4.3,1.8-10.8,3.5-14.6-.4-3-3.2-9.7-10.2-9.9-15.2,0-4.6,3.8-13.3,7-16.3h0ZM281.2,527.7c.8-1.5,9.6-12.8,9.6-13.6-.4-.4-9.8-9.5-11.2-11.1-6.3-6.7-14.9-18-25.7-12.2-2.7,1.9-3.2,3.7-4,6.8-1.2,1.9-2.9,7.2-1.4,8.8,2.2,3.9,16.6,10.4,21.1,13.6,3,1.6,8.3,5.6,10.1,8.4.4.4,1.1-.4,1.6-.7h0ZM276.5,534.5c.4-1.1,0-.7-.7-1.6-6.7-6.3-14.6-13-24.2-15.1-5.7-1.3-5.4,2.1-7.1,6.7-.8,3.1-3.7,9.5-2.6,12.2,1.5,3.1,7.1,9,8.9,11.7.7.7,4.8,6.7,5.6,6.7,1.1-.4,10.6-10,12.2-11.5,3.2-3,5.5-5.9,7.9-9h0ZM214.7,552.8c-5,2.6-4.8,7.5-4.9,12.9.4.4.2,5.8,1,6.5,1.1,1.2,11.9-.8,13.5-1.6,7-1.4,16.3-4.9,22.1-9,1.3-.7,1.6-1.8.8-3.1-1.1-2.7-7-12.1-8.8-13.3-3-2.4-7.2.2-10,1.3-4.6,1.4-9.7,4-13.6,6.1h0ZM165,547.7c8.2,10.2,21,19.7,33.6,22.8,2,.5,1.1-.4,1.6-1.5.8-4.6,2.6-12.2,0-15.7-1.9-2.7-13.4-15.7-17.3-15.1-2,.4-19,6-19.7,6.8.4,1.1,1.1,2,1.9,2.7h0ZM160,488.1c-3.9,4.5-7,17.8-7.5,23.6-.2,6.1.4,13.8,3,19.6,1.1,2.7,22.1,3.6,24.5.7s7.1-20.2,7.9-24.7c1.7-5.3-8.2-10.2-11.5-12.2-4.2-2-8.4-4.1-12.1-6.4-1.5-.8-2.7-1.2-4.2-.5h0ZM202.4,494.3c3.5-2.6,7.1-5.9,10.6-7.8,3.5-1.9,15.9-8.4,16.5-11.8.5-2.7-2.5-5.9-4.4-7.8-6.4-5.9-17.7-13.8-25.7-17.6-2.2-.8-2-.5-3.8.7-11,7.3-21.9,17.8-29.5,28-.8,1.5.7,1.6,2.6,2.8,7.5,4.8,26.8,18.7,33.7,13.6h0ZM305.5,495.8c4.7-5.2,9-8.6,19.6-16.4,1.2-1.1,0-1.5-1.5-2.3-10.9-8.4-13.5-13.4-20.4-24.7-3.3-5.1-5.6-7.4-12.1-8-10.3-.7-15.7,0-26.4-4.2-8.4-3.3-18.5-10-26-14.9-1.5-.8-5.4,2.1-6.6,3.3-7.8,5.1-16,9.2-24.2,13.9-2.3,1.5-1.2,1.1,1.9,2.7,12.1,6.4,18.4,13.1,28.6,21.5,7.9,6.7,11,6,20.4,8.9,6.5,2,16.3,7.7,20.4,13.6,1.5,1.6,14.9,18.8,14.9,18.8,1.1.4,9.9-10.9,11.4-12.4h0v.2ZM432.7,411c2.4-3,2.3-2.2-2.1-4.6-17.4-10.4-34.7-21.6-52.5-30.9-15.9-8.8-16.5-.8-22.6,12.5-5.7,11.3-5.7,10.6-14.3,19.5-6.3,7.5-13.1,16.2-19.1,24.1-4.7,6-8.7,11.2-6.3,20.2,2.4,8.9,11.9,14.9,19.4,19.7.7.8,1.5.8,2.3.8,2-.4,7.4-4,9.8-4.7,2-1.1,15.9-6.9,16.3-7.2,1.2-1.1-3-3.2-3.3-3.5-3.8-2.4-9-5.6-12.5-8.4-3.3-2.8-7.5-6.3-6.2-11.2,1.2-3.4,7.2-.2,9.6.7,8,3.6,14.3,8.8,21.8,13.6.7,0,3.4,2,4.2,2,1.5,0,5-1,5.8-1.8,1.1-.4,6.6-3.3,6.2-3.7-.3-2.7-21.4-18.6-24-20.5-1.1-1.2-4.1-5.1-1.4-6.1,5-2.6,13.8,1.1,18.3,3.5,6,3.3,11.7,6,17.8,9.3.7.8,4.6,2.4,5.3,2.4,2.3,0,8.2-5.6,9.8-7.1-6.3-8.2-15.8-13.5-24.4-19.4-1.9-1.2-7.9-5.9-4.7-8.9,2.8-2.6,25,12.2,29.1,15,1.5,1.6,6.4,5.1,7.9,5.2,1.5,0,7.5-7.9,9.9-10.1h.2,0ZM342.2,381.7c7.1-7.4,14.7-18.4,6.9-28.2-3-4.6-4.5-4.7-9.4-6.8-3.4-1.2-36.1-13.6-37.2-13.2-1.5,0-7.6,11.7-8.8,13.6,0,.7-4,7.5-3.6,8,0,.7,2.3.8,2.7,1.2,7.2,2.1,13.7,4.2,20.9,5.6,3.8.8,4.9,2,5.9,6.3.9,8.1-4.8,7.5-10.5,6.2-3.4-.5-9.5-3.7-12.9-4.9-.7,0-11-4.6-11.8-4.6-.8.7-3.3,5.3-3.6,6.4-2.4,4.6-5.6,9-7.6,13.2-.8.7-1.2,1.9,0,2.3,0,0,11,5.3,12.5,6,2.7,1.2,8,2.9,9,5.6,1.5,2.3,1,5-2.4,5.3-8.5-.2-23.1-9.4-25.1-9.1-1.1-.4-2.3,1.5-3.2,2.2-4,6-8,10.5-13.1,16.2-2,2.6-.8,2.3,1.4,3.9,9,6.4,16.2,10.8,26.9,14.1,26.3,6.4,38.4-15.5,50.4-34.4,4-6.8,7.2-9.8,12.6-15h0ZM383.7,303.4l-10.4-11c-4.5-4.7-8.2-9.4-11.9-14.9-.4-.4-3.9,2.2-4.6,3-16.4,10.3-32.8,24.4-45.5,39.4-3.2,3.7-2,4.2,2.1,7,6.8,4.7,25.7,14.5,33.7,15.8,8.7,2.1,16,3.5,24.9,1,5.8-1.8,10.6-7.8,13.8-13,4-6.8,7-17.1,1.4-23.7l-3.3-3.5h0ZM443.7,312.3c-7.2-3.6-12.8-7.2-19.2-11.6-13.8-11.5-22.1-20.2-32.4-34.2-1.1-1.2-1.1-2-3.4-1.2-6.6,1.8-12.7,4.6-19,7.5,8,17.8,21.4,31.2,35.7,43.9,11.6,10.7,42.3,24.9,57.9,28.7.7.8.8-.7,1.2-1.1.5-4.2,2-16.8,1.7-20.3,0,0-20.4-10.5-22.3-11.7h0ZM423.5,291.1c8.3,7.9,14.2,12.6,24.4,17.8,1.5.8,17.5,8.1,17.8,7.7.8-.7-1.6-12.7-2.3-14.2-7.3-28.9-30.7-44.9-60.3-40.7-5.4.7,18.1,27,20.4,29.3h0Z"/>
    <path class="st0" d="M233.2,80.9c1.5,1.9,3.5,4,5,5.9,5.9,6.8,14.8,13.3,21.6,19.4,6,5.1,14.1,9.5,22.9,8.6,3.8-.7,9.3-4.6,12.1-7,3.1-2.8,13.6-14,12.7-17.4.2-.5-18.8-17.6-20.8-19.6-8.5-7.4-14.4-15.5-21.9-23.7-2.8-3.1-20.6,12.6-24.2,16.4-4.3,4-7.2,8-11.4,12.1,0,0,4.3,4.9,4.1,5.5h0v-.2h0ZM270.4,120.7s-2.2-.4-2,.3c.4,4.4,10.3,11.2,13.1,15.5,2.3,2.9,1.6,9.7,3.3,9.9,3.2.8,6-1.4,12.4.3,1,.5,5.9,2.7,6.1,2.2s-3.9-7.2-4.6-8.1c-7-12.2-.3-22.8-1.4-25.7-.6-1.5-11,5.8-14.1,6-5.1.7-8,.6-12.9-.6h.2ZM199.3,345.1c-1.8,3.9-8.8,10.2-13.2,11.9-4.8,1.4-13.7-2.7-17.6-4.5-4.9-2.2-5.4-9-5.1-13.7-.2-4.8,2.5-19.7,5.3-23.2,2-3.3,27-13.3,34.1-16,3.6-1.3,9.9-3.3,10.5,3.1.4,4.4-3.8,17.4-5.3,22-1.5,7.1-5.3,14.2-8.7,20.4h0ZM156.6,273.1c-.2.5-.7,1.5-.2,1.7,3.2.8,8.6,4.6,11.2,6.9,4.5,3.3,15.3,14.8,19.7,15.6,2,.9,6.5-2.4,7.9-4.2,2.6-1.8,4.3-2.8,5.1-6,2-12.2-11.5-16.5-19.9-20.4-2-.9-13.6-6.8-14-7.1-.7.3-8.6,12.2-9.8,13.5h0ZM151.8,279.7c-2,3.3-4.2,6.4-5.9,10.4-.9,2-7.1,14-7,15.2.3.7,7.2,2.7,8.1,3.2,3.2.8,10.6,4.3,14,4.6,2.9,0,8.1-4.6,10.7-6.4,3.8-3.1,7.2-3.9,4.1-8.8-5.1-8.3-14-13.6-22.2-17.9-1-.5-.7-.9-1.7-.2h0ZM154.5,344.2c.8-4.4,1.6-10,1.4-14.9,0-2.9,1.2-7.8-2-9.9-1.8-1.4-12.5-3.9-15.4-4.1-1.5-.3-2.3.3-2.6,1.8-2,6.9-2.3,16.8-1.4,23.8-.2,1.7,1.4,12.5,2.9,13.2,1,.5,6-1.4,6.5-1.2,5-1.9,9.9-3.3,10.6-8.8h0ZM175.5,389.5c1,.5,2,.9,3.2.8.5-1,.3-19,0-20.8-.7-3.8-16.6-10.6-19.8-11.4-4.2-1.3-10.8,2.8-14.9,5.1-.9.7-2,.3-.9,2,6.9,11,20.1,19.9,32.3,24.4h0ZM233.4,374.9c.2-1.7-.6-2.7-1.9-3.8-3.5-2.8-6.8-6-10-9.4-3-2.6-10.8-10.3-15.2-7-4.1,2.3-18.8,12.3-20.8,15.5s5.7,22.9,8.6,23c6.3.5,13.8-1.5,19.5-3.6,5.2-2.3,16.9-9.6,19.9-14.8h0ZM213.8,336.8c-2.6,8.4,16.7,21.9,23.8,27.5,1.8,1.4,2.2,2.8,3.4,1.6,7.2-10.4,13.5-24.3,16.9-37,.4-2.2.9-2-.7-3.8-6-6.3-17.2-14.4-24.9-18.6-2.4-1.1-6.4-2.9-8.8-1.7-3.1,1.6-5.3,15.4-5.9,19.3-.6,3.9-2.6,8.4-3.9,12.5h0ZM179,239.8c-.9,2-8.7,13.8-8,14.8,0,0,20.6,7.1,22.6,7.9,6.9,2,15.3,9.4,19.4,14.9,5.9,8,6.2,11.2,15.1,16.5,11.2,6.9,19.5,10.7,29.6,20.1,2.5,2.3,2.5,3.5,3.2.8,1.9-9.3,3-18.3,5.4-27.3.7-1.5,2.2-6.1.9-7.3-7-5.6-16.7-13-22.5-19.8-7.3-8.7-8.5-14-12.5-23.6-2.6-5.9-5.6-7.3-11.4-8.8-12.9-3-18.6-3.7-30-11.3-1.3-1.2-2-2.1-2.7-.7-3.9,12.5-5.7,17.7-9.1,23.8h0v.2h0ZM218,91.9c-1.4,3-6.9,11.2-6.3,12.6.6,1.5,5.5,4.9,7.4,5.8,4,3,25.2,19.2,23.6,22.7-1.8,3.9-8.3-.2-10-1.6-8.5-6.2-16.5-13.5-26.3-16.8-.9,2-4.3,9.4-3.4,11.5.3.7,3.1,3.8,4,4.3,5,4.6,9.6,9.1,14.5,13.8,3.8,3.5,10,10.6,9.3,16.2,0,2.9-4.8,1.4-6.3.7-2.7-1.9-24.5-16.6-27.2-16-.5-.2-1.5,5.9-1.5,7.1-.5,1-.4,4.6.2,6,.3.7,3,2.6,3.3,3.3,7,5.6,13.9,9.9,20,16.3,1.5,1.9,6.5,6.6,3.7,8.8-4.3,2.8-8.9,0-12.6-2.2s-8.5-6.2-12-9c-.5-.2-3.7-3.5-4.5-2-.2.5-1.1,15.5-1.6,17.8,0,2.4-1.7,8.7-1.3,10.7.3.7.6,1.5,1.5,1.9,7,5.6,15.7,12.5,24.9,12,9.2-.6,12.9-6,17-12.5,5.6-8.2,11.5-17.4,16.5-25.8,5.7-11.2,4.9-10.9,13.8-19.9,10.6-10,17.9-13.2,4.5-25.4-14.5-13.8-30.8-26.6-46.3-39.6-3.8-3.5-3.1-3.8-5.1-.6h.3ZM275,168c-3.2,6.9-4.9,10.9-10.1,16.8-13.9,17.5-30.8,36-16.2,58.7,6.6,9,13.1,14.3,22,20.8,2.2,1.6,2.3,2.8,4.1,0,3.6-6.7,6.6-11.9,11.1-17.6.5-1,1.9-2.7,1.1-3.7-.3-2-13.8-12.8-16.7-20.7-.8-3.3,1.5-4.6,4.2-4,2.9,0,6.2,4.6,8.3,6.8,1.3,1.2,9.8,9.9,9.8,9.9.7.9,1.7.2,2.1-.8,3.3-3.3,6.5-7.7,10-11.5.9-.7,4.5-4.6,4.9-5.5-.3-.7-7.8-8.9-8.1-9.7-2.3-2.9-7.3-7.5-8.8-10.6-3.1-5-5.5-10.2,2.5-12,4.4-.4,5.9.3,7.9,3.6,3.6,6.4,7.7,11.9,12,18,.5.2,1.3,2.4,2,2.1.5.2,5.6-5.8,6.3-6,1.4-1.8,10.5-11.2,10-12.7,0-1.2-22.3-28.1-24.6-30.9-3.5-4-4.1-5.5-9.5-6.7-11.8-4.2-19.6,6.5-24.4,15.6h0ZM335.5,103.3l-4.5-2c-8.1-3.1-16.8,3-22,9-4,4.7-8.1,11.2-7.9,17.3.6,9.2,4.2,15.6,9,23.2,3.9,7.2,19.1,21.9,25.9,26.8,4,3,4.7,4,7.2-.3,10.1-16.8,18.1-37,22.6-55.9.5-1,1.8-5.2,1.3-5.4-6.4-1.7-12-3.7-17.9-6.4l-13.8-6.3s0,0,0,0ZM307.7,49.5c-1.8-1.4-18.3-17.3-18.3-17.3-3.3.8-14.8,6.3-18.6,8.2-.2.5-1.7,1-.7,1.5,8.7,13.5,32.2,37.9,46,45.4,16.5,9.4,33.6,17.8,53.1,19.5.7-6.8,1.5-13.7,1-20.4,0-2.4-.8-2.1-2.3-2.9-16.6-5.2-27.5-10.2-42.8-19.6-6.2-4.6-11.4-8.8-17.2-14.4h-.2,0ZM334.3,61.7c3,1.4,35.4,15.1,34.3,9.8-5.6-29.4-28.3-46.3-58-43.9-1.7-.2-13.8,1.5-14.2,2.4-.2.5,11.9,13.2,13.1,14.3,8.3,8,14.8,12.1,24.8,17.3h0Z"/>
  </g>
</svg>