<?xml version="1.0" encoding="UTF-8"?>
<svg id="Layer_1" xmlns="http://www.w3.org/2000/svg" version="1.1" viewBox="0 0 600 600">
  <!-- Generator: Adobe Illustrator 29.8.1, SVG Export Plug-In . SVG Version: 2.1.1 Build 2)  -->
  <defs>
    <style>
      .st0 {
        fill: #fb7b04;
        fill-rule: evenodd;
      }
    </style>
  </defs>
  <path class="st0" d="M448.6,400.1c.4-.4,7,2.2,7,2.2,2.6-5.7,5.6-10.2,8.2-15.9,2.6-4.9,12.3-28.5,8.2-30.3-11-4.8-21.2-8-31.8-14-2.9-1.3-26.8-14.7-27.3-14.3-3.7.3-11.5,15-13.3,19-1.3,3.7-3.6,10.6-2.9,14.8,2.2,9.1,9.5,15.9,16.8,20.2,8.5,4.8,18.3,11.6,27.2,15.1,2.5.9,5.3,2.2,7.8,3.1h0ZM395.2,376c-2.8-4.6-3.9-7.5-5-12.9-.7-3.3,2.9-16.4,1.3-16.5-3.3,0-11.8,10.4-26.6,7.5-1.2-.4-9.4-2.3-9.9-1.9s3.6,4.6,4.4,5.5c4,5.9,2.6,9.6,4.6,12.5.8,1.7,7.5-1.5,11.1-.1,5.3,1.4,15.9,9.1,20.4,8,.8,0-.4-2.1-.4-2.1h0ZM191.6,526.6c5.1-5.6,11-12.1,17.7-16,4.2-3.2,16-12,20.6-13.1,6.6-1.5,6.9,5.5,6.8,9.7-.2,8.3-1.8,37.1-4.4,40.3-2.6,4.1-16.8,11.9-21.8,13.5-4.6,1.9-11.6,3.8-15.7-.4-3.2-3.4-10.4-11-10.7-16.4.1-5,4.1-14.3,7.5-17.5h0ZM279.8,545c.9-1.6,10.3-13.8,10.3-14.6-.4-.4-10.5-10.2-12.1-11.9-6.8-7.2-16-19.4-27.7-13.1-2.9,2-3.4,4-4.3,7.3-1.3,2-3.1,7.8-1.5,9.5,2.4,4.2,17.9,11.2,22.7,14.6,3.2,1.7,8.9,6,10.9,9,.4.4,1.2-.4,1.7-.8h0ZM274.7,552.3c.4-1.2,0-.8-.8-1.7-7.2-6.8-15.7-14-26-16.3-6.1-1.4-5.8,2.3-7.6,7.2-.9,3.3-4,10.2-2.8,13.1,1.6,3.3,7.6,9.7,9.6,12.6.8.8,5.2,7.2,6,7.2,1.2-.4,11.4-10.8,13.1-12.4,3.4-3.2,5.9-6.4,8.5-9.7h0ZM208.2,572c-5.4,2.8-5.2,8.1-5.3,13.9.4.4.2,6.2,1.1,7,1.2,1.3,12.8-.9,14.5-1.7,7.5-1.5,17.5-5.3,23.8-9.7,1.4-.8,1.7-1.9.9-3.3-1.2-2.9-7.5-13-9.5-14.3-3.2-2.6-7.8.2-10.8,1.4-5,1.5-10.4,4.3-14.6,6.6h0ZM154.7,566.5c8.8,11,22.6,21.2,36.1,24.5,2.1.5,1.2-.4,1.7-1.6.9-4.9,2.8-13.1,0-16.9-2-2.9-14.4-16.9-18.6-16.2-2.1.4-20.4,6.5-21.2,7.3.4,1.2,1.2,2.1,2,2.9h0ZM149.4,502.4c-4.2,4.8-7.5,19.2-8.1,25.4-.2,6.6.4,14.9,3.2,21.1,1.2,2.9,23.8,3.9,26.4.7s7.6-21.7,8.5-26.6c1.8-5.7-8.8-11-12.4-13.1-4.5-2.2-9-4.4-13-6.9-1.6-.9-2.9-1.3-4.5-.5h0ZM195,509c3.8-2.8,7.6-6.4,11.4-8.4,3.8-2,17.1-9,17.7-12.7.5-2.9-2.7-6.3-4.7-8.4-6.9-6.4-19-14.9-27.6-18.9-2.4-.9-2.1-.5-4.1.7-11.8,7.9-23.6,19.2-31.7,30.1-.9,1.6.8,1.7,2.8,3,8.1,5.2,28.8,20.1,36.3,14.6h0ZM305.9,510.7c5.1-5.6,9.7-9.2,21.1-17.6,1.3-1.2,0-1.6-1.6-2.5-11.7-9-14.5-14.4-22-26.6-3.6-5.5-6-8-13-8.6-11.1-.7-16.9,0-28.4-4.5-9-3.5-19.9-10.8-28-16-1.6-.9-5.8,2.3-7.1,3.5-8.4,5.5-17.2,9.9-26,15-2.5,1.6-1.3,1.2,2,2.9,13,6.9,19.8,14.1,30.8,23.1,8.5,7.2,11.8,6.5,22,9.6,7,2.2,17.5,8.3,21.9,14.6,1.6,1.7,16,20.2,16,20.2,1.2.4,10.6-11.7,12.3-13.3h0ZM442.8,419.4c2.6-3.2,2.5-2.4-2.3-5-18.7-11.2-37.3-23.2-56.5-33.2-17.1-9.5-17.7-.9-24.3,13.4-6.1,12.2-6.1,11.4-15.4,21-6.8,8.1-14.1,17.4-20.5,25.9-5.1,6.5-9.4,12.1-6.8,21.7s12.8,16,20.9,21.2c.8.9,1.6.9,2.5.9,2.1-.4,8-4.3,10.5-5.1,2.1-1.2,17.1-7.4,17.5-7.8,1.3-1.2-3.2-3.4-3.6-3.8-4.1-2.6-9.7-6-13.4-9-3.6-3-8.1-6.8-6.7-12.1,1.3-3.7,7.8-.2,10.3.7,8.6,3.9,15.4,9.5,23.5,14.6.8,0,3.7,2.2,4.5,2.2,1.6,0,5.4-1.1,6.2-1.9,1.2-.4,7.1-3.5,6.7-4-.3-2.9-23-20-25.8-22.1-1.2-1.3-4.4-5.5-1.5-6.6,5.4-2.8,14.8,1.2,19.7,3.8,6.5,3.5,12.6,6.5,19.1,10,.8.9,4.9,2.6,5.7,2.6,2.5,0,8.8-6,10.5-7.6-6.8-8.8-17-14.5-26.3-20.9-2-1.3-8.5-6.4-5.1-9.6,3-2.8,26.9,13.1,31.3,16.1,1.6,1.7,6.9,5.5,8.5,5.6,1.6,0,8.1-8.5,10.6-10.9h0ZM345.4,387.9c7.6-8,15.8-19.8,7.4-30.3-3.2-5-4.8-5.1-10.1-7.3-3.7-1.3-38.8-14.6-40-14.2-1.6,0-8.2,12.6-9.5,14.6,0,.8-4.3,8.1-3.9,8.6,0,.8,2.5.9,2.9,1.3,7.8,2.3,14.7,4.5,22.5,6,4.1.9,5.3,2.2,6.4,6.8,1,8.7-5.2,8.1-11.3,6.7-3.7-.5-10.2-4-13.9-5.3-.8,0-11.8-4.9-12.7-4.9-.9.8-3.5,5.7-3.9,6.9-2.6,4.9-6,9.7-8.2,14.2-.9.8-1.3,2,0,2.5,0,0,11.8,5.7,13.4,6.5,2.9,1.3,8.6,3.1,9.7,6,1.6,2.5,1.1,5.4-2.6,5.7-9.1-.2-24.9-10.1-27-9.8-1.2-.4-2.5,1.6-3.4,2.4-4.3,6.5-8.6,11.3-14.1,17.4-2.1,2.8-.9,2.5,1.5,4.2,9.7,6.9,17.4,11.6,28.9,15.2,28.3,6.9,41.3-16.7,54.2-37,4.3-7.3,7.7-10.5,13.6-16.1h0ZM390.1,303.7l-11.2-11.8c-4.8-5.1-8.8-10.1-12.8-16-.4-.4-4.2,2.4-5,3.2-17.6,11.1-35.3,26.3-49,42.4-3.4,4-2.2,4.5,2.3,7.5,7.3,5.1,27.6,15.6,36.3,17,9.4,2.3,17.2,3.8,26.8,1.1,6.2-1.9,11.4-8.4,14.8-14,4.3-7.3,7.5-18.4,1.5-25.5l-3.6-3.8h0ZM454.6,313.2c-7.7-3.9-13.8-7.8-20.7-12.5-14.9-12.4-23.8-21.7-34.9-36.8-1.2-1.3-1.2-2.1-3.7-1.3-7.1,1.9-13.7,5-20.4,8.1,8.6,19.2,23,33.6,38.4,47.2,12.5,11.5,45.5,26.8,62.3,30.9.8.9.9-.8,1.3-1.2.5-4.5,2.1-18.1,1.8-21.8,0,0-22-11.3-24-12.6h0ZM432.9,290.4c8.9,8.5,15.3,13.6,26.3,19.2,1.6.9,18.8,8.7,19.2,8.3.9-.8-1.7-13.7-2.5-15.3-7.9-31.1-33-48.3-64.9-43.8-5.8.7,19.5,29,21.9,31.5h0Z"/>
  <path class="st0" d="M228.1,64.3c1.6,2,3.8,4.3,5.4,6.3,6.3,7.3,15.9,14.3,23.2,20.9,6.5,5.5,15.2,10.2,24.6,9.3,4.1-.7,10-5,13-7.5,3.3-3,14.6-15.1,13.7-18.7.2-.5-20.2-18.9-22.4-21.1-9.1-8-15.5-16.7-23.6-25.5-3-3.3-22.2,13.6-26,17.6-4.6,4.3-7.8,8.6-12.3,13,0,0,4.6,5.3,4.4,5.9h0ZM268.2,107.1s-2.4-.4-2.1.3c.4,4.7,11.1,12.1,14.1,16.7,2.5,3.1,1.7,10.4,3.5,10.6,3.4.9,6.5-1.5,13.3.3,1.1.5,6.4,2.9,6.6,2.4s-4.2-7.7-5-8.7c-7.5-13.1-.3-24.5-1.5-27.6-.6-1.6-11.8,6.2-15.2,6.5-5.5.7-8.6.6-13.9-.6h0ZM191.7,348.5c-1.9,4.2-9.5,11-14.2,12.8-5.2,1.5-14.7-2.9-18.9-4.8-5.3-2.4-5.8-9.7-5.5-14.7-.2-5.2,2.7-21.2,5.7-25,2.2-3.5,29-14.3,36.7-17.2,3.9-1.4,10.6-3.5,11.3,3.3.4,4.7-4.1,18.7-5.7,23.7-1.6,7.6-5.7,15.3-9.4,22h0ZM145.7,271c-.2.5-.7,1.6-.2,1.8,3.4.9,9.3,4.9,12,7.4,4.8,3.5,16.5,15.9,21.2,16.8,2.1,1,7-2.6,8.5-4.5,2.8-1.9,4.6-3,5.5-6.5,2.2-13.1-12.4-17.8-21.4-22-2.1-1-14.6-7.3-15.1-7.6-.8.3-9.2,13.1-10.5,14.5h0ZM140.5,278.2c-2.2,3.5-4.5,6.9-6.4,11.2-1,2.1-7.6,15.1-7.5,16.4.3.8,7.7,2.9,8.7,3.4,3.4.9,11.4,4.6,15.1,5,3.1.1,8.7-5,11.5-6.9,4.1-3.3,7.7-4.2,4.4-9.5-5.5-8.9-15.1-14.6-23.9-19.3-1.1-.5-.8-1-1.8-.2h0ZM143.4,347.5c.9-4.7,1.7-10.8,1.5-16,.1-3.1,1.3-8.4-2.2-10.6-1.9-1.5-13.4-4.2-16.6-4.4-1.6-.3-2.5.3-2.8,1.9-2.1,7.4-2.5,18.1-1.5,25.6-.2,1.8,1.5,13.5,3.1,14.2,1.1.5,6.5-1.5,7-1.3,5.4-2,10.6-3.5,11.4-9.5h0ZM166,396.3c1.1.5,2.1,1,3.4.9.5-1.1.3-20.4,0-22.4-.7-4.1-17.9-11.4-21.3-12.3-4.5-1.4-11.6,3-16,5.5-1,.8-2.1.3-1,2.1,7.4,11.8,21.6,21.4,34.8,26.2h0ZM228.3,380.6c.2-1.8-.6-2.9-2-4.1-3.8-3-7.3-6.5-10.8-10.1-3.2-2.8-11.6-11.1-16.4-7.5-4.4,2.5-20.2,13.2-22.4,16.7-2.2,3.5,6.1,24.6,9.2,24.7,6.8.5,14.8-1.6,21-3.9,5.6-2.5,18.2-10.3,21.4-15.9h0ZM207.3,339.6c-2.8,9,18,23.6,25.6,29.6,1.9,1.5,2.4,3,3.7,1.7,7.7-11.2,14.5-26.1,18.2-39.8.4-2.4,1-2.1-.7-4.1-6.5-6.8-18.5-15.5-26.8-20-2.6-1.2-6.9-3.1-9.5-1.8-3.3,1.7-5.7,16.6-6.3,20.8-.6,4.2-2.8,9-4.2,13.5h0ZM169.8,235.2c-1,2.1-9.4,14.9-8.6,15.9,0,0,22.2,7.6,24.3,8.5,7.4,2.1,16.5,10.1,20.9,16,6.3,8.6,6.7,12,16.3,17.7,12,7.4,21,11.5,31.8,21.6,2.7,2.5,2.7,3.8,3.4.9,2-10,3.2-19.7,5.8-29.4.7-1.6,2.4-6.6,1-7.9-7.5-6-18-14-24.2-21.3-7.9-9.4-9.1-15.1-13.4-25.4-2.8-6.4-6-7.9-12.3-9.5-13.9-3.2-20-4-32.3-12.2-1.4-1.3-2.2-2.3-2.9-.7-4.2,13.4-6.1,19-9.8,25.6h0ZM211.8,76.1c-1.5,3.2-7.4,12-6.8,13.6.6,1.6,5.9,5.3,8,6.2,4.3,3.2,27.1,20.7,25.4,24.4-1.9,4.2-8.9-.2-10.8-1.7-9.1-6.7-17.7-14.5-28.3-18.1-1,2.1-4.6,10.1-3.7,12.4.3.8,3.3,4.1,4.3,4.6,5.4,5,10.3,9.8,15.6,14.8,4.1,3.8,10.8,11.4,10,17.4-.1,3.1-5.2,1.5-6.8.8-2.9-2-26.4-17.9-29.3-17.2-.5-.2-1.6,6.3-1.6,7.6-.5,1.1-.4,5,.2,6.5.3.8,3.2,2.8,3.5,3.5,7.5,6,15,10.7,21.5,17.5,1.6,2,7,7.1,4,9.5-4.6,3-9.6,0-13.6-2.4s-9.1-6.7-12.9-9.7c-.5-.2-4-3.8-4.8-2.2-.2.5-1.2,16.7-1.7,19.1,0,2.6-1.8,9.4-1.4,11.5.3.8.6,1.6,1.6,2,7.5,6,16.9,13.5,26.8,12.9,9.9-.6,13.9-6.5,18.3-13.4,6-8.8,12.4-18.7,17.8-27.8,6.1-12,5.3-11.7,14.9-21.4,11.4-10.8,19.3-14.2,4.8-27.3-15.6-14.8-33.1-28.6-49.8-42.6-4.1-3.8-3.3-4.1-5.5-.6h0ZM273.1,158c-3.4,7.4-5.3,11.7-10.9,18.1-15,18.8-33.1,38.7-17.4,63.2,7.1,9.7,14.1,15.4,23.7,22.4,2.4,1.7,2.5,3,4.4.1,3.9-7.2,7.1-12.8,11.9-18.9.5-1.1,2-2.9,1.2-4-.3-2.1-14.8-13.8-18-22.3-.9-3.6,1.6-5,4.5-4.3,3.1.1,6.7,5,8.9,7.3,1.4,1.3,10.5,10.6,10.5,10.6.8,1,1.8.2,2.3-.9,3.5-3.5,7-8.3,10.8-12.4,1-.8,4.8-4.9,5.3-5.9-.3-.8-8.4-9.6-8.7-10.4-2.5-3.1-7.9-8.1-9.5-11.4-3.3-5.4-5.9-11,2.7-12.9,4.7-.4,6.3.3,8.5,3.9,3.9,6.9,8.3,12.8,12.9,19.4.5.2,1.4,2.6,2.2,2.3.5.2,6-6.2,6.8-6.5,1.5-1.9,11.3-12.1,10.8-13.7,0-1.3-24-30.2-26.5-33.3-3.8-4.3-4.4-5.9-10.2-7.2-12.7-4.5-21.1,7-26.3,16.8h0ZM338.2,88.4l-4.8-2.2c-8.7-3.3-18.1,3.2-23.7,9.7-4.3,5.1-8.7,12-8.5,18.6.6,9.9,4.5,16.8,9.7,25,4.2,7.7,20.6,23.6,27.9,28.8,4.3,3.2,5.1,4.3,7.8-.3,10.9-18.1,19.5-39.8,24.3-60.1.5-1.1,1.9-5.6,1.4-5.8-6.9-1.8-12.9-4-19.3-6.9l-14.9-6.8h0ZM308.3,30.5c-1.9-1.5-19.7-18.6-19.7-18.6-3.6.9-15.9,6.8-20,8.8-.2.5-1.8,1.1-.7,1.6,9.4,14.5,34.6,40.8,49.5,48.9,17.8,10.1,36.1,19.1,57.1,21,.8-7.3,1.6-14.7,1.1-22,0-2.6-.9-2.3-2.5-3.1-17.9-5.6-29.6-11-46.1-21.1-6.7-5-12.3-9.5-18.5-15.5h0ZM336.9,43.6c3.2,1.5,38.1,16.2,36.9,10.5-6-31.6-30.4-49.8-62.4-47.2-1.8-.2-14.8,1.6-15.3,2.6-.2.5,12.8,14.2,14.1,15.4,8.9,8.6,15.9,13,26.7,18.6h0Z"/>
</svg>