<?xml version="1.0" encoding="UTF-8"?>
<svg id="Layer_1" data-name="Layer 1" xmlns="http://www.w3.org/2000/svg" viewBox="0 0 804 804">
  <defs>
    <style>
      .cls-1 {
        fill: #fff;
        fill-rule: evenodd;
      }

      .cls-2 {
        fill: #e26f04;
      }
    </style>
  </defs>
  <circle class="cls-2" cx="402.04" cy="402.04" r="390.39"/>
  <path class="cls-1" d="M582.24,507.8c.46-.46,8.08,2.54,8.08,2.54,3-6.57,6.46-11.77,9.46-18.34,3-5.65,14.19-32.87,9.46-34.94-12.68-5.54-24.45-9.23-36.68-16.14-3.34-1.49-30.91-16.95-31.48-16.49-4.26.34-13.26,17.31-15.34,21.91-1.49,4.26-4.15,12.23-3.34,17.06,2.54,10.49,10.96,18.34,19.37,23.29,9.8,5.54,21.11,13.37,31.37,17.42,2.88,1.03,6.11,2.54,9,3.57h0l.11.11h0ZM520.65,480.01c-3.23-5.31-4.49-8.65-5.77-14.88-.8-3.8,3.34-18.91,1.49-19.03-3.8,0-13.6,12-30.68,8.65-1.38-.46-10.83-2.65-11.42-2.2s4.15,5.31,5.08,6.34c4.61,6.8,3,11.08,5.31,14.42.92,1.97,8.65-1.74,12.8-.11,6.11,1.62,18.34,10.49,23.53,9.23.92,0-.46-2.43-.46-2.43h.11ZM285.86,653.69c5.88-6.46,12.68-13.95,20.42-18.45,4.85-3.69,18.45-13.83,23.76-15.11,7.6-1.74,7.96,6.34,7.85,11.19-.23,9.57-2.08,42.79-5.08,46.48-3,4.74-19.37,13.72-25.14,15.57-5.31,2.2-13.37,4.38-18.11-.46-3.69-3.92-12-12.68-12.34-18.91.11-5.77,4.74-16.49,8.65-20.17h0v-.11l-.02-.02ZM387.56,674.91c1.03-1.85,11.88-15.91,11.88-16.83-.46-.46-12.11-11.77-13.95-13.72-7.85-8.31-18.45-22.37-31.94-15.11-3.34,2.31-3.92,4.61-4.97,8.42-1.49,2.31-3.57,9-1.74,10.96,2.77,4.85,20.65,12.91,26.17,16.83,3.69,1.97,10.26,6.92,12.57,10.37.46.46,1.38-.46,1.97-.92h0v-.02ZM381.68,683.33c.46-1.38,0-.92-.92-1.97-8.31-7.85-18.11-16.14-29.99-18.8-7.03-1.62-6.69,2.65-8.77,8.31-1.03,3.8-4.61,11.77-3.23,15.11,1.85,3.8,8.77,11.19,11.08,14.54.92.92,6,8.31,6.92,8.31,1.38-.46,13.14-12.45,15.11-14.31,3.92-3.69,6.8-7.37,9.8-11.19h0ZM305,706.04c-6.23,3.23-6,9.34-6.11,16.03.46.46.23,7.15,1.26,8.08,1.38,1.49,14.77-1.03,16.72-1.97,8.65-1.74,20.17-6.11,27.45-11.19,1.62-.92,1.97-2.2,1.03-3.8-1.38-3.34-8.65-14.99-10.96-16.49-3.69-3-9,.23-12.45,1.62-5.77,1.74-12,4.97-16.83,7.6h0l-.11.11h.02ZM243.3,699.7c10.14,12.68,26.06,24.45,41.63,28.25,2.43.57,1.38-.46,1.97-1.85,1.03-5.65,3.23-15.11,0-19.49-2.31-3.34-16.6-19.49-21.45-18.68-2.43.46-23.53,7.49-24.45,8.42.46,1.38,1.38,2.43,2.31,3.34h0ZM237.19,625.78c-4.85,5.54-8.65,22.14-9.34,29.29-.23,7.6.46,17.19,3.69,24.34,1.38,3.34,27.45,4.49,30.45.8s8.77-25.02,9.8-30.68c2.08-6.57-10.14-12.68-14.31-15.11-5.19-2.54-10.37-5.08-14.99-7.96-1.85-1.03-3.34-1.49-5.19-.57h0l-.11-.11.02.02ZM289.78,633.4c4.38-3.23,8.77-7.37,13.14-9.69s19.71-10.37,20.42-14.65c.57-3.34-3.11-7.26-5.42-9.69-7.96-7.37-21.91-17.19-31.83-21.8-2.77-1.03-2.43-.57-4.74.8-13.6,9.11-27.22,22.14-36.56,34.71-1.03,1.85.92,1.97,3.23,3.46,9.34,6,33.22,23.17,41.85,16.83h-.11l.02.02ZM417.67,635.35c5.88-6.46,11.19-10.6,24.34-20.3,1.49-1.38,0-1.85-1.85-2.88-13.49-10.37-16.72-16.6-25.37-30.68-4.15-6.34-6.92-9.23-14.99-9.91-12.8-.8-19.49,0-32.76-5.2-10.37-4.03-22.94-12.45-32.28-18.45-1.85-1.03-6.69,2.65-8.19,4.03-9.69,6.34-19.83,11.42-29.99,17.31-2.88,1.85-1.49,1.38,2.31,3.34,14.99,7.96,22.83,16.26,35.51,26.65,9.8,8.31,13.6,7.49,25.37,11.08,8.08,2.54,20.17,9.57,25.25,16.83,1.85,1.97,18.45,23.29,18.45,23.29,1.38.46,12.23-13.49,14.19-15.34h0v.23l.02.02ZM575.55,530.07c3-3.69,2.88-2.77-2.65-5.77-21.57-12.91-43.02-26.76-65.16-38.28-19.71-10.96-20.42-1.03-28.02,15.45-7.03,14.08-7.03,13.14-17.76,24.22-7.85,9.34-16.26,20.06-23.65,29.88-5.88,7.49-10.83,13.95-7.85,25.02s14.77,18.45,24.11,24.45c.92,1.03,1.85,1.03,2.88,1.03,2.43-.46,9.23-4.97,12.11-5.88,2.43-1.38,19.71-8.54,20.17-9,1.49-1.38-3.69-3.92-4.15-4.38-4.74-3-11.19-6.92-15.45-10.37-4.15-3.46-9.34-7.85-7.72-13.95,1.49-4.26,9-.23,11.88.8,9.91,4.49,17.76,10.96,27.11,16.83.92,0,4.26,2.54,5.2,2.54,1.85,0,6.23-1.26,7.15-2.2,1.38-.46,8.19-4.03,7.72-4.61-.34-3.34-26.53-23.06-29.76-25.48-1.38-1.49-5.08-6.34-1.74-7.6,6.23-3.23,17.06,1.38,22.71,4.38,7.49,4.03,14.54,7.49,22.03,11.54.92,1.03,5.65,3,6.57,3,2.88,0,10.14-6.92,12.11-8.77-7.85-10.14-19.6-16.72-30.33-24.11-2.31-1.49-9.8-7.37-5.88-11.08,3.46-3.23,31.02,15.11,36.1,18.57,1.85,1.97,7.96,6.34,9.8,6.46,1.85,0,9.34-9.8,12.23-12.57h0l.23-.11.03-.02ZM463.23,493.74c8.77-9.23,18.22-22.83,8.54-34.94-3.69-5.77-5.54-5.88-11.65-8.42-4.26-1.49-44.74-16.83-46.13-16.37-1.85,0-9.46,14.54-10.96,16.83,0,.92-4.97,9.34-4.49,9.91,0,.92,2.88,1.03,3.34,1.49,9,2.65,16.95,5.2,25.94,6.92,4.74,1.03,6.11,2.54,7.37,7.85,1.15,10.03-6,9.34-13.03,7.72-4.26-.57-11.77-4.61-16.03-6.11-.92,0-13.6-5.65-14.65-5.65-1.03.92-4.03,6.57-4.49,7.96-3,5.65-6.92,11.19-9.46,16.37-1.03.92-1.49,2.31,0,2.88,0,0,13.6,6.57,15.45,7.49,3.34,1.49,9.91,3.57,11.19,6.92,1.85,2.88,1.26,6.23-3,6.57-10.49-.23-28.71-11.65-31.14-11.31-1.38-.46-2.88,1.85-3.92,2.77-4.97,7.49-9.91,13.03-16.26,20.06-2.43,3.23-1.03,2.88,1.74,4.85,11.19,7.96,20.06,13.37,33.33,17.54,32.63,7.96,47.62-19.26,62.5-42.67,4.97-8.42,8.88-12.11,15.68-18.57h0l.11-.11-.02.03ZM514.77,396.64l-12.91-13.6c-5.54-5.88-10.14-11.65-14.77-18.45-.46-.46-4.85,2.77-5.77,3.69-20.3,12.8-40.71,30.33-56.51,48.9-3.92,4.61-2.54,5.2,2.65,8.65,8.42,5.88,31.83,17.99,41.85,19.6,10.83,2.65,19.83,4.38,30.91,1.26,7.15-2.2,13.14-9.69,17.06-16.14,4.97-8.42,8.65-21.22,1.74-29.4l-4.15-4.38h0l-.11-.11v-.02ZM589.15,407.59c-8.88-4.49-15.91-9-23.88-14.42-17.19-14.31-27.45-25.02-40.25-42.44-1.38-1.49-1.38-2.43-4.26-1.49-8.19,2.2-15.8,5.77-23.53,9.34,9.91,22.14,26.53,38.74,44.28,54.42,14.42,13.26,52.47,30.91,71.84,35.63.92,1.03,1.03-.92,1.49-1.38.57-5.2,2.43-20.88,2.08-25.14,0,0-25.37-13.03-27.68-14.54h-.11l.02.02ZM564.13,381.3c10.26,9.8,17.65,15.68,30.33,22.14,1.85,1.03,21.68,10.03,22.14,9.57,1.03-.92-1.97-15.8-2.88-17.65-9.11-35.87-38.05-55.7-74.84-50.51-6.69.8,22.48,33.45,25.25,36.33h0v.11h0Z"/>
  <path class="cls-1" d="M327.94,120.55c1.85,2.31,4.38,4.97,6.23,7.26,7.26,8.42,18.34,16.49,26.76,24.11,7.49,6.34,17.54,11.77,28.37,10.72,4.74-.8,11.54-5.77,14.99-8.65,3.8-3.46,16.83-17.42,15.8-21.57.23-.57-23.29-21.8-25.83-24.34-10.49-9.23-17.88-19.26-27.22-29.4-3.46-3.8-25.6,15.68-29.99,20.3-5.31,4.97-9,9.91-14.19,14.99,0,0,5.31,6.11,5.08,6.8h0v-.23ZM374.19,169.91s-2.77-.46-2.43.34c.46,5.42,12.8,13.95,16.26,19.26,2.88,3.57,1.97,12,4.03,12.23,3.92,1.03,7.49-1.74,15.34.34,1.26.57,7.37,3.34,7.6,2.77s-4.85-8.88-5.77-10.03c-8.65-15.11-.34-28.25-1.74-31.83-.69-1.85-13.6,7.15-17.54,7.49-6.34.8-9.91.69-16.03-.69h0l.23.11h.03ZM285.97,448.29c-2.2,4.85-10.96,12.68-16.37,14.77-6,1.74-16.95-3.34-21.8-5.54-6.11-2.77-6.69-11.19-6.34-16.95-.23-6,3.11-24.45,6.57-28.83,2.54-4.03,33.45-16.49,42.33-19.83,4.49-1.62,12.23-4.03,13.03,3.8.46,5.42-4.74,21.57-6.57,27.34-1.85,8.77-6.57,17.65-10.83,25.37h0v-.11l-.02-.02ZM232.93,358.93c-.23.57-.8,1.85-.23,2.08,3.92,1.03,10.72,5.65,13.83,8.54,5.54,4.03,19.03,18.34,24.45,19.37,2.43,1.15,8.08-3,9.8-5.19,3.23-2.2,5.31-3.46,6.34-7.49,2.54-15.11-14.31-20.53-24.68-25.37-2.43-1.15-16.83-8.42-17.42-8.77-.92.34-10.6,15.11-12.11,16.72h0v.11h.02ZM226.93,367.22c-2.54,4.03-5.19,7.96-7.37,12.91-1.15,2.43-8.77,17.42-8.65,18.91.34.92,8.88,3.34,10.03,3.92,3.92,1.03,13.14,5.31,17.42,5.77,3.57.11,10.03-5.77,13.26-7.96,4.74-3.8,8.88-4.85,5.08-10.96-6.34-10.26-17.42-16.83-27.56-22.25-1.26-.57-.92-1.15-2.08-.23h0l-.11-.11v.02ZM230.27,447.15c1.03-5.42,1.97-12.45,1.74-18.45.11-3.57,1.49-9.69-2.54-12.23-2.2-1.74-15.45-4.85-19.14-5.08-1.85-.34-2.88.34-3.23,2.2-2.43,8.54-2.88,20.88-1.74,29.51-.23,2.08,1.74,15.57,3.57,16.37,1.26.57,7.49-1.74,8.08-1.49,6.23-2.31,12.23-4.03,13.14-10.96h0l.11.11v.02ZM256.33,503.42c1.26.57,2.43,1.15,3.92,1.03.57-1.26.34-23.53,0-25.83-.8-4.74-20.65-13.14-24.57-14.19-5.19-1.62-13.37,3.46-18.45,6.34-1.15.92-2.43.34-1.15,2.43,8.54,13.6,24.91,24.68,40.13,30.22h.11,0ZM328.17,485.32c.23-2.08-.69-3.34-2.31-4.74-4.38-3.46-8.42-7.49-12.45-11.65-3.69-3.23-13.37-12.8-18.91-8.65-5.08,2.88-23.29,15.22-25.83,19.26-2.54,4.03,7.03,28.37,10.6,28.48,7.85.57,17.06-1.85,24.22-4.49,6.46-2.88,20.99-11.88,24.68-18.34h0v.13ZM303.95,438.04c-3.23,10.37,20.76,27.22,29.51,34.14,2.2,1.74,2.77,3.46,4.26,1.97,8.88-12.91,16.72-30.1,20.99-45.9.46-2.77,1.15-2.43-.8-4.74-7.49-7.85-21.34-17.88-30.91-23.06-3-1.38-7.96-3.57-10.96-2.08-3.8,1.97-6.57,19.14-7.26,23.99s-3.23,10.37-4.85,15.57h0v.11h.02ZM260.7,317.63c-1.15,2.43-10.83,17.19-9.91,18.34,0,0,25.6,8.77,28.02,9.8,8.54,2.43,19.03,11.65,24.11,18.45,7.26,9.91,7.72,13.83,18.8,20.42,13.83,8.54,24.22,13.26,36.68,24.91,3.11,2.88,3.11,4.38,3.92,1.03,2.31-11.54,3.69-22.71,6.69-33.91.8-1.85,2.77-7.6,1.15-9.11-8.65-6.92-20.76-16.14-27.91-24.57-9.11-10.83-10.49-17.42-15.45-29.29-3.23-7.37-6.92-9.11-14.19-10.96-16.03-3.69-23.06-4.61-37.25-14.08-1.62-1.49-2.54-2.65-3.34-.8-4.85,15.45-7.03,21.91-11.31,29.51h0v.23l.02.02ZM309.15,134.15c-1.74,3.69-8.54,13.83-7.85,15.68.69,1.85,6.8,6.11,9.23,7.15,4.97,3.69,31.25,23.88,29.29,28.14-2.2,4.85-10.26-.23-12.45-1.97-10.49-7.72-20.42-16.72-32.63-20.88-1.15,2.43-5.31,11.65-4.26,14.31.34.92,3.8,4.74,4.97,5.31,6.23,5.77,11.88,11.31,17.99,17.06,4.74,4.38,12.45,13.14,11.54,20.06-.11,3.57-6,1.74-7.85.92-3.34-2.31-30.45-20.65-33.79-19.83-.57-.23-1.85,7.26-1.85,8.77-.57,1.26-.46,5.77.23,7.49.34.92,3.69,3.23,4.03,4.03,8.65,6.92,17.31,12.34,24.8,20.17,1.85,2.31,8.08,8.19,4.61,10.96-5.31,3.46-11.08,0-15.68-2.77s-10.49-7.72-14.88-11.19c-.57-.23-4.61-4.38-5.54-2.54-.23.57-1.38,19.26-1.97,22.03,0,3-2.08,10.83-1.62,13.26.34.92.69,1.85,1.85,2.31,8.65,6.92,19.49,15.57,30.91,14.88s16.03-7.49,21.11-15.45c6.92-10.14,14.31-21.57,20.53-32.05,7.03-13.83,6.11-13.49,17.19-24.68,13.14-12.45,22.25-16.37,5.54-31.48-17.99-17.06-38.17-32.99-57.42-49.13-4.74-4.38-3.8-4.74-6.34-.69h0l.34.11v.03ZM379.84,228.61c-3.92,8.54-6.11,13.49-12.57,20.88-17.31,21.68-38.17,44.62-20.06,72.88,8.19,11.19,16.26,17.76,27.34,25.83,2.77,1.97,2.88,3.46,5.08.11,4.49-8.31,8.19-14.77,13.72-21.8.57-1.26,2.31-3.34,1.38-4.61-.34-2.43-17.06-15.91-20.76-25.71-1.03-4.15,1.85-5.77,5.19-4.97,3.57.11,7.72,5.77,10.26,8.42,1.62,1.49,12.11,12.23,12.11,12.23.92,1.15,2.08.23,2.65-1.03,4.03-4.03,8.08-9.57,12.45-14.31,1.15-.92,5.54-5.65,6.11-6.8-.34-.92-9.69-11.08-10.03-12-2.88-3.57-9.11-9.34-10.96-13.14-3.8-6.23-6.8-12.68,3.11-14.88,5.42-.46,7.26.34,9.8,4.49,4.49,7.96,9.57,14.77,14.88,22.37.57.23,1.62,3,2.54,2.65.57.23,6.92-7.15,7.85-7.49,1.74-2.2,13.03-13.95,12.45-15.8,0-1.49-27.68-34.82-30.56-38.4-4.38-4.97-5.08-6.8-11.77-8.31-14.65-5.19-24.34,8.08-30.33,19.37h.11,0ZM454.92,148.35l-5.54-2.54c-10.03-3.8-20.88,3.69-27.34,11.19-4.97,5.88-10.03,13.83-9.8,21.45.69,11.42,5.2,19.37,11.19,28.83,4.85,8.88,23.76,27.22,32.17,33.22,4.97,3.69,5.88,4.97,9-.34,12.57-20.88,22.48-45.9,28.02-69.3.57-1.26,2.2-6.46,1.62-6.69-7.96-2.08-14.88-4.61-22.25-7.96l-17.19-7.85h.11ZM420.44,81.56c-2.2-1.74-22.71-21.45-22.71-21.45-4.15,1.03-18.34,7.85-23.06,10.14-.23.57-2.08,1.26-.8,1.85,10.83,16.72,39.9,47.05,57.08,56.39,20.53,11.65,41.63,22.03,65.85,24.22.92-8.42,1.85-16.95,1.26-25.37,0-3-1.03-2.65-2.88-3.57-20.65-6.46-34.14-12.68-53.16-24.34-7.72-5.77-14.19-10.96-21.34-17.88h-.23,0ZM453.41,96.67c3.69,1.74,43.94,18.68,42.56,12.11-6.92-36.45-35.05-57.42-71.96-54.42-2.08-.23-17.06,1.85-17.65,3-.23.57,14.77,16.37,16.26,17.76,10.26,9.91,18.34,14.99,30.79,21.45h0v.11-.02Z"/>
</svg>