<?xml version="1.0" encoding="UTF-8"?>
<svg id="Layer_1" data-name="Layer 1" xmlns="http://www.w3.org/2000/svg" viewBox="0 0 804 804">
  <defs>
    <style>
      .cls-1 {
        fill: #fff;
      }
    </style>
  </defs>
  <path class="cls-1" d="M374.19,169.91s-.02,0-.05,0h.01s.03,0,.03,0Z"/>
  <path class="cls-1" d="M289.78,633.4s.01-.01.02-.02h-.04l.02.02Z"/>
  <path class="cls-1" d="M402.04,11.65C186.43,11.65,11.65,186.43,11.65,402.04s174.78,390.39,390.39,390.39,390.39-174.78,390.39-390.39S617.64,11.65,402.04,11.65ZM538.87,344.85c36.79-5.2,65.73,14.63,74.84,50.51.92,1.85,3.92,16.73,2.88,17.65-.46.46-20.29-8.54-22.14-9.57-12.68-6.46-20.08-12.34-30.33-22.14v-.11c-2.77-2.88-31.94-35.53-25.25-36.33ZM424.01,54.36c36.91-3,65.04,17.98,71.96,54.42,1.38,6.57-38.87-10.37-42.56-12.11v-.1c-12.45-6.46-20.53-11.54-30.79-21.45-1.49-1.39-16.49-17.19-16.26-17.76.59-1.15,15.57-3.23,17.65-3ZM374.67,70.26c4.72-2.29,18.91-9.11,23.06-10.14,0,0,20.52,19.71,22.71,21.45h.23c7.15,6.92,13.62,12.11,21.34,17.88,19.03,11.65,32.51,17.88,53.16,24.34,1.85.92,2.88.57,2.88,3.57.59,8.42-.34,16.95-1.26,25.37-24.22-2.2-45.31-12.57-65.85-24.22-17.17-9.34-46.25-39.68-57.08-56.39-1.28-.59.57-1.28.8-1.85ZM514.88,396.77l4.15,4.38c6.92,8.18,3.23,20.98-1.74,29.4-3.92,6.46-9.91,13.95-17.06,16.14-11.08,3.11-20.08,1.39-30.91-1.26-10.03-1.61-33.43-13.72-41.85-19.6-5.2-3.46-6.57-4.05-2.65-8.65,15.8-18.57,36.2-36.1,56.51-48.9.92-.92,5.31-4.15,5.77-3.69,4.62,6.8,9.23,12.57,14.77,18.45l12.91,13.6v.02s.11.11.11.11ZM463.13,493.82c-6.8,6.46-10.72,10.14-15.68,18.57-14.88,23.42-29.88,50.64-62.5,42.67-13.27-4.16-22.14-9.57-33.33-17.54-2.77-1.97-4.16-1.62-1.74-4.85,6.34-7.03,11.29-12.57,16.26-20.06,1.03-.92,2.54-3.23,3.92-2.77,2.43-.34,20.65,11.08,31.14,11.31,4.26-.34,4.85-3.69,3-6.57-1.28-3.34-7.85-5.42-11.19-6.92-1.85-.92-15.45-7.49-15.45-7.49-1.49-.57-1.03-1.97,0-2.88,2.54-5.18,6.46-10.72,9.46-16.37.46-1.39,3.46-7.05,4.49-7.96,1.05,0,13.73,5.65,14.65,5.65,4.26,1.51,11.77,5.54,16.03,6.11,7.03,1.62,14.18,2.31,13.03-7.72-1.26-5.31-2.64-6.82-7.37-7.85-9-1.72-16.95-4.26-25.94-6.92-.46-.46-3.34-.57-3.34-1.49-.48-.57,4.49-9,4.49-9.91,1.51-2.29,9.11-16.83,10.96-16.83,1.39-.46,41.87,14.88,46.13,16.37,6.11,2.54,7.96,2.65,11.65,8.42,9.69,12.11.23,25.71-8.54,34.94l.02-.03-.11.11ZM303.49,503.52c-7.16,2.64-16.37,5.06-24.22,4.49-3.57-.11-13.14-24.45-10.6-28.48,2.54-4.03,20.75-16.37,25.83-19.26,5.54-4.15,15.22,5.42,18.91,8.65,4.03,4.16,8.08,8.19,12.45,11.65,1.62,1.39,2.54,2.65,2.31,4.74v-.13c-3.69,6.46-18.22,15.45-24.68,18.34ZM289.87,633.38c-8.64,6.34-32.51-10.83-41.85-16.83-2.31-1.49-4.26-1.61-3.23-3.46,9.34-12.57,22.96-25.6,36.56-34.71,2.31-1.38,1.97-1.84,4.74-.8,9.91,4.6,23.86,14.42,31.83,21.8,2.31,2.43,6,6.34,5.42,9.69-.7,4.28-16.04,12.34-20.42,14.65-4.37,2.31-8.75,6.44-13.12,9.67h.08ZM248.04,411.75c2.54-4.03,33.45-16.49,42.33-19.83,4.49-1.62,12.23-4.03,13.03,3.8.46,5.42-4.74,21.57-6.57,27.34-1.85,8.77-6.57,17.65-10.83,25.37v-.11l-.02-.02c-2.2,4.85-10.96,12.68-16.37,14.77-6,1.74-16.95-3.34-21.8-5.54-6.11-2.77-6.69-11.19-6.34-16.95-.23-6,3.11-24.45,6.57-28.83ZM303.95,438.04h-.02v-.11c1.62-5.2,4.16-10.72,4.85-15.57s3.46-22.03,7.26-23.99c3-1.49,7.96.7,10.96,2.08,9.57,5.18,23.42,15.21,30.91,23.06,1.95,2.31,1.26,1.97.8,4.74-4.28,15.8-12.11,32.99-20.99,45.9-1.49,1.49-2.06-.23-4.26-1.97-8.75-6.92-32.74-23.76-29.51-34.14ZM379.73,228.61c6-11.29,15.68-24.57,30.33-19.37,6.69,1.51,7.39,3.34,11.77,8.31,2.88,3.57,30.56,36.91,30.56,38.4.57,1.85-10.72,13.6-12.45,15.8-.93.34-7.28,7.72-7.85,7.49-.92.34-1.97-2.43-2.54-2.65-5.31-7.6-10.39-14.41-14.88-22.37-2.54-4.15-4.38-4.95-9.8-4.49-9.91,2.2-6.92,8.65-3.11,14.88,1.85,3.8,8.08,9.57,10.96,13.14.34.92,9.69,11.08,10.03,12-.57,1.15-4.97,5.88-6.11,6.8-4.38,4.74-8.42,10.28-12.45,14.31-.57,1.26-1.74,2.18-2.65,1.03,0,0-10.49-10.73-12.11-12.23-2.54-2.65-6.69-8.31-10.26-8.42-3.34-.8-6.23.82-5.2,4.97,3.7,9.8,20.42,23.29,20.76,25.71.93,1.26-.8,3.34-1.38,4.61-5.52,7.03-9.23,13.49-13.72,21.8-2.2,3.34-2.31,1.85-5.08-.11-11.08-8.06-19.14-14.63-27.34-25.83-18.11-28.25,2.75-51.2,20.06-72.88,6.46-7.39,8.65-12.34,12.57-20.88h0s-.11,0-.11,0ZM373.93,169.8c6.11,1.38,9.69,1.49,16.03.69,3.93-.34,16.85-9.34,17.54-7.49,1.39,3.57-6.92,16.72,1.74,31.83.92,1.15,6,9.46,5.77,10.03-.23.57-6.34-2.2-7.6-2.77-7.85-2.08-11.42.69-15.34-.34-2.06-.23-1.15-8.65-4.03-12.23-3.46-5.31-15.8-13.83-16.26-19.26-.32-.74,2.03-.41,2.38-.35l-.21-.11ZM471.99,156.2c7.37,3.36,14.29,5.88,22.25,7.96.57.23-1.05,5.42-1.62,6.69-5.54,23.4-15.45,48.43-28.02,69.3-3.11,5.31-4.03,4.03-9,.34-8.41-6-27.32-24.34-32.17-33.22-6-9.46-10.5-17.4-11.19-28.83-.23-7.62,4.83-15.57,9.8-21.45,6.46-7.51,17.31-14.99,27.34-11.19l5.54,2.54h-.11l17.19,7.85ZM474.27,452.56c.59-.46,10.05,1.74,11.42,2.2,17.08,3.34,26.88-8.65,30.68-8.65,1.85.11-2.29,15.22-1.49,19.03,1.28,6.23,2.54,9.57,5.77,14.88h-.11s1.38,2.43.46,2.43c-5.2,1.26-17.42-7.6-23.53-9.23-4.15-1.62-11.88,2.08-12.8.11-2.31-3.34-.7-7.62-5.31-14.42-.93-1.03-5.67-5.88-5.08-6.34ZM337.06,98.98c4.39-4.62,26.53-24.11,29.99-20.3,9.34,10.14,16.73,20.17,27.22,29.4,2.54,2.54,26.06,23.76,25.83,24.34,1.03,4.15-12,18.11-15.8,21.57-3.46,2.88-10.26,7.85-14.99,8.65-10.83,1.05-20.88-4.38-28.37-10.72-8.42-7.62-19.5-15.68-26.76-24.11-1.85-2.29-4.38-4.95-6.23-7.26v.23c.23-.69-5.08-6.8-5.08-6.8,5.19-5.08,8.88-10.03,14.19-14.99ZM277.06,257.05c.59-2.77,1.74-21.45,1.97-22.03.93-1.84,4.97,2.31,5.54,2.54,4.39,3.47,10.28,8.42,14.88,11.19s10.37,6.23,15.68,2.77c3.47-2.77-2.75-8.65-4.61-10.96-7.49-7.83-16.14-13.26-24.79-20.17-.34-.8-3.69-3.11-4.03-4.03-.69-1.72-.8-6.23-.23-7.49,0-1.51,1.28-9,1.85-8.77,3.34-.82,30.45,17.52,33.79,19.83,1.85.82,7.74,2.65,7.85-.92.92-6.92-6.8-15.68-11.54-20.06-6.11-5.75-11.77-11.29-17.99-17.06-1.16-.57-4.62-4.39-4.97-5.31-1.05-2.65,3.11-11.88,4.26-14.31,12.21,4.16,22.14,13.16,32.63,20.88,2.2,1.74,10.26,6.82,12.45,1.97,1.97-4.26-24.32-24.45-29.29-28.14-2.43-1.03-8.54-5.29-9.23-7.15-.69-1.85,6.11-12,7.85-15.68v-.03s-.34-.11-.34-.11c2.54-4.05,1.61-3.69,6.34.69,19.26,16.14,39.43,32.07,57.42,49.13,16.72,15.11,7.6,19.03-5.54,31.48-11.08,11.19-10.16,10.85-17.19,24.68-6.23,10.49-13.62,21.91-20.53,32.05-5.08,7.96-9.69,14.77-21.11,15.45s-22.25-7.96-30.91-14.88c-1.16-.46-1.51-1.39-1.85-2.31-.46-2.43,1.62-10.26,1.62-13.26ZM260.69,317.62v-.23c4.28-7.6,6.46-14.06,11.31-29.51.8-1.85,1.72-.69,3.34.8,14.19,9.47,21.22,10.39,37.25,14.08,7.28,1.85,10.96,3.59,14.19,10.96,4.97,11.86,6.34,18.45,15.45,29.29,7.15,8.42,19.26,17.65,27.91,24.57,1.62,1.51-.34,7.26-1.15,9.11-3,11.19-4.38,22.37-6.69,33.91-.8,3.34-.8,1.85-3.92-1.03-12.45-11.65-22.84-16.37-36.68-24.91-11.08-6.59-11.54-10.5-18.8-20.42-5.08-6.8-15.57-16.03-24.11-18.45-2.43-1.03-28.02-9.8-28.02-9.8-.92-1.15,8.77-15.91,9.91-18.34l-.02-.02ZM232.91,358.93v-.11c1.51-1.61,11.19-16.37,12.11-16.72.59.34,14.99,7.62,17.42,8.77,10.37,4.83,27.22,10.26,24.68,25.37-1.03,4.03-3.11,5.29-6.34,7.49-1.72,2.2-7.37,6.34-9.8,5.19-5.42-1.03-18.91-15.34-24.45-19.37-3.11-2.88-9.91-7.51-13.83-8.54-.57-.23,0-1.51.23-2.08h-.02ZM219.55,380.14c2.18-4.95,4.83-8.88,7.37-12.91v-.02s.11.11.11.11c1.16-.92.82-.34,2.08.23,10.14,5.42,21.22,12,27.56,22.25,3.8,6.11-.34,7.16-5.08,10.96-3.23,2.2-9.69,8.08-13.26,7.96-4.28-.46-13.5-4.74-17.42-5.77-1.15-.57-9.69-3-10.03-3.92-.11-1.49,7.51-16.49,8.65-18.91ZM208.93,459.47c-1.84-.8-3.8-14.29-3.57-16.37-1.15-8.64-.69-20.98,1.74-29.51.34-1.85,1.38-2.54,3.23-2.2,3.69.23,16.95,3.34,19.14,5.08,4.03,2.54,2.65,8.65,2.54,12.23.23,6-.7,13.03-1.74,18.45v-.02l-.11-.11c-.92,6.93-6.92,8.65-13.14,10.96-.59-.25-6.82,2.06-8.08,1.49ZM216.08,473.2c-1.28-2.08,0-1.51,1.15-2.43,5.08-2.88,13.26-7.96,18.45-6.34,3.92,1.05,23.76,9.46,24.57,14.19.34,2.29.57,24.57,0,25.83-1.49.11-2.65-.46-3.92-1.03h-.11c-15.22-5.54-31.6-16.62-40.13-30.22ZM231.53,679.4c-3.23-7.15-3.92-16.73-3.69-24.34.69-7.15,4.49-23.75,9.34-29.29l-.02-.02.11.11c1.85-.92,3.34-.46,5.19.57,4.62,2.88,9.8,5.42,14.99,7.96,4.16,2.43,16.39,8.54,14.31,15.11-1.03,5.65-6.8,26.99-9.8,30.68-3,3.69-29.07,2.54-30.45-.8ZM286.89,726.1c-.59,1.39.46,2.43-1.97,1.85-15.57-3.8-31.48-15.57-41.63-28.25-.93-.92-1.85-1.97-2.31-3.34.92-.93,22.03-7.96,24.45-8.42,4.85-.8,19.14,15.34,21.45,18.68,3.23,4.38,1.03,13.83,0,19.49ZM289.56,692.9c-3.69-3.92-12-12.68-12.34-18.91.11-5.77,4.74-16.49,8.65-20.17v-.11l-.02-.02c5.88-6.46,12.68-13.95,20.42-18.45,4.85-3.69,18.45-13.83,23.76-15.11,7.6-1.74,7.96,6.34,7.85,11.19-.23,9.57-2.08,42.79-5.08,46.48-3,4.74-19.37,13.72-25.14,15.57-5.31,2.2-13.37,4.38-18.11-.46ZM344.32,716.99c-7.28,5.08-18.8,9.46-27.45,11.19-1.95.93-15.34,3.46-16.72,1.97-1.03-.93-.8-7.62-1.26-8.08.11-6.69-.11-12.8,6.11-16.03h-.02l.11-.11c4.83-2.64,11.06-5.87,16.83-7.6,3.46-1.39,8.77-4.62,12.45-1.62,2.31,1.49,9.59,13.14,10.96,16.49.93,1.61.59,2.88-1.03,3.8ZM381.68,683.33c-3,3.82-5.88,7.51-9.8,11.19-1.97,1.85-13.73,13.85-15.11,14.31-.92,0-6-7.39-6.92-8.31-2.31-3.34-9.23-10.73-11.08-14.54-1.38-3.34,2.2-11.31,3.23-15.11,2.08-5.65,1.74-9.93,8.77-8.31,11.88,2.65,21.68,10.95,29.99,18.8.92,1.05,1.38.59.92,1.97ZM387.56,674.91v.02c-.59.46-1.51,1.38-1.97.92-2.31-3.46-8.88-8.41-12.57-10.37-5.52-3.92-23.4-11.98-26.17-16.83-1.84-1.97.25-8.65,1.74-10.96,1.05-3.82,1.62-6.11,4.97-8.42,13.49-7.26,24.09,6.8,31.94,15.11,1.84,1.95,13.49,13.26,13.95,13.72,0,.92-10.85,14.98-11.88,16.83ZM442,615.04c-13.14,9.7-18.45,13.85-24.34,20.3l-.02-.02v-.23c-1.97,1.85-12.82,15.8-14.19,15.34,0,0-16.6-21.32-18.45-23.29-5.08-7.26-17.17-14.29-25.25-16.83-11.77-3.59-15.57-2.77-25.37-11.08-12.68-10.39-20.52-18.68-35.51-26.65-3.8-1.97-5.19-1.49-2.31-3.34,10.16-5.88,20.3-10.96,29.99-17.31,1.51-1.38,6.34-5.06,8.19-4.03,9.34,6,21.91,14.42,32.28,18.45,13.27,5.2,19.96,4.39,32.76,5.2,8.08.69,10.85,3.57,14.99,9.91,8.65,14.08,11.88,20.3,25.37,30.68,1.85,1.03,3.34,1.51,1.85,2.88ZM575.55,530.07l-.03.02-.23.11c-2.88,2.77-10.37,12.57-12.23,12.57-1.84-.11-7.95-4.49-9.8-6.46-5.08-3.46-32.64-21.8-36.1-18.57-3.92,3.7,3.57,9.59,5.88,11.08,10.73,7.39,22.48,13.96,30.33,24.11-1.97,1.85-9.23,8.77-12.11,8.77-.92,0-5.65-1.97-6.57-3-7.49-4.05-14.54-7.51-22.03-11.54-5.65-3-16.49-7.6-22.71-4.38-3.34,1.26.36,6.11,1.74,7.6,3.23,2.43,29.42,22.14,29.76,25.48.48.57-6.34,4.15-7.72,4.61-.92.93-5.29,2.2-7.15,2.2-.93,0-4.28-2.54-5.2-2.54-9.34-5.87-17.19-12.34-27.11-16.83-2.88-1.03-10.39-5.06-11.88-.8-1.62,6.1,3.57,10.49,7.72,13.95,4.26,3.46,10.72,7.37,15.45,10.37.46.46,5.64,3,4.15,4.38-.46.46-17.75,7.62-20.17,9-2.88.92-9.69,5.42-12.11,5.88-1.03,0-1.97,0-2.88-1.03-9.34-6-21.12-13.37-24.11-24.45-2.98-11.08,1.97-17.54,7.85-25.02,7.39-9.82,15.8-20.53,23.65-29.88,10.73-11.08,10.73-10.14,17.76-24.22,7.6-16.49,8.31-26.42,28.02-15.45,22.14,11.52,43.59,25.37,65.16,38.28,5.54,3,5.65,2.08,2.65,5.77ZM599.77,492c-3,6.57-6.46,11.77-9.46,18.34,0,0-7.62-3-8.08-2.54h0s-.11-.11-.11-.11c-2.88-1.03-6.11-2.54-9-3.57-10.26-4.05-21.57-11.88-31.37-17.42-8.41-4.95-16.83-12.8-19.37-23.29-.8-4.83,1.85-12.8,3.34-17.06,2.08-4.61,11.08-21.57,15.34-21.91.57-.46,28.14,14.99,31.48,16.49,12.23,6.92,23.99,10.6,36.68,16.14,4.74,2.06-6.46,29.29-9.46,34.94ZM614.85,447.25c-.46.46-.57,2.41-1.49,1.38-19.37-4.72-57.42-22.37-71.84-35.63-17.75-15.68-34.37-32.28-44.28-54.42,7.74-3.57,15.34-7.15,23.53-9.34,2.88-.93,2.88,0,4.26,1.49,12.8,17.42,23.06,28.14,40.25,42.44,7.96,5.42,14.99,9.93,23.88,14.42l-.02-.02h.11c2.31,1.51,27.68,14.54,27.68,14.54.34,4.26-1.51,19.94-2.08,25.14Z"/>
</svg>