<?xml version="1.0" encoding="UTF-8"?>
<svg id="Layer_1" data-name="Layer 1" xmlns="http://www.w3.org/2000/svg" viewBox="0 0 357.11 586.7">
  <defs>
    <style>
      .cls-1 {
        fill-rule: evenodd;
      }
    </style>
  </defs>
  <path class="cls-1" d="M327.26,393.47c.42-.4,6.95,2.24,6.95,2.24,2.62-5.71,5.63-10.17,8.25-15.87,2.6-4.88,12.3-28.55,8.22-30.31-11.01-4.83-21.24-7.98-31.81-14.03-2.85-1.31-26.84-14.73-27.26-14.33-3.72.32-11.53,14.96-13.29,19.04-1.33,3.68-3.58,10.63-2.86,14.77,2.24,9.13,9.48,15.92,16.79,20.24,8.54,4.76,18.26,11.61,27.24,15.15,2.45.89,5.3,2.2,7.76,3.09h0ZM273.85,369.39c-2.77-4.61-3.93-7.53-5.02-12.92-.74-3.32,2.9-16.42,1.26-16.47-3.3-.09-11.82,10.42-26.6,7.55-1.23-.44-9.43-2.31-9.85-1.91s3.59,4.63,4.39,5.48c3.97,5.88,2.64,9.56,4.62,12.5.78,1.67,7.46-1.45,11.14-.12,5.33,1.38,15.85,9.08,20.42,7.96.83.02-.36-2.07-.36-2.07h0ZM70.27,519.99c5.1-5.64,11.04-12.09,17.74-16.04,4.21-3.19,15.99-11.96,20.55-13.08,6.64-1.48,6.87,5.54,6.76,9.66-.22,8.25-1.79,37.08-4.35,40.31-2.58,4.06-16.81,11.94-21.8,13.45-4.59,1.94-11.65,3.82-15.66-.41-3.21-3.38-10.44-11-10.71-16.37.13-4.95,4.09-14.33,7.47-17.54h0v.02ZM158.47,538.38c.87-1.63,10.26-13.76,10.28-14.58-.4-.42-10.46-10.17-12.06-11.86-6.82-7.19-15.99-19.39-27.71-13.1-2.94,1.98-3.4,4.04-4.32,7.31-1.29,2.03-3.09,7.76-1.48,9.45,2.37,4.19,17.86,11.19,22.72,14.62,3.25,1.73,8.92,6.01,10.9,8.95.4.42,1.25-.38,1.67-.78h0ZM153.33,545.67c.44-1.23.02-.83-.78-1.67-7.25-6.79-15.72-14.02-25.97-16.35-6.15-1.4-5.84,2.32-7.61,7.23-.91,3.28-3.98,10.21-2.82,13.13,1.56,3.34,7.58,9.69,9.57,12.62.8.85,5.18,7.15,6,7.17,1.25-.38,11.42-10.84,13.11-12.44,3.38-3.21,5.94-6.44,8.5-9.68h0ZM86.82,565.38c-5.43,2.75-5.16,8.11-5.31,13.89.4.42.25,6.19,1.05,7.04,1.2,1.27,12.81-.9,14.48-1.68,7.46-1.45,17.46-5.32,23.77-9.69,1.39-.79,1.7-1.88.91-3.28-1.16-2.92-7.5-12.98-9.53-14.27-3.23-2.56-7.84.21-10.76,1.37-4.99,1.52-10.42,4.26-14.61,6.63h0ZM33.34,559.86c8.79,10.95,22.55,21.21,36.07,24.46,2.05.47,1.25-.38,1.69-1.61.95-4.93,2.82-13.13.03-16.91-1.98-2.94-14.41-16.88-18.55-16.16-2.07.36-20.38,6.48-21.23,7.28.38,1.25,1.18,2.09,1.98,2.94h.01ZM28.01,495.79c-4.25,4.84-7.51,19.19-8.09,25.36-.17,6.59.44,14.86,3.16,21.12,1.16,2.92,23.82,3.92,26.38.69s7.58-21.66,8.53-26.59c1.8-5.73-8.79-10.95-12.44-13.11-4.48-2.18-8.96-4.36-13.02-6.94-1.63-.87-2.85-1.31-4.52-.53h0ZM73.62,502.34c3.79-2.79,7.59-6.4,11.36-8.36,3.76-1.96,17.15-9.04,17.66-12.74.49-2.87-2.72-6.26-4.73-8.37-6.85-6.37-19-14.93-27.56-18.87-2.45-.89-2.05-.47-4.14.72-11.76,7.94-23.6,19.18-31.72,30.11-.87,1.63.78,1.67,2.81,2.96,8.11,5.16,28.76,20.14,36.33,14.56h-.01ZM184.54,504.01c5.1-5.64,9.73-9.23,21.08-17.6,1.27-1.2.04-1.65-1.58-2.52-11.73-8.97-14.47-14.4-21.99-26.56-3.57-5.46-5.98-7.99-12.98-8.59-11.12-.7-16.91-.03-28.35-4.45-8.98-3.53-19.93-10.83-28.04-16-1.63-.87-5.84,2.32-7.1,3.53-8.39,5.55-17.17,9.86-25.97,15-2.52,1.58-1.27,1.2,1.98,2.94,13.02,6.94,19.84,14.13,30.75,23.08,8.47,7.23,11.79,6.5,22.02,9.65,6.95,2.24,17.52,8.29,21.89,14.6,1.61,1.69,15.97,20.22,15.97,20.22,1.23.44,10.62-11.68,12.31-13.29h.01ZM321.39,412.71c2.56-3.23,2.54-2.41-2.34-5.01-18.68-11.21-37.34-23.25-56.47-33.24-17.08-9.52-17.71-.87-24.28,13.39-6.09,12.21-6.07,11.39-15.4,21.05-6.81,8.07-14.07,17.37-20.48,25.86-5.12,6.47-9.39,12.13-6.75,21.69s12.78,16.01,20.9,21.17c.8.85,1.63.87,2.45.89,2.07-.36,7.95-4.33,10.45-5.09,2.09-1.18,17.11-7.39,17.53-7.79,1.27-1.2-3.21-3.38-3.61-3.81-4.06-2.58-9.74-6.03-13.38-9.01-3.63-2.98-8.07-6.81-6.7-12.14,1.33-3.68,7.84-.21,10.29.68,8.56,3.94,15.43,9.48,23.54,14.64.83.02,3.66,2.16,4.48,2.18,1.65.04,5.39-1.1,6.24-1.9,1.25-.38,7.1-3.53,6.7-3.95-.34-2.9-22.99-19.99-25.82-22.12-1.2-1.27-4.39-5.48-1.48-6.64,5.43-2.75,14.82,1.21,19.7,3.82,6.51,3.47,12.62,6.52,19.13,9.99.8.85,4.88,2.6,5.71,2.62,2.47.06,8.82-5.96,10.51-7.56-6.78-8.84-16.95-14.47-26.27-20.9-2.03-1.29-8.49-6.41-5.11-9.62,2.96-2.81,26.88,13.08,31.34,16.08,1.61,1.69,6.87,5.54,8.52,5.58,1.65.04,8.06-8.45,10.6-10.86h0ZM224.05,381.29c7.64-8.05,15.78-19.8,7.39-30.33-3.17-5.03-4.82-5.08-10.12-7.28-3.68-1.33-38.8-14.63-40.05-14.25-1.65-.04-8.17,12.57-9.46,14.6-.02.83-4.34,8.14-3.94,8.56-.02.83,2.45.89,2.85,1.31,7.78,2.27,14.73,4.51,22.53,5.95,4.1.93,5.3,2.2,6.42,6.77,1.01,8.69-5.16,8.11-11.31,6.72-3.7-.51-10.21-3.98-13.89-5.31-.83-.02-11.84-4.85-12.66-4.87-.85.8-3.45,5.68-3.89,6.91-2.6,4.88-6.03,9.74-8.21,14.22-.85.8-1.29,2.03-.06,2.47,0,0,11.81,5.67,13.44,6.54,2.85,1.31,8.58,3.11,9.74,6.03,1.58,2.52,1.1,5.39-2.62,5.71-9.07-.24-24.9-10.14-26.97-9.78-1.23-.44-2.52,1.58-3.36,2.39-4.29,6.49-8.55,11.33-14.07,17.37-2.14,2.83-.89,2.45,1.54,4.17,9.72,6.85,17.43,11.59,28.89,15.19,28.28,6.93,41.27-16.66,54.18-36.95,4.32-7.31,7.7-10.52,13.62-16.14h0ZM268.73,297.07l-11.24-11.84c-4.82-5.08-8.81-10.13-12.78-16.01-.4-.42-4.19,2.37-5.03,3.17-17.61,11.09-35.34,26.3-48.96,42.44-3.4,4.04-2.18,4.48,2.28,7.48,7.29,5.14,27.64,15.57,36.27,17.04,9.43,2.31,17.23,3.75,26.78,1.11,6.24-1.9,11.36-8.36,14.8-14.05,4.32-7.31,7.49-18.37,1.49-25.54l-3.61-3.81h0ZM333.24,306.59c-7.74-3.91-13.82-7.79-20.71-12.5-14.94-12.35-23.77-21.66-34.93-36.8-1.2-1.27-1.18-2.09-3.68-1.33-7.06,1.88-13.74,5-20.42,8.13,8.57,19.2,23.05,33.6,38.36,47.2,12.49,11.46,45.5,26.77,62.3,30.92.8.85.85-.8,1.27-1.2.53-4.52,2.12-18.09,1.81-21.82,0,0-21.98-11.3-24.01-12.59h.01ZM311.57,283.75c8.85,8.48,15.32,13.6,26.31,19.25,1.63.87,18.75,8.74,19.17,8.34.85-.8-1.71-13.66-2.49-15.33-7.85-31.14-32.97-48.3-64.85-43.77-5.79.67,19.45,28.97,21.86,31.51h0Z"/>
  <path class="cls-1" d="M106.71,57.69c1.64,2.03,3.8,4.3,5.44,6.33,6.26,7.35,15.89,14.32,23.16,20.86,6.45,5.52,15.23,10.17,24.59,9.32,4.15-.67,10-5.04,13.05-7.5,3.29-2.99,14.61-15.12,13.7-18.74.24-.53-20.23-18.87-22.39-21.14-9.15-8.03-15.45-16.69-23.59-25.54-2.99-3.29-22.23,13.56-26.01,17.6-4.55,4.33-7.79,8.62-12.34,12.95,0,0,4.62,5.32,4.38,5.85h0ZM146.8,100.4s-2.36-.44-2.08.33c.42,4.68,11.12,12.14,14.15,16.73,2.45,3.05,1.66,10.38,3.5,10.58,3.43.92,6.47-1.53,13.32.32,1.06.49,6.36,2.91,6.61,2.38s-4.18-7.68-5-8.7c-7.5-13.05-.33-24.52-1.48-27.61-.58-1.55-11.79,6.15-15.17,6.53-5.45.71-8.59.56-13.85-.56h0ZM70.36,341.82c-1.94,4.24-9.53,11.03-14.17,12.76-5.17,1.48-14.71-2.88-18.95-4.82-5.3-2.43-5.82-9.72-5.47-14.69-.18-5.21,2.66-21.23,5.66-24.99,2.23-3.47,28.99-14.31,36.72-17.19,3.86-1.44,10.58-3.5,11.33,3.26.42,4.68-4.05,18.67-5.7,23.68-1.56,7.62-5.73,15.33-9.41,21.99h-.01ZM24.36,264.35c-.24.53-.73,1.59-.2,1.83,3.42.93,9.3,4.9,12,7.41,4.82,3.49,16.47,15.87,21.2,16.75,2.12.97,6.96-2.59,8.46-4.47,2.8-1.92,4.59-3.03,5.52-6.45,2.16-13.12-12.36-17.84-21.38-21.96-2.12-.97-14.6-7.32-15.14-7.57-.77.29-9.2,13.11-10.46,14.45h0ZM19.13,271.57c-2.23,3.47-4.46,6.94-6.4,11.18-.97,2.12-7.57,15.14-7.52,16.44.29.77,7.67,2.87,8.73,3.35,3.42.92,11.38,4.56,15.05,4.96,3.14.15,8.7-5,11.5-6.92,4.06-3.27,7.68-4.18,4.37-9.55-5.53-8.94-15.12-14.61-23.89-19.26-1.06-.49-.82-1.01-1.83-.2h-.01ZM22.06,340.88c.88-4.73,1.72-10.76,1.53-15.97.15-3.14,1.27-8.39-2.19-10.62-1.88-1.5-13.45-4.23-16.59-4.38-1.57-.29-2.51.35-2.8,1.92-2.09,7.38-2.5,18.09-1.46,25.62-.2,1.83,1.51,13.52,3.1,14.24,1.06.49,6.47-1.53,7-1.29,5.41-2.01,10.58-3.5,11.41-9.53h0ZM44.62,389.68c1.06.49,2.12.97,3.42.92.49-1.06.34-20.37,0-22.44-.67-4.15-17.88-11.38-21.3-12.31-4.49-1.41-11.64,3.01-15.99,5.51-1.02.82-2.08.33-.97,2.12,7.45,11.75,21.62,21.43,34.83,26.19h.01ZM106.96,373.95c.2-1.83-.62-2.85-1.97-4.11-3.76-3-7.27-6.53-10.79-10.06-3.23-2.76-11.6-11.08-16.44-7.52-4.35,2.5-20.16,13.22-22.38,16.69-2.23,3.47,6.07,24.58,9.21,24.73,6.8.55,14.82-1.56,21-3.86,5.65-2.54,18.17-10.29,21.37-15.88h0ZM85.97,332.93c-2.82,8.97,18.04,23.64,25.56,29.65,1.88,1.5,2.45,3.05,3.71,1.7,7.7-11.23,14.49-26.08,18.19-39.77.44-2.36.97-2.12-.67-4.15-6.5-6.82-18.54-15.54-26.79-19.95-2.65-1.21-6.89-3.15-9.46-1.76-3.33,1.68-5.69,16.64-6.32,20.83-.64,4.2-2.82,8.97-4.23,13.45h0ZM48.43,228.55c-.97,2.12-9.4,14.94-8.58,15.95,0,0,22.18,7.58,24.3,8.55,7.38,2.09,16.53,10.13,20.91,15.98,6.3,8.65,6.68,12.03,16.27,17.7,12,7.41,21.02,11.54,31.8,21.6,2.7,2.52,2.74,3.82,3.42.92,2-9.99,3.23-19.68,5.76-29.43.73-1.59,2.38-6.61,1.03-7.86-7.51-6-17.97-13.99-24.23-21.34-7.89-9.38-9.13-15.08-13.41-25.37-2.83-6.43-6.02-7.88-12.33-9.49-13.94-3.17-19.97-4.01-32.26-12.19-1.35-1.26-2.17-2.27-2.89-.68-4.23,13.45-6.13,19-9.81,25.65h.02ZM90.41,69.47c-1.46,3.18-7.41,12-6.84,13.55.58,1.55,5.92,5.27,8.04,6.24,4.29,3.24,27.07,20.72,25.38,24.43-1.94,4.24-8.88-.21-10.76-1.71-9.11-6.73-17.73-14.52-28.29-18.07-.97,2.12-4.61,10.07-3.74,12.39.29.77,3.27,4.06,4.33,4.55,5.39,5.03,10.26,9.82,15.65,14.85,4.05,3.77,10.83,11.37,10,17.4-.15,3.14-5.17,1.48-6.76.76-2.94-1.98-26.45-17.87-29.3-17.25-.53-.24-1.61,6.32-1.56,7.62-.49,1.06-.35,4.97.23,6.52.29.77,3.23,2.76,3.51,3.53,7.51,6,14.98,10.7,21.48,17.52,1.64,2.03,7.03,7.06,3.98,9.52-4.59,3.03-9.65.07-13.65-2.4s-9.11-6.73-12.86-9.73c-.53-.24-4.04-3.77-4.77-2.18-.24.53-1.25,16.74-1.69,19.11.09,2.61-1.76,9.45-1.43,11.53.29.77.58,1.55,1.64,2.03,7.51,6,16.91,13.5,26.8,12.9,9.9-.6,13.87-6.48,18.32-13.42,5.96-8.82,12.4-18.7,17.83-27.76,6.11-11.96,5.34-11.67,14.91-21.39,11.37-10.83,19.34-14.24,4.79-27.31-15.65-14.85-33.09-28.6-49.75-42.64-4.05-3.77-3.27-4.06-5.5-.59h0ZM151.7,151.37c-3.4,7.42-5.34,11.67-10.85,18.12-15.01,18.78-33.1,38.72-17.38,63.23,7.12,9.67,14.1,15.43,23.74,22.4,2.41,1.74,2.45,3.05,4.44.11,3.93-7.18,7.12-12.77,11.87-18.94.49-1.06,1.98-2.94,1.17-3.96-.33-2.08-14.83-13.84-18-22.34-.91-3.62,1.65-5.02,4.55-4.33,3.14.15,6.7,4.99,8.86,7.26,1.35,1.26,10.54,10.59,10.54,10.59.82,1.01,1.83.2,2.32-.86,3.53-3.51,7.02-8.33,10.79-12.38,1.01-.82,4.79-4.86,5.27-5.92-.29-.77-8.42-9.62-8.71-10.4-2.45-3.05-7.85-8.08-9.53-11.41-3.32-5.36-5.86-11.02,2.68-12.88,4.68-.42,6.27.3,8.48,3.88,3.89,6.91,8.27,12.76,12.94,19.38.53.24,1.39,2.56,2.17,2.27.53.24,6.05-6.21,6.82-6.5,1.5-1.88,11.32-12.13,10.75-13.68-.05-1.3-24.01-30.22-26.47-33.27-3.8-4.3-4.38-5.85-10.17-7.21-12.68-4.52-21.15,7-26.29,16.83h.01ZM216.88,81.79l-4.77-2.18c-8.73-3.35-18.15,3.24-23.67,9.69-4.26,5.11-8.72,12.04-8.49,18.56.6,9.9,4.5,16.81,9.74,24.97,4.18,7.68,20.65,23.55,27.88,28.78,4.29,3.24,5.11,4.26,7.82-.27,10.85-18.12,19.5-39.82,24.27-60.08.49-1.06,1.9-5.55,1.37-5.79-6.85-1.85-12.92-3.99-19.29-6.9l-14.85-6.79h0ZM186.95,23.85c-1.88-1.5-19.7-18.63-19.7-18.63-3.62.91-15.94,6.82-20.05,8.78-.24.53-1.79,1.11-.73,1.59,9.37,14.55,34.56,40.82,49.45,48.91,17.83,10.08,36.15,19.1,57.09,20.98.79-7.33,1.58-14.67,1.07-21.96-.09-2.61-.86-2.32-2.45-3.05-17.94-5.64-29.61-10.98-46.14-21.1-6.7-4.99-12.33-9.49-18.54-15.54h0v.02ZM215.58,36.95c3.18,1.46,38.14,16.16,36.9,10.46C246.43,15.78,222.05-2.42,190.04.26c-1.83-.2-14.82,1.56-15.3,2.62-.24.53,12.76,14.17,14.1,15.43,8.91,8.56,15.85,13.02,26.74,18.64h0Z"/>
</svg>