<?xml version="1.0" encoding="UTF-8"?>
<svg id="Layer_1" data-name="Layer 1" xmlns="http://www.w3.org/2000/svg" viewBox="0 0 713.5 713.5">
  <defs>
    <style>
      .cls-1 {
        fill: #34e0a1;
      }
    </style>
  </defs>
  <circle class="cls-1" cx="356.75" cy="356.75" r="356.75"/>
  <path d="M577.09,287.15l43.05-46.84h-95.47c-47.79-32.65-105.51-51.66-167.93-51.66s-119.9,19.05-167.61,51.66h-95.7l43.05,46.84c-26.39,24.08-42.93,58.75-42.93,97.26,0,72.67,58.91,131.58,131.58,131.58,34.52,0,65.97-13.31,89.45-35.08l42.17,45.92,42.17-45.88c23.48,21.76,54.89,35.04,89.41,35.04,72.67,0,131.66-58.91,131.66-131.58.04-38.55-16.5-73.22-42.89-97.26ZM225.17,473.46c-49.19,0-89.05-39.86-89.05-89.05s39.86-89.05,89.05-89.05,89.05,39.86,89.05,89.05-39.86,89.05-89.05,89.05ZM356.79,381.82c0-58.6-42.61-108.9-98.85-130.38,30.41-12.72,63.78-19.77,98.81-19.77s68.44,7.05,98.85,19.77c-56.2,21.52-98.81,71.79-98.81,130.38ZM488.37,473.46c-49.19,0-89.05-39.86-89.05-89.05s39.86-89.05,89.05-89.05,89.05,39.86,89.05,89.05-39.86,89.05-89.05,89.05ZM488.37,337.69c-25.79,0-46.68,20.89-46.68,46.68s20.89,46.68,46.68,46.68,46.68-20.89,46.68-46.68c0-25.75-20.89-46.68-46.68-46.68ZM271.85,384.41c0,25.79-20.89,46.68-46.68,46.68s-46.68-20.89-46.68-46.68,20.89-46.68,46.68-46.68c25.79-.04,46.68,20.89,46.68,46.68Z"/>
</svg>