<?xml version="1.0" encoding="UTF-8"?>
<svg id="Layer_1" data-name="Layer 1" xmlns="http://www.w3.org/2000/svg" viewBox="0 0 500 500">
  <defs>
    <style>
      .cls-1 {
        fill: #a14b04;
      }

      .cls-2 {
        fill: #fff;
        fill-rule: evenodd;
      }

      .cls-3 {
        fill: #ec6e06;
      }

      .cls-4 {
        fill: #ff9332;
      }

      .cls-5 {
        fill: #ba5604;
      }

      .cls-6 {
        fill: #fa882b;
      }

      .cls-7 {
        fill: #fb9644;
      }

      .cls-8 {
        fill: #d35500;
      }

      .cls-9 {
        fill: #8b1300;
      }

      .cls-10 {
        fill: #d36205;
      }

      .cls-11 {
        fill: #ffb452;
      }

      .cls-12 {
        fill: #ae3600;
      }

      .cls-13 {
        fill: #ffd572;
      }

      .cls-14 {
        fill: #f97408;
      }

      .cls-15 {
        fill: #f97a12;
      }
    </style>
  </defs>
  <g>
    <path class="cls-14" d="M55.26,220.2c-.31,1.35-.87,2.35-1.69,3.03-.82.67-1.95,1.09-3.41,1.24l-38.75,4.48c-1.73.22-3.07-.19-4-1.22-.93-1.03-1.18-2.5-.75-4.39.32-1.39.88-2.39,1.69-3,.81-.61,1.93-.97,3.37-1.08l33.34-3.21-.62,2.71-28.41-18.17c-1.24-.77-2.09-1.61-2.54-2.51-.46-.9-.54-1.96-.26-3.18.27-1.18.8-2.05,1.6-2.62.79-.57,1.94-.92,3.43-1.07l33.32-3.41-.54,2.33-28.53-17.66c-1.24-.77-2.09-1.61-2.54-2.51-.46-.9-.53-2-.23-3.31.38-1.64,1.21-2.71,2.5-3.21,1.29-.5,2.66-.27,4.12.68l32.86,21.05c1.22.86,2.05,1.75,2.51,2.67.45.92.52,2.06.21,3.4-.31,1.35-.87,2.35-1.69,3.03-.82.67-1.95,1.09-3.41,1.24l-30.48,3.47.35-1.51,25.84,16.64c1.23.81,2.07,1.68,2.52,2.61.45.92.52,2.08.2,3.46Z"/>
    <path class="cls-14" d="M67.81,174.19c-.57,1.07-1.27,1.81-2.1,2.22-.83.41-1.71.47-2.62.18-.92-.29-1.77-.94-2.55-1.95l-24.26-31.79c-.93-1.28-1.45-2.5-1.57-3.66-.11-1.16.11-2.27.68-3.34.59-1.1,1.39-1.92,2.41-2.45,1.02-.53,2.32-.77,3.9-.71l39.91,2.44c1.33.08,2.37.4,3.12.97.75.57,1.18,1.31,1.3,2.23.12.92-.08,1.88-.61,2.86-.69,1.29-1.52,2.14-2.48,2.53s-2.24.51-3.82.35l-9.76-.81,4.34-2.23-12.7,23.8-.57-4.85,6.14,7.6c.97,1.3,1.59,2.41,1.85,3.33.26.92.06,2.01-.61,3.27ZM45.24,141.18l13.54,16.68-3.11.32,9.53-17.87,1.49,2.7-21.4-1.95-.06.11Z"/>
    <path class="cls-14" d="M92.28,131.81c-1.02,1.23-2.15,1.9-3.42,2-1.26.11-2.51-.35-3.74-1.37l-27.4-22.61c-1.3-1.07-2-2.21-2.12-3.43-.12-1.21.33-2.44,1.35-3.67,1.04-1.26,2.17-1.95,3.39-2.07,1.21-.12,2.47.36,3.77,1.43l24.8,20.46,11.04-13.38c.88-1.06,1.83-1.65,2.87-1.75,1.03-.1,2.06.28,3.1,1.13,1.06.88,1.65,1.83,1.75,2.87.1,1.03-.29,2.08-1.17,3.15l-14.21,17.22Z"/>
    <path class="cls-14" d="M115.1,106.81c-1.23,1.02-2.46,1.46-3.69,1.33-1.23-.13-2.36-.83-3.41-2.09l-23.24-28.13c-1.04-1.26-1.51-2.5-1.39-3.72.12-1.21.79-2.33,2.02-3.35,1.26-1.04,2.5-1.51,3.72-1.39,1.21.12,2.34.8,3.39,2.07l9.77,11.82.1-.08,1.81-24.83c.07-1.07.29-2.02.66-2.86.37-.84.94-1.57,1.7-2.21,1.16-.96,2.25-1.36,3.26-1.18,1.01.17,1.81.69,2.4,1.54.59.85.83,1.89.72,3.1l-2.07,24.62-2.63-3.28,26.2,3.37c1.46.14,2.56.64,3.3,1.51.75.87,1.06,1.82.95,2.87s-.74,2.04-1.87,2.97c-.97.8-1.9,1.23-2.79,1.3-.9.07-2.01.04-3.35-.09l-25.17-3.04-.1.08,10.34,12.52c1.04,1.26,1.52,2.5,1.44,3.72-.09,1.22-.78,2.36-2.07,3.43Z"/>
    <path class="cls-14" d="M174.51,68.94c-1.67.7-3.43,1.29-5.29,1.78-1.85.49-3.64.82-5.38.98-1.73.16-3.37.14-4.9-.06-1.12-.1-2.01-.46-2.7-1.08s-1.13-1.36-1.34-2.21c-.21-.85-.22-1.67-.02-2.48.2-.81.66-1.47,1.38-1.98.72-.51,1.64-.72,2.75-.62,2.04.18,4.11.08,6.23-.28,2.11-.37,4.13-.95,6.04-1.75,2.87-1.19,4.75-2.5,5.66-3.9.91-1.41,1.08-2.79.52-4.14-.5-1.19-1.33-1.93-2.5-2.22-1.17-.28-2.94-.19-5.31.29l-7.35,1.38c-4.17.76-7.57.55-10.21-.62-2.64-1.17-4.61-3.32-5.92-6.47-.83-1.99-1.18-3.98-1.05-5.97.13-1.99.69-3.89,1.7-5.68,1-1.8,2.43-3.44,4.29-4.94,1.85-1.5,4.05-2.78,6.6-3.84,2.19-.91,4.47-1.56,6.83-1.94s4.6-.4,6.7-.06c.95.16,1.73.54,2.33,1.13.6.59,1.01,1.3,1.23,2.12.22.82.2,1.6-.07,2.34-.27.75-.76,1.36-1.45,1.83-.69.48-1.68.68-2.97.61-1.56-.15-3.14-.06-4.76.27-1.62.32-3.2.81-4.76,1.46-1.67.7-3,1.51-4,2.44-.99.93-1.62,1.9-1.9,2.93s-.19,2.08.26,3.15c.46,1.12,1.25,1.86,2.37,2.24,1.11.38,2.8.35,5.05-.07l7.29-1.35c4.29-.81,7.79-.69,10.49.36,2.7,1.05,4.69,3.08,5.95,6.11.83,1.99,1.16,3.97,1,5.93s-.76,3.82-1.78,5.58c-1.02,1.76-2.45,3.38-4.28,4.87-1.83,1.49-4.08,2.79-6.75,3.9Z"/>
    <path class="cls-14" d="M195.63,60.51c-1.19.22-2.2.13-3.04-.26s-1.43-1.04-1.77-1.94c-.34-.9-.36-1.97-.07-3.21l9.75-38.78c.42-1.52,1.05-2.69,1.89-3.51s1.85-1.33,3.04-1.55c1.23-.23,2.37-.11,3.42.36,1.05.46,2.04,1.33,2.98,2.61l22.95,32.74c.77,1.09,1.17,2.1,1.19,3.04.02.94-.29,1.74-.94,2.41-.65.67-1.52,1.1-2.62,1.31-1.44.27-2.62.14-3.52-.37-.91-.51-1.79-1.44-2.65-2.77l-5.45-8.14,4.45,2.01-26.53,4.9,3.44-3.46-2.12,9.54c-.41,1.57-.9,2.74-1.46,3.52-.56.78-1.54,1.3-2.94,1.56ZM207.4,22.28l-4.62,20.98-2.19-2.23,19.92-3.67-1.18,2.85-11.8-17.96-.13.02Z"/>
    <path class="cls-14" d="M243.07,53.42c-1.51-.06-2.64-.51-3.41-1.34-.76-.83-1.11-2.02-1.05-3.57l1.56-36.91c.07-1.64.52-2.86,1.35-3.67.83-.81,1.92-1.18,3.25-1.12,1.16.05,2.05.3,2.66.76.61.46,1.3,1.2,2.08,2.22l21.46,29.92-1.81-.08,1.15-27.08c.06-1.46.52-2.59,1.37-3.37.85-.78,2.06-1.14,3.61-1.08,1.46.06,2.58.52,3.34,1.37.76.85,1.11,2.01,1.05,3.48l-1.58,37.36c-.06,1.42-.47,2.53-1.24,3.32-.77.79-1.78,1.15-3.03,1.1-1.21-.05-2.16-.32-2.85-.8-.69-.48-1.45-1.24-2.27-2.26l-21.4-29.92,1.75.07-1.15,27.08c-.07,1.55-.51,2.71-1.34,3.47-.83.76-2,1.11-3.51,1.05Z"/>
    <path class="cls-14" d="M299.32,60.21c-1.54-.4-2.62-1.14-3.23-2.21-.61-1.07-.71-2.4-.3-3.99l8.26-31.68-11.02-2.87c-1.34-.35-2.27-.97-2.79-1.86-.53-.89-.62-1.99-.28-3.28.33-1.25.93-2.13,1.82-2.63s2-.58,3.34-.23l31.8,8.29c1.29.34,2.21.94,2.74,1.82.53.87.63,1.94.31,3.19-.34,1.29-.95,2.2-1.85,2.73-.9.53-1.99.62-3.28.28l-11.08-2.89-8.26,31.68c-.41,1.59-1.14,2.7-2.17,3.34-1.04.64-2.37.75-4,.33Z"/>
    <path class="cls-14" d="M315.98,64.42c-1.09-.51-1.87-1.17-2.32-1.98-.46-.81-.56-1.68-.31-2.61.25-.93.85-1.82,1.81-2.65l30.48-25.88c1.23-1,2.42-1.58,3.57-1.76,1.15-.17,2.28,0,3.37.51,1.13.53,1.99,1.29,2.58,2.28.58.99.89,2.27.91,3.86l-.36,39.98c0,1.33-.27,2.39-.8,3.16-.53.78-1.25,1.25-2.16,1.42s-1.88.01-2.89-.46c-1.33-.62-2.21-1.41-2.65-2.35-.44-.94-.62-2.21-.55-3.79l.3-9.79,2.45,4.22-24.43-11.44,4.81-.82-7.27,6.53c-1.25,1.04-2.33,1.71-3.23,2.02-.91.31-2.01.17-3.3-.44ZM347.77,40.16l-15.96,14.39-.48-3.08,18.34,8.59-2.62,1.63.84-21.47-.12-.05Z"/>
    <path class="cls-14" d="M386.41,109.5c-3.57-3.32-5.99-6.88-7.26-10.68-1.27-3.8-1.38-7.63-.33-11.48,1.05-3.85,3.19-7.52,6.42-10.99,2.41-2.59,4.98-4.58,7.72-5.98,2.74-1.4,5.56-2.16,8.45-2.3,2.89-.14,5.77.39,8.64,1.58,2.87,1.19,5.63,3.02,8.28,5.49,1.64,1.53,3.09,3.23,4.35,5.11,1.26,1.88,2.15,3.74,2.68,5.58.35,1.21.36,2.27.05,3.18-.32.91-.83,1.64-1.54,2.19-.71.54-1.51.86-2.39.96s-1.71-.08-2.47-.53c-.76-.45-1.34-1.26-1.71-2.43-.42-1.45-1.03-2.78-1.82-3.99-.79-1.21-1.74-2.32-2.85-3.35-2.12-1.97-4.28-3.2-6.5-3.7s-4.41-.3-6.57.61c-2.17.9-4.33,2.52-6.51,4.86-2.11,2.27-3.57,4.55-4.35,6.82-.79,2.27-.85,4.49-.19,6.67.66,2.17,2.05,4.24,4.16,6.21,1.01.94,2.16,1.78,3.46,2.51,1.29.73,2.68,1.28,4.16,1.66,1.2.35,2.07.88,2.6,1.58s.79,1.47.79,2.33c0,.86-.24,1.67-.71,2.43-.48.76-1.13,1.34-1.95,1.72-.83.38-1.79.47-2.9.27-1.93-.33-3.94-1.05-6.01-2.18-2.07-1.13-3.98-2.5-5.71-4.12Z"/>
    <path class="cls-14" d="M402.73,126.66c-.92-1.31-1.26-2.57-1.04-3.78.23-1.21,1.01-2.29,2.35-3.24l29.36-20.67c1.38-.97,2.67-1.34,3.88-1.11,1.21.23,2.28.99,3.2,2.3l9.09,12.91c2.91,4.13,4.15,8.03,3.75,11.72-.41,3.69-2.41,6.8-6.01,9.33-2.33,1.64-4.7,2.54-7.11,2.71-2.41.17-4.76-.39-7.04-1.69-2.28-1.29-4.39-3.32-6.33-6.07l1.18-.12,1.49,2.12c1.04,1.48,1.6,3.03,1.68,4.63.08,1.61-.35,3.32-1.29,5.14l-3.79,7.65c-.51,1.15-1.2,1.99-2.06,2.52-.87.53-1.77.68-2.7.44-.93-.24-1.81-.94-2.63-2.11-.82-1.16-1.25-2.28-1.28-3.33-.03-1.06.26-2.23.89-3.51l5.7-11.69c.67-1.21.91-2.32.71-3.31-.2-.99-.7-2.06-1.49-3.18l-2.79-3.97-10.63,7.49c-1.34.94-2.62,1.33-3.82,1.15-1.21-.18-2.29-.96-3.26-2.33ZM426.43,116.14l5.21,7.41c1.51,2.15,3.1,3.47,4.77,3.96,1.66.49,3.38.12,5.14-1.13,1.73-1.22,2.64-2.69,2.74-4.42.1-1.73-.61-3.67-2.12-5.83l-5.21-7.41-10.53,7.41Z"/>
    <path class="cls-14" d="M430.63,174.51c-1.25-2.98-1.97-5.78-2.17-8.38-.2-2.6.14-5,1.02-7.2.88-2.19,2.3-4.15,4.24-5.88,1.94-1.73,4.41-3.21,7.39-4.46l20.35-8.51c1.55-.65,2.88-.74,3.99-.27,1.11.47,1.97,1.44,2.59,2.92.63,1.51.73,2.83.28,3.95-.44,1.12-1.44,2-2.99,2.65l-20.35,8.51c-3.42,1.43-5.67,3.29-6.76,5.56-1.08,2.28-1.01,4.89.23,7.83,1.21,2.9,3.01,4.77,5.39,5.6,2.38.83,5.28.53,8.7-.91l20.35-8.51c1.55-.65,2.88-.74,3.99-.27,1.11.47,1.98,1.46,2.61,2.98.58,1.39.65,2.65.21,3.77-.44,1.12-1.44,2-2.99,2.65l-20.35,8.51c-3.98,1.67-7.61,2.38-10.89,2.14-3.28-.24-6.16-1.42-8.63-3.54-2.48-2.12-4.55-5.17-6.21-9.15Z"/>
    <path class="cls-14" d="M440.37,200.16c-.24-1.23-.17-2.31.2-3.23s.98-1.62,1.84-2.07c.86-.45,1.85-.64,2.99-.55,1.14.09,2.36.44,3.67,1.07l34.8,17.3-2.99.58-4.07-20.96c-.27-1.4-.12-2.54.46-3.42.58-.88,1.52-1.45,2.83-1.7,1.31-.25,2.39-.08,3.23.53.84.6,1.4,1.61,1.67,3l4.97,25.6c.24,1.23.17,2.29-.2,3.2-.37.91-.97,1.59-1.81,2.06-.83.47-1.83.66-2.99.58-1.16-.08-2.39-.44-3.7-1.06l-34.74-17.31,2.92-.57,4.26,21.91c.27,1.4.13,2.52-.43,3.38-.56.86-1.52,1.42-2.87,1.68-1.31.25-2.39.09-3.23-.49-.84-.58-1.39-1.58-1.66-2.97l-5.16-26.55Z"/>
  </g>
  <g>
    <path class="cls-1" d="M130.16,113.88c32.12-27.61,73.85-44.34,119.54-44.34s87.43,16.69,119.54,44.34"/>
    <path class="cls-9" d="M249.7,69.54c-45.69,0-87.43,16.69-119.54,44.34h239.09c-32.12-27.61-73.85-44.34-119.54-44.34h0Z"/>
    <path class="cls-5" d="M86.7,168.91c10.88-21.05,25.66-39.69,43.46-55.03"/>
    <path class="cls-5" d="M369.24,113.88c17.8,15.29,32.58,33.98,43.46,55.03"/>
    <path class="cls-12" d="M86.7,168.91h326c-10.88-21.05-25.66-39.69-43.46-55.03h-239.09c-17.8,15.29-32.58,33.98-43.46,55.03Z"/>
    <path class="cls-10" d="M68.67,223.9c3.11-19.52,9.3-38.07,18.03-55.03"/>
    <path class="cls-10" d="M412.7,168.91c8.74,16.96,14.92,35.46,18.03,55.03"/>
    <path class="cls-8" d="M68.67,223.9h362.07c-3.11-19.52-9.3-38.07-18.03-55.03H86.7c-8.74,16.96-14.92,35.46-18.03,55.03Z"/>
    <path class="cls-3" d="M430.74,223.9c1.49,9.44,2.28,19.1,2.28,28.96s-.65,17.57-1.86,26.07"/>
    <path class="cls-3" d="M68.25,278.93c-1.21-8.51-1.86-17.2-1.86-26.07s.79-19.52,2.28-28.96"/>
    <path class="cls-14" d="M66.39,252.85c0,8.83.65,17.57,1.86,26.07h362.91c1.21-8.51,1.86-17.2,1.86-26.07s-.79-19.52-2.28-28.96H68.67c-1.49,9.44-2.28,19.1-2.28,28.96h0Z"/>
    <path class="cls-15" d="M431.15,278.93c-2.79,19.52-8.6,38.02-17.01,55.03"/>
    <path class="cls-15" d="M85.26,333.96c-8.41-17.01-14.27-35.51-17.01-55.03"/>
    <path class="cls-4" d="M85.26,333.96h328.88c8.41-17.01,14.27-35.51,17.01-55.03H68.25c2.79,19.52,8.6,38.02,17.01,55.03h0Z"/>
    <path class="cls-6" d="M126.9,388.99c-17.15-15.48-31.33-34.12-41.64-55.03"/>
    <path class="cls-6" d="M414.14,333.96c-10.32,20.92-24.49,39.55-41.64,55.03"/>
    <path class="cls-11" d="M126.9,388.99h245.55c17.15-15.48,31.33-34.12,41.64-55.03H85.26c10.32,20.92,24.49,39.55,41.64,55.03Z"/>
    <path class="cls-7" d="M372.5,388.99c-32.49,29.33-75.57,47.22-122.8,47.22s-90.26-17.85-122.8-47.22"/>
    <path class="cls-13" d="M249.7,436.16c47.22,0,90.26-17.85,122.8-47.22H126.9c32.49,29.33,75.57,47.22,122.8,47.22Z"/>
  </g>
  <g>
    <path class="cls-2" d="M341.73,307.9c.23-.23,3.81,1.21,3.81,1.21,1.39-3.11,3.02-5.53,4.46-8.65,1.39-2.65,6.69-15.48,4.46-16.45-6-2.6-11.53-4.37-17.29-7.62-1.58-.7-14.55-7.99-14.83-7.76-2,.19-6.23,8.13-7.25,10.32-.7,2-1.95,5.76-1.58,8.04,1.21,4.93,5.16,8.65,9.11,10.97,4.6,2.6,9.95,6.32,14.78,8.23,1.35.51,2.88,1.21,4.23,1.67h.05v.05h.05ZM312.68,294.79c-1.53-2.51-2.14-4.09-2.7-7.02-.37-1.81,1.58-8.92.7-8.97-1.81,0-6.41,5.67-14.45,4.09-.65-.23-5.11-1.25-5.39-1.02s1.95,2.51,2.37,2.97c2.18,3.21,1.39,5.21,2.51,6.79.42.93,4.09-.84,6.04-.05,2.88.74,8.65,4.93,11.11,4.37.42,0-.23-1.16-.23-1.16h.05ZM202.01,376.64c2.79-3.02,6-6.6,9.62-8.69,2.28-1.72,8.69-6.51,11.2-7.11,3.58-.84,3.76,2.97,3.72,5.25-.09,4.51-.98,20.17-2.37,21.89-1.39,2.23-9.11,6.46-11.85,7.34-2.51,1.02-6.32,2.05-8.55-.23-1.72-1.86-5.67-6-5.81-8.92.05-2.7,2.23-7.76,4.09-9.53h0v-.05l-.05.05ZM249.93,386.68c.51-.88,5.62-7.48,5.62-7.95-.23-.23-5.72-5.53-6.6-6.46-3.72-3.9-8.69-10.55-15.06-7.11-1.58,1.07-1.86,2.18-2.32,3.95-.7,1.07-1.67,4.23-.84,5.16,1.3,2.28,9.71,6.09,12.36,7.95,1.72.93,4.83,3.25,5.9,4.88.23.23.65-.23.93-.42h0ZM247.19,390.63c.23-.65,0-.42-.42-.93-3.9-3.72-8.55-7.62-14.13-8.88-3.3-.74-3.16,1.25-4.14,3.9-.51,1.81-2.18,5.53-1.53,7.11.88,1.81,4.14,5.25,5.21,6.83.42.42,2.84,3.9,3.25,3.9.65-.23,6.18-5.86,7.11-6.74,1.86-1.72,3.21-3.49,4.6-5.25h0l.05.05ZM211.03,401.32c-2.93,1.53-2.84,4.42-2.88,7.58.23.23.09,3.39.6,3.81.65.7,6.97-.51,7.9-.93,4.09-.84,9.53-2.88,12.92-5.25.74-.42.93-1.02.51-1.81-.65-1.58-4.09-7.06-5.16-7.76-1.72-1.39-4.23.09-5.86.74-2.7.84-5.67,2.32-7.95,3.58h-.05v.05h-.05ZM181.93,398.35c4.79,6,12.27,11.53,19.61,13.34,1.16.28.65-.23.93-.88.51-2.65,1.53-7.11,0-9.2-1.07-1.58-7.81-9.2-10.13-8.83-1.16.23-11.11,3.53-11.53,3.95.23.65.65,1.16,1.07,1.58h0l.05.05ZM179.05,363.49c-2.28,2.6-4.09,10.46-4.42,13.8-.09,3.58.23,8.09,1.72,11.48.65,1.58,12.92,2.14,14.36.37,1.44-1.77,4.14-11.81,4.6-14.45.98-3.11-4.79-6-6.74-7.11-2.46-1.21-4.88-2.37-7.06-3.76-.88-.51-1.58-.7-2.46-.28h-.05v-.05h.05ZM203.87,367.12c2.05-1.53,4.14-3.49,6.18-4.55,2.05-1.07,9.3-4.88,9.62-6.93.28-1.58-1.49-3.44-2.56-4.55-3.76-3.49-10.32-8.09-15.01-10.27-1.3-.51-1.16-.28-2.23.37-6.41,4.28-12.83,10.46-17.24,16.36-.51.88.42.93,1.53,1.63,4.42,2.84,15.66,10.92,19.75,7.95h-.05ZM264.16,368c2.79-3.02,5.25-5.02,11.48-9.57.7-.65,0-.88-.88-1.35-6.37-4.88-7.9-7.81-11.95-14.45-1.95-2.97-3.25-4.37-7.06-4.69-6.04-.37-9.2,0-15.43-2.46-4.88-1.91-10.83-5.86-15.25-8.69-.88-.51-3.16,1.25-3.86,1.91-4.55,2.97-9.34,5.39-14.13,8.13-1.35.88-.7.65,1.07,1.58,7.06,3.76,10.78,7.67,16.73,12.55,4.6,3.9,6.41,3.53,11.95,5.21,3.81,1.21,9.53,4.51,11.9,7.95.88.93,8.69,10.97,8.69,10.97.65.23,5.76-6.37,6.69-7.25h0v.09h0l.05.09ZM338.57,318.41c1.39-1.72,1.35-1.3-1.25-2.7-10.18-6.09-20.26-12.6-30.72-18.03-9.3-5.16-9.62-.51-13.2,7.3-3.3,6.65-3.3,6.18-8.37,11.43-3.72,4.42-7.67,9.44-11.15,14.08-2.79,3.53-5.11,6.6-3.72,11.81,1.39,5.21,6.97,8.69,11.34,11.53.42.51.88.51,1.35.51,1.16-.23,4.37-2.32,5.72-2.79,1.16-.65,9.3-4.04,9.53-4.23.7-.65-1.72-1.86-1.95-2.05-2.23-1.39-5.25-3.25-7.3-4.88-1.95-1.63-4.42-3.72-3.63-6.6.7-2,4.23-.09,5.62.37,4.69,2.14,8.37,5.16,12.78,7.95.42,0,2,1.21,2.46,1.21.88,0,2.93-.6,3.39-1.02.65-.23,3.86-1.91,3.63-2.18-.19-1.58-12.5-10.88-14.04-12.04-.65-.7-2.37-2.97-.84-3.58,2.93-1.53,8.04.65,10.69,2.05,3.53,1.91,6.83,3.53,10.36,5.44.42.51,2.65,1.39,3.11,1.39,1.35,0,4.79-3.25,5.72-4.14-3.72-4.79-9.25-7.9-14.32-11.34-1.07-.7-4.6-3.49-2.79-5.21,1.63-1.53,14.64,7.11,17.01,8.74.88.93,3.76,2.97,4.6,3.02.88,0,4.42-4.6,5.76-5.9h.09s0,0,0,0l.09-.14ZM285.63,301.26c4.14-4.37,8.6-10.78,4.04-16.45-1.72-2.7-2.6-2.79-5.48-3.95-2-.7-21.1-7.95-21.75-7.72-.88,0-4.46,6.83-5.16,7.95,0,.42-2.32,4.42-2.14,4.69,0,.42,1.35.51,1.58.7,4.23,1.25,7.99,2.46,12.22,3.25,2.23.51,2.88,1.21,3.49,3.72.56,4.74-2.84,4.42-6.14,3.63-2-.28-5.53-2.18-7.58-2.88-.42,0-6.41-2.65-6.93-2.65-.51.42-1.91,3.11-2.14,3.76-1.39,2.65-3.25,5.25-4.46,7.72-.51.42-.7,1.07,0,1.35,0,0,6.41,3.11,7.3,3.53,1.58.7,4.69,1.67,5.25,3.25.88,1.35.6,2.93-1.39,3.11-4.93-.09-13.53-5.48-14.69-5.35-.65-.23-1.35.88-1.86,1.3-2.32,3.53-4.69,6.14-7.67,9.44-1.16,1.53-.51,1.35.84,2.28,5.25,3.76,9.44,6.32,15.71,8.27,15.38,3.76,22.45-9.06,29.47-20.13,2.32-3.95,4.18-5.72,7.39-8.74h.05v-.05l.05-.05ZM309.89,255.47l-6.09-6.41c-2.6-2.79-4.79-5.48-6.97-8.69-.23-.23-2.28,1.3-2.7,1.72-9.57,6.04-19.2,14.32-26.63,23.05-1.86,2.18-1.21,2.46,1.25,4.09,3.95,2.79,15.01,8.46,19.75,9.25,5.11,1.25,9.34,2.05,14.55.6,3.39-1.02,6.18-4.55,8.04-7.62,2.32-3.95,4.09-9.99.84-13.85l-1.95-2.05h-.05v-.05l-.05-.05ZM344.98,260.63c-4.18-2.14-7.48-4.23-11.25-6.79-8.09-6.74-12.92-11.81-18.96-19.99-.65-.7-.65-1.16-2-.7-3.86,1.02-7.44,2.7-11.11,4.42,4.69,10.46,12.5,18.27,20.87,25.66,6.79,6.23,24.73,14.55,33.88,16.78.42.51.51-.42.7-.65.28-2.46,1.16-9.85.98-11.85,0,0-11.95-6.14-13.06-6.83h-.05v-.05ZM333.18,248.27c4.83,4.6,8.32,7.39,14.32,10.46.88.51,10.23,4.74,10.46,4.51.51-.42-.93-7.44-1.35-8.32-4.28-16.92-17.94-26.26-35.28-23.8-3.16.37,10.6,15.76,11.9,17.1h0s0,.05,0,.05h-.05Z"/>
    <path class="cls-2" d="M221.86,125.33c.88,1.07,2.05,2.32,2.93,3.44,3.44,3.95,8.65,7.76,12.6,11.34,3.53,2.97,8.27,5.53,13.39,5.07,2.23-.37,5.44-2.7,7.06-4.09,1.81-1.63,7.95-8.23,7.44-10.18.09-.28-10.97-10.27-12.18-11.48-4.93-4.37-8.41-9.06-12.83-13.85-1.63-1.81-12.08,7.39-14.13,9.57-2.51,2.32-4.23,4.69-6.69,7.06,0,0,2.51,2.88,2.37,3.21h0v-.09h.05ZM243.66,148.62s-1.3-.23-1.16.19c.23,2.56,6.04,6.6,7.67,9.06,1.35,1.67.93,5.67,1.91,5.76,1.86.51,3.53-.84,7.25.19.6.28,3.49,1.58,3.58,1.3s-2.28-4.18-2.7-4.74c-4.09-7.11-.19-13.34-.84-15.01-.33-.88-6.41,3.39-8.27,3.53-2.97.37-4.69.33-7.58-.33h.09l.05.05ZM202.06,279.83c-1.02,2.28-5.16,6-7.72,6.97-2.84.84-7.99-1.58-10.27-2.6-2.88-1.3-3.16-5.25-2.97-7.99-.09-2.84,1.49-11.53,3.11-13.57,1.21-1.91,15.76-7.76,19.94-9.34,2.14-.74,5.76-1.91,6.14,1.81.23,2.56-2.23,10.18-3.11,12.87-.88,4.14-3.11,8.32-5.11,11.95h0v-.09ZM177.05,237.72c-.09.28-.37.88-.09.98,1.86.51,5.07,2.65,6.51,4.04,2.6,1.91,8.97,8.65,11.53,9.11,1.16.56,3.81-1.39,4.6-2.46,1.53-1.02,2.51-1.63,2.97-3.53,1.21-7.11-6.74-9.67-11.62-11.95-1.16-.56-7.95-3.95-8.23-4.14-.42.19-5.02,7.11-5.72,7.9h0v.05h.05ZM174.22,241.62c-1.21,1.91-2.46,3.76-3.49,6.09-.56,1.16-4.14,8.23-4.09,8.92.19.42,4.18,1.58,4.74,1.86,1.86.51,6.18,2.51,8.23,2.7,1.67.05,4.74-2.7,6.23-3.76,2.23-1.81,4.18-2.28,2.37-5.16-2.97-4.83-8.23-7.95-13.01-10.5-.6-.28-.42-.56-.98-.09h-.05v-.05h.05ZM175.8,279.32c.51-2.56.93-5.86.84-8.69.05-1.67.7-4.55-1.21-5.76-1.02-.84-7.3-2.28-9.02-2.37-.88-.19-1.35.19-1.53,1.02-1.16,4.04-1.35,9.85-.84,13.9-.09.98.84,7.34,1.67,7.72.6.28,3.53-.84,3.81-.7,2.93-1.07,5.76-1.91,6.18-5.16h.05v.05h.05ZM188.07,305.81c.6.28,1.16.56,1.86.51.28-.6.19-11.11,0-12.18-.37-2.23-9.71-6.18-11.57-6.69-2.46-.74-6.32,1.63-8.69,2.97-.56.42-1.16.19-.56,1.16,4.04,6.41,11.76,11.62,18.92,14.22h.05,0ZM221.95,297.3c.09-.98-.33-1.58-1.07-2.23-2.05-1.63-3.95-3.53-5.86-5.48-1.72-1.53-6.32-6.04-8.92-4.09-2.37,1.35-10.97,7.16-12.18,9.06s3.3,13.39,5.02,13.43c3.72.28,8.04-.88,11.43-2.14,3.02-1.35,9.9-5.62,11.62-8.65h0v.05l-.05.05ZM210.52,274.99c-1.53,4.88,9.81,12.83,13.9,16.08,1.02.84,1.3,1.63,2,.93,4.18-6.09,7.9-14.18,9.9-21.66.23-1.3.56-1.16-.37-2.23-3.53-3.72-10.04-8.41-14.55-10.88-1.39-.65-3.76-1.67-5.16-.98-1.81.93-3.11,9.02-3.44,11.29-.33,2.28-1.53,4.88-2.28,7.34h0v.09ZM190.16,218.24c-.56,1.16-5.11,8.09-4.69,8.65,0,0,12.08,4.14,13.2,4.6,4.04,1.16,8.97,5.48,11.34,8.69,3.44,4.69,3.63,6.51,8.88,9.62,6.51,4.04,11.43,6.23,17.29,11.76,1.49,1.35,1.49,2.05,1.86.51,1.07-5.44,1.72-10.69,3.16-15.99.37-.88,1.3-3.58.56-4.28-4.09-3.25-9.81-7.62-13.15-11.57-4.28-5.11-4.93-8.23-7.3-13.8-1.53-3.49-3.25-4.28-6.69-5.16-7.58-1.72-10.88-2.18-17.57-6.65-.74-.7-1.21-1.25-1.58-.37-2.28,7.3-3.3,10.32-5.35,13.9h0v.09h.05ZM212.98,131.75c-.84,1.72-4.04,6.51-3.72,7.39s3.21,2.88,4.37,3.39c2.32,1.72,14.73,11.25,13.8,13.25-1.02,2.28-4.83-.09-5.86-.93-4.93-3.63-9.62-7.9-15.38-9.85-.56,1.16-2.51,5.48-2,6.74.19.42,1.81,2.23,2.32,2.51,2.93,2.7,5.62,5.35,8.46,8.04,2.23,2.05,5.86,6.18,5.44,9.44-.05,1.67-2.84.84-3.72.42-1.58-1.07-14.36-9.71-15.94-9.34-.28-.09-.88,3.44-.88,4.14-.28.6-.23,2.7.09,3.53.19.42,1.72,1.53,1.91,1.91,4.09,3.25,8.13,5.81,11.67,9.53.88,1.07,3.81,3.86,2.18,5.16-2.51,1.63-5.21,0-7.39-1.3-2.18-1.3-4.93-3.63-7.02-5.25-.28-.09-2.18-2.05-2.6-1.21-.09.28-.65,9.06-.93,10.36,0,1.39-.98,5.11-.74,6.23.19.42.33.88.88,1.07,4.09,3.25,9.2,7.34,14.55,7.02,5.39-.33,7.58-3.53,9.95-7.3,3.25-4.79,6.74-10.18,9.67-15.11,3.3-6.51,2.88-6.37,8.09-11.62,6.18-5.86,10.5-7.72,2.6-14.83-8.46-8.04-17.99-15.57-27.1-23.15-2.23-2.05-1.81-2.23-2.97-.33h.19v.05l.09.05ZM246.31,176.27c-1.86,4.04-2.88,6.37-5.9,9.85-8.13,10.23-17.99,21.05-9.44,34.35,3.86,5.25,7.67,8.37,12.87,12.18,1.3.93,1.35,1.63,2.37.05,2.14-3.9,3.86-6.97,6.46-10.27.28-.6,1.07-1.58.65-2.18-.19-1.16-8.04-7.48-9.81-12.13-.51-1.95.88-2.7,2.46-2.32,1.67.05,3.63,2.7,4.83,3.95.74.7,5.72,5.76,5.72,5.76.42.56.98.09,1.25-.51,1.91-1.91,3.81-4.51,5.86-6.74.56-.42,2.6-2.65,2.88-3.21-.19-.42-4.55-5.21-4.74-5.67-1.35-1.67-4.28-4.42-5.16-6.18-1.81-2.93-3.21-6,1.49-7.02,2.56-.23,3.44.19,4.6,2.14,2.14,3.76,4.51,6.97,7.02,10.55.28.09.74,1.39,1.21,1.25.28.09,3.25-3.39,3.72-3.53.84-1.02,6.14-6.6,5.86-7.44,0-.7-13.06-16.41-14.41-18.08-2.05-2.32-2.37-3.21-5.53-3.9-6.93-2.46-11.48,3.81-14.32,9.11h.05,0ZM281.68,138.44l-2.6-1.21c-4.74-1.81-9.85,1.72-12.87,5.25-2.32,2.79-4.74,6.51-4.6,10.13.33,5.39,2.46,9.11,5.25,13.57,2.28,4.18,11.2,12.83,15.15,15.66,2.32,1.72,2.79,2.32,4.23-.19,5.9-9.85,10.6-21.66,13.2-32.67.28-.6,1.02-3.02.74-3.16-3.76-.98-7.02-2.18-10.5-3.76l-8.09-3.72h.05l.05.09ZM265.46,106.97c-1.02-.84-10.69-10.13-10.69-10.13-1.95.51-8.65,3.72-10.88,4.79-.09.28-.98.6-.37.88,5.11,7.9,18.82,22.17,26.91,26.59,9.67,5.48,19.61,10.36,31.05,11.43.42-3.95.88-7.99.6-11.95,0-1.39-.51-1.25-1.35-1.67-9.71-3.02-16.08-6-25.05-11.48-3.63-2.7-6.69-5.16-10.04-8.41h-.09l-.09-.05ZM280.98,114.09c1.72.84,20.73,8.83,20.08,5.72-3.25-17.2-16.55-27.1-33.93-25.66-.98-.09-8.04.88-8.32,1.39-.09.28,6.97,7.72,7.67,8.37,4.83,4.69,8.65,7.06,14.5,10.13h0v.05h0Z"/>
  </g>
  <g>
    <path class="cls-9" d="M18.94,289.16c-.21-1.01-.09-1.84.35-2.49.44-.65,1.19-1.08,2.23-1.3l29.94-6.16c1.04-.21,1.89-.11,2.54.32.65.43,1.08,1.14,1.28,2.15.21,1.01.1,1.84-.32,2.51-.42.67-1.16,1.1-2.2,1.32l-13.05,2.69-.15-.71c1.93.37,3.52,1.25,4.77,2.62,1.25,1.37,2.07,3.05,2.48,5.03.41,1.98.37,3.69-.1,5.12-.48,1.43-1.4,2.62-2.76,3.56-1.36.95-3.19,1.65-5.47,2.12l-12.2,2.51c-1.04.21-1.9.11-2.56-.31-.67-.42-1.1-1.14-1.31-2.15s-.09-1.85.35-2.51c.44-.67,1.18-1.11,2.22-1.33l11.9-2.45c1.92-.39,3.24-1.04,3.96-1.95.72-.9.93-2.11.62-3.62-.38-1.85-1.26-3.2-2.65-4.05-1.38-.85-3.03-1.08-4.95-.69l-11.04,2.27c-2.15.44-3.44-.39-3.88-2.51Z"/>
    <path class="cls-9" d="M26.82,320.92c-.31-.98-.26-1.83.17-2.54s1.16-1.23,2.2-1.56l18-5.71c1.08-.34,1.99-.34,2.73,0,.74.34,1.26,1,1.57,1.98.31.98.27,1.83-.13,2.55-.4.72-1.14,1.25-2.22,1.59l-18,5.71c-1.05.33-1.95.33-2.7,0-.75-.34-1.29-1.01-1.61-2.03ZM56.05,311.65c-.36-1.15-.36-2.13.01-2.95.37-.82,1.06-1.39,2.08-1.71,1.05-.33,1.95-.27,2.71.19.76.46,1.32,1.26,1.68,2.41.37,1.18.38,2.17.02,2.96-.36.8-1.06,1.36-2.11,1.69-1.01.32-1.91.26-2.67-.18-.77-.44-1.34-1.25-1.71-2.42Z"/>
    <path class="cls-9" d="M34.14,341.22c-.57-1.36-1.04-2.86-1.4-4.49-.36-1.64-.44-3.2-.25-4.7.1-.64.32-1.15.66-1.54.34-.39.73-.65,1.18-.78.45-.13.88-.13,1.31,0,.43.13.78.4,1.06.78.28.39.39.89.35,1.5-.07,1.52.02,2.88.25,4.09.23,1.21.57,2.35,1.03,3.42.64,1.52,1.38,2.54,2.21,3.06.83.52,1.68.6,2.53.24.73-.31,1.18-.79,1.37-1.45.19-.66.17-1.52-.05-2.57l-1.1-5.12c-.45-2.12-.36-3.92.26-5.39.62-1.47,1.77-2.57,3.45-3.27,1.52-.64,3-.78,4.47-.41,1.46.37,2.8,1.17,4.03,2.4,1.23,1.23,2.25,2.81,3.06,4.74.59,1.39.99,2.76,1.2,4.1.21,1.34.25,2.72.09,4.12-.05.58-.25,1.04-.58,1.39-.34.35-.74.56-1.21.65-.47.09-.93.06-1.38-.09s-.81-.41-1.07-.81c-.26-.39-.38-.91-.35-1.56.09-1.19.06-2.29-.1-3.28-.16-.99-.41-1.9-.76-2.72-.65-1.55-1.41-2.58-2.26-3.1-.85-.52-1.72-.59-2.6-.21-.66.28-1.12.74-1.38,1.36-.26.63-.27,1.44-.04,2.42l1.1,5.12c.49,2.21.45,4.06-.11,5.55-.56,1.49-1.7,2.59-3.41,3.31-2.31.97-4.5.84-6.57-.41-2.07-1.25-3.74-3.37-5.01-6.37Z"/>
    <path class="cls-9" d="M48.2,369.23c-1.09-1.94-1.68-3.75-1.75-5.42-.07-1.67.35-3.18,1.26-4.52.92-1.34,2.32-2.54,4.2-3.6l9.55-5.38-1.31-2.33c-.4-.72-.53-1.38-.37-1.98.15-.6.56-1.08,1.22-1.45.69-.39,1.32-.49,1.9-.3s1.07.64,1.47,1.36l1.31,2.33,4.08-2.3c.93-.52,1.77-.67,2.52-.45.76.22,1.39.78,1.89,1.68.5.9.65,1.72.44,2.47-.21.75-.78,1.38-1.7,1.9l-4.08,2.3,2.68,4.75c.4.72.54,1.37.4,1.96-.14.59-.55,1.08-1.24,1.47-.66.37-1.28.47-1.88.29-.59-.18-1.09-.63-1.49-1.34l-2.67-4.75-9.24,5.2c-1.44.81-2.33,1.73-2.7,2.76-.36,1.03-.15,2.25.64,3.66.29.51.58.93.89,1.27.31.34.56.65.76.93.23.34.29.7.17,1.09-.12.38-.57.79-1.35,1.23-.6.34-1.18.54-1.76.6-.57.07-1.09-.1-1.56-.51-.34-.32-.74-.77-1.19-1.34-.46-.57-.82-1.09-1.09-1.57Z"/>
    <path class="cls-9" d="M60.88,388.37c-1.54-2.1-2.45-4.25-2.72-6.42-.28-2.18.07-4.28,1.03-6.3.96-2.02,2.53-3.82,4.69-5.4,1.63-1.2,3.27-2.02,4.91-2.48,1.64-.46,3.26-.57,4.86-.33,1.6.24,3.1.81,4.52,1.73,1.42.92,2.7,2.17,3.86,3.75,1.54,2.1,2.45,4.25,2.72,6.42.28,2.18-.06,4.27-1.01,6.29-.95,2.01-2.51,3.81-4.67,5.39-1.63,1.2-3.28,2.03-4.93,2.49-1.66.47-3.28.58-4.88.35-1.6-.23-3.1-.81-4.52-1.73-1.42-.92-2.7-2.17-3.86-3.75ZM64.82,385.48c.75,1.02,1.66,1.74,2.72,2.15,1.07.41,2.25.47,3.54.18,1.3-.29,2.68-.97,4.15-2.05,2.21-1.62,3.52-3.3,3.93-5.04.4-1.74.04-3.39-1.09-4.94-.75-1.03-1.65-1.75-2.7-2.17-1.05-.42-2.23-.49-3.52-.2-1.3.29-2.68.97-4.15,2.04-2.19,1.6-3.5,3.28-3.93,5.04-.43,1.76-.08,3.42,1.05,4.97Z"/>
    <path class="cls-9" d="M76.34,407.22c-.72-.78-1.07-1.57-1.04-2.37.03-.8.43-1.56,1.21-2.29l14.24-13.26c.78-.72,1.55-1.07,2.33-1.05.77.03,1.5.41,2.18,1.13.68.73,1,1.48.98,2.26-.03.78-.43,1.53-1.21,2.25l-2.37,2.21-.35-.38c1.83-1.05,3.62-1.42,5.36-1.12,1.74.3,3.48,1.24,5.22,2.81.54.48.8,1.02.78,1.63-.02.61-.34,1.24-.94,1.9-.58.63-1.22.96-1.93.99-.71.02-1.41-.27-2.12-.88l-.85-.76c-1.58-1.39-3.12-2.11-4.64-2.15-1.52-.04-2.99.6-4.42,1.94l-7.8,7.26c-.78.72-1.56,1.08-2.35,1.06-.79-.02-1.55-.41-2.27-1.19Z"/>
    <path class="cls-9" d="M90.11,433.72c-.58-.49-.92-1.04-1.03-1.65-.11-.61,0-1.19.37-1.75.36-.55.88-1,1.58-1.36l7.69-3.67-1.73,2.04,6.84-22.59c.25-.78.63-1.38,1.13-1.81.5-.43,1.08-.63,1.74-.58.66.04,1.34.36,2.05.96.6.51.97,1.06,1.1,1.64.13.58.02,1.38-.33,2.38l-5.89,17.73-1.18-1,16.65-8.7c.91-.49,1.68-.71,2.3-.65s1.27.36,1.92.92c.58.49.91,1.03.99,1.62.09.59-.04,1.16-.37,1.71-.33.55-.87,1-1.62,1.36l-27.99,13.74c-.96.44-1.75.63-2.36.56-.61-.07-1.24-.37-1.86-.9Z"/>
    <path class="cls-14" d="M140.7,451.71c-1.48-.8-2.64-1.9-3.49-3.28-.85-1.38-1.32-2.88-1.42-4.49-.1-1.62.26-3.18,1.08-4.68.75-1.39,1.82-2.5,3.19-3.33,1.37-.84,2.89-1.3,4.54-1.4,1.65-.1,3.26.28,4.83,1.14,1.45.79,2.61,1.87,3.48,3.24s1.35,2.88,1.44,4.51c.09,1.63-.29,3.21-1.12,4.75-.8,1.48-1.9,2.62-3.3,3.42s-2.91,1.23-4.54,1.28c-1.63.05-3.2-.33-4.7-1.15Z"/>
    <path class="cls-9" d="M175.74,472.51c-.99-.29-1.66-.79-2.03-1.48-.37-.7-.4-1.56-.1-2.58l5.5-18.66c.3-1.02.79-1.72,1.47-2.09.68-.37,1.5-.42,2.45-.13.95.28,1.62.76,1.99,1.44.37.68.41,1.53.11,2.55l-.99,3.36-.18-1.39c1.24-1.53,2.76-2.52,4.55-2.98s3.67-.39,5.61.18c1.94.57,3.43,1.4,4.47,2.5s1.65,2.46,1.85,4.11c.19,1.65-.04,3.59-.7,5.83l-3.52,11.95c-.3,1.02-.79,1.72-1.48,2.11-.69.39-1.52.44-2.51.15-.99-.29-1.67-.79-2.06-1.49-.38-.7-.42-1.56-.12-2.58l3.43-11.65c.55-1.88.6-3.35.15-4.41-.46-1.06-1.42-1.81-2.9-2.25-1.81-.53-3.42-.39-4.82.43-1.41.82-2.38,2.17-2.94,4.04l-3.19,10.81c-.62,2.11-1.97,2.85-4.04,2.24Z"/>
    <path class="cls-9" d="M212.77,481.58c-1.8-.27-3.35-.86-4.65-1.77-1.3-.91-2.27-2.01-2.88-3.32-.62-1.31-.82-2.71-.59-4.2.27-1.83.97-3.21,2.08-4.14,1.11-.93,2.77-1.47,4.98-1.62,2.21-.15,5.11.04,8.71.58l2.54.38-.55,3.66-2.49-.37c-2.1-.32-3.8-.47-5.08-.45-1.29.01-2.23.23-2.83.64-.6.41-.97,1.06-1.1,1.94-.17,1.12.08,2.09.76,2.92.67.83,1.71,1.35,3.1,1.56,1.12.17,2.15.05,3.1-.34.94-.4,1.74-1.01,2.39-1.85s1.06-1.85,1.24-3.04l.88-5.85c.25-1.7.06-2.97-.57-3.83-.63-.86-1.83-1.42-3.6-1.68-.98-.15-2.06-.19-3.23-.12-1.17.07-2.43.29-3.77.68-.69.21-1.27.21-1.74,0-.47-.21-.81-.55-1.02-1.01-.21-.46-.27-.95-.2-1.46.08-.51.29-.99.63-1.44.34-.45.86-.75,1.54-.89,1.66-.41,3.23-.64,4.71-.7,1.48-.05,2.82,0,4.01.19,2.44.37,4.4,1.04,5.86,2.03,1.46.98,2.47,2.29,3.03,3.92s.65,3.63.3,6l-1.83,12.21c-.16,1.05-.53,1.82-1.13,2.3s-1.37.65-2.31.51c-.95-.14-1.65-.53-2.09-1.17-.44-.64-.58-1.48-.43-2.54l.37-2.44.41.06c-.42,1.15-1.04,2.11-1.86,2.87-.83.76-1.8,1.3-2.92,1.62-1.12.32-2.36.37-3.72.17Z"/>
    <path class="cls-9" d="M246.94,484.59c-2.23-.08-4.08-.52-5.54-1.33s-2.53-1.95-3.2-3.43c-.67-1.48-.97-3.3-.89-5.46l.38-10.96-2.67-.09c-.82-.03-1.45-.26-1.88-.71-.43-.44-.63-1.04-.61-1.8.03-.79.27-1.38.73-1.78.46-.4,1.1-.58,1.92-.55l2.67.09.16-4.68c.04-1.06.35-1.86.93-2.39s1.39-.78,2.42-.74,1.81.34,2.34.91c.53.57.78,1.38.74,2.45l-.16,4.68,5.45.19c.82.03,1.45.26,1.88.68.43.43.63,1.04.61,1.82-.03.75-.27,1.34-.73,1.75-.46.41-1.1.61-1.93.58l-5.45-.19-.37,10.59c-.06,1.65.26,2.89.95,3.74s1.84,1.3,3.45,1.36c.58.02,1.1-.01,1.55-.1.45-.09.85-.14,1.19-.16.41-.02.75.12,1.01.42.26.3.38.9.35,1.79-.02.69-.16,1.29-.4,1.81-.24.52-.66.88-1.25,1.06-.45.12-1.04.23-1.76.32-.72.09-1.36.13-1.91.11Z"/>
    <path class="cls-9" d="M267.47,483.95c-2.09.17-3.84-.07-5.28-.72-1.43-.66-2.54-1.73-3.34-3.21s-1.29-3.37-1.48-5.66l-1.03-12.41c-.09-1.09.12-1.93.62-2.5.5-.57,1.27-.91,2.29-.99,1.03-.08,1.84.11,2.45.6s.96,1.27,1.05,2.37l1.04,12.51c.15,1.78.62,3.07,1.4,3.86.79.79,1.97,1.13,3.54,1,1.71-.14,3.06-.85,4.06-2.12,1-1.27,1.41-2.88,1.25-4.83l-.94-11.28c-.09-1.09.12-1.93.62-2.5s1.27-.91,2.29-.99c1.03-.08,1.84.12,2.45.6.61.48.96,1.27,1.05,2.37l1.61,19.39c.18,2.19-.77,3.37-2.86,3.54-.99.08-1.78-.14-2.38-.66-.59-.52-.93-1.31-1.02-2.37l-.32-3.9.85,1.48c-.57,1.91-1.53,3.42-2.9,4.53s-3.05,1.75-5.03,1.91Z"/>
    <path class="cls-9" d="M294.18,480.38c-1.04.21-1.9.1-2.56-.34-.67-.44-1.11-1.18-1.32-2.22l-3.9-19.06c-.21-1.04-.11-1.89.32-2.54.43-.65,1.13-1.07,2.1-1.27.97-.2,1.79-.08,2.43.34.65.43,1.08,1.16,1.29,2.2l.65,3.18-.5.1c.06-2.11.67-3.83,1.83-5.16,1.16-1.32,2.87-2.32,5.11-2.99.69-.21,1.29-.15,1.8.18.51.33.88.93,1.13,1.79.24.83.19,1.55-.16,2.16-.35.61-.96,1.06-1.85,1.35l-1.09.33c-2.01.62-3.43,1.57-4.25,2.84-.83,1.27-1.04,2.87-.65,4.78l2.14,10.44c.21,1.04.11,1.89-.32,2.56-.42.67-1.16,1.1-2.2,1.32Z"/>
    <path class="cls-9" d="M325,472.42c-2.71.89-5.2,1.14-7.49.77s-4.27-1.31-5.93-2.82c-1.67-1.51-2.92-3.54-3.75-6.08-.81-2.48-1.01-4.81-.59-7.01.42-2.2,1.36-4.12,2.82-5.77s3.35-2.86,5.67-3.61c1.7-.55,3.31-.78,4.85-.66,1.53.11,2.95.53,4.26,1.26,1.3.73,2.45,1.75,3.44,3.07.99,1.32,1.79,2.91,2.4,4.77.19.59.13,1.1-.17,1.54s-.83.79-1.58,1.03l-15.7,5.14-1.15-3.52,13.74-4.5-.54.99c-.49-1.5-1.12-2.68-1.89-3.55-.77-.87-1.66-1.43-2.67-1.7-1.01-.27-2.13-.2-3.37.21-1.37.45-2.43,1.15-3.18,2.1-.75.95-1.19,2.09-1.32,3.41-.13,1.32.07,2.78.59,4.38l.11.34c.88,2.67,2.16,4.47,3.84,5.38s3.75.96,6.2.17c.85-.28,1.77-.7,2.76-1.25.99-.56,1.87-1.25,2.65-2.08.56-.62,1.1-.98,1.64-1.11.54-.12,1.01-.07,1.43.15.42.23.73.56.95,1.01.22.45.29.96.2,1.53-.08.57-.36,1.13-.83,1.68-.91,1.09-2.05,2.05-3.42,2.88-1.37.83-2.69,1.45-3.96,1.87Z"/>
    <path class="cls-14" d="M364.74,448.99c-1.46.84-3,1.26-4.62,1.26s-3.15-.37-4.57-1.14c-1.43-.76-2.57-1.88-3.43-3.37-.79-1.37-1.18-2.85-1.17-4.46,0-1.61.4-3.14,1.18-4.6.78-1.46,1.95-2.64,3.49-3.53,1.43-.82,2.95-1.25,4.58-1.27,1.63-.03,3.16.35,4.6,1.12,1.44.78,2.59,1.92,3.47,3.44.84,1.46,1.24,2.99,1.19,4.6-.04,1.61-.47,3.12-1.28,4.54s-1.96,2.55-3.44,3.41Z"/>
    <path class="cls-9" d="M407,424.57c-1.99,1.74-4.07,2.85-6.25,3.33s-4.33.32-6.44-.48c-2.11-.79-4.05-2.2-5.81-4.21-1.33-1.52-2.3-3.08-2.9-4.68-.6-1.6-.84-3.19-.73-4.77.12-1.58.58-3.13,1.4-4.65.82-1.51,1.97-2.93,3.47-4.24.85-.75,1.88-1.44,3.07-2.08,1.2-.64,2.47-1.07,3.82-1.3.64-.1,1.18-.03,1.63.22.45.25.79.59,1.04,1.04.25.44.37.91.36,1.39,0,.49-.16.92-.47,1.3-.3.38-.78.65-1.42.8-.86.16-1.66.42-2.4.77-.74.35-1.38.77-1.92,1.24-.85.75-1.48,1.54-1.89,2.37-.41.84-.62,1.7-.63,2.6-.01.9.2,1.82.62,2.78.42.95,1.07,1.92,1.92,2.9,1.67,1.91,3.45,3.01,5.33,3.3,1.88.29,3.65-.29,5.33-1.77.54-.47,1.04-1.04,1.48-1.71.45-.66.82-1.42,1.12-2.28.23-.62.56-1.04.98-1.27.42-.23.86-.31,1.33-.24.47.07.89.27,1.27.59.38.33.66.74.83,1.22.17.49.17,1.01-.01,1.59-.4,1.26-.97,2.43-1.72,3.5-.75,1.07-1.55,1.98-2.4,2.72Z"/>
    <path class="cls-9" d="M424.83,406.73c-1.38,1.57-2.82,2.62-4.3,3.14-1.49.52-3.03.52-4.63,0-1.6-.52-3.26-1.54-4.99-3.05l-9.35-8.23c-.82-.73-1.25-1.47-1.29-2.23-.04-.76.29-1.53.96-2.3s1.41-1.2,2.18-1.27,1.57.25,2.4.98l9.43,8.29c1.34,1.18,2.57,1.78,3.69,1.81,1.12.03,2.2-.55,3.24-1.74,1.13-1.29,1.62-2.73,1.46-4.34s-.98-3.05-2.45-4.35l-8.5-7.48c-.82-.73-1.25-1.47-1.29-2.23-.04-.76.29-1.53.96-2.3s1.41-1.2,2.18-1.27c.77-.07,1.57.25,2.4.98l14.6,12.85c1.65,1.45,1.78,2.96.4,4.53-.66.75-1.38,1.14-2.17,1.18-.79.04-1.58-.29-2.38-1l-2.94-2.58,1.63.48c.92,1.76,1.26,3.52,1.05,5.28-.22,1.75-.98,3.38-2.3,4.87Z"/>
    <path class="cls-9" d="M444.61,381.48c-1.64,2.33-3.53,3.62-5.69,3.86s-4.53-.54-7.12-2.35l-19.93-13.98c-.87-.61-1.37-1.3-1.51-2.06-.13-.76.09-1.57.68-2.41s1.27-1.34,2.05-1.49c.78-.15,1.6.08,2.47.69l19.68,13.8c1.29.91,2.44,1.3,3.44,1.19,1-.11,1.86-.68,2.57-1.69.16-.22.3-.44.42-.65.12-.21.24-.42.35-.63.22-.43.51-.62.88-.58.37.05.96.36,1.77.93.7.49,1.15,1.02,1.35,1.57.2.56.11,1.19-.26,1.89-.17.3-.35.62-.54.94-.19.33-.39.65-.61.96Z"/>
    <path class="cls-9" d="M455.59,363.66c-1.12,1.93-2.39,3.34-3.79,4.25-1.4.91-2.92,1.31-4.54,1.2-1.62-.11-3.37-.71-5.23-1.8l-9.47-5.52-1.35,2.31c-.42.71-.92,1.15-1.51,1.32-.59.17-1.22.06-1.87-.32-.68-.4-1.09-.89-1.22-1.48-.13-.59.01-1.25.42-1.96l1.35-2.31-4.05-2.36c-.92-.54-1.47-1.19-1.66-1.95-.19-.77-.02-1.59.49-2.48.52-.89,1.15-1.43,1.9-1.63.75-.2,1.59-.03,2.5.51l4.05,2.36,2.75-4.71c.42-.71.91-1.16,1.49-1.33.58-.18,1.21-.07,1.89.33.65.38,1.05.87,1.2,1.47.15.6.01,1.26-.4,1.97l-2.75,4.71,9.16,5.34c1.42.83,2.67,1.14,3.75.93,1.07-.21,2.02-1.01,2.83-2.4.29-.5.51-.97.64-1.41.14-.44.28-.81.42-1.13.18-.37.46-.6.85-.69.39-.09.97.09,1.74.54.59.35,1.06.75,1.41,1.21.35.46.46,1,.35,1.6-.11.46-.29,1.02-.55,1.71-.26.68-.53,1.26-.8,1.74Z"/>
    <path class="cls-9" d="M464.73,345.23c-.83,1.92-1.87,3.36-3.12,4.31-1.25.95-2.72,1.43-4.4,1.43-1.68,0-3.58-.45-5.69-1.37l-11.43-4.94c-1.01-.44-1.65-1.01-1.92-1.73-.27-.71-.2-1.54.21-2.49.41-.95.97-1.57,1.68-1.88.71-.31,1.57-.25,2.58.19l11.53,4.98c1.64.71,2.99.9,4.07.58,1.07-.32,1.92-1.21,2.55-2.65.68-1.57.7-3.1.04-4.58-.65-1.48-1.87-2.6-3.67-3.38l-10.39-4.49c-1.01-.44-1.65-1.01-1.92-1.73-.27-.71-.2-1.54.21-2.49.41-.95.97-1.57,1.68-1.88.71-.31,1.57-.25,2.58.19l17.86,7.72c2.02.87,2.61,2.27,1.78,4.19-.39.91-.96,1.51-1.7,1.79-.74.28-1.59.21-2.57-.21l-3.59-1.55,1.7-.05c1.41,1.4,2.29,2.96,2.62,4.69.33,1.73.11,3.51-.68,5.34Z"/>
    <path class="cls-9" d="M474.17,319.96c-.3,1.02-.8,1.72-1.51,2.1-.7.38-1.56.42-2.58.12l-18.65-5.52c-1.02-.3-1.71-.79-2.09-1.48-.37-.68-.41-1.5-.13-2.45s.76-1.62,1.45-1.99c.68-.37,1.53-.4,2.55-.1l3.11.92-.15.49c-1.84-1.04-3.07-2.39-3.69-4.04-.62-1.65-.7-3.62-.23-5.92.14-.71.47-1.21,1.01-1.5.53-.29,1.24-.34,2.11-.15.84.18,1.45.56,1.83,1.16.38.59.49,1.35.32,2.27l-.22,1.11c-.4,2.07-.23,3.76.51,5.09.73,1.33,2.04,2.27,3.91,2.82l10.21,3.02c1.02.3,1.72.8,2.11,1.48.39.69.43,1.54.13,2.56Z"/>
    <path class="cls-9" d="M481.63,289.03c-.49,2.8-1.44,5.13-2.84,6.97s-3.17,3.15-5.28,3.91c-2.12.76-4.5.91-7.13.45-2.57-.45-4.72-1.38-6.46-2.78s-2.99-3.14-3.76-5.21c-.77-2.07-.94-4.3-.52-6.7.31-1.76.87-3.29,1.69-4.59.82-1.3,1.86-2.36,3.12-3.16,1.26-.81,2.7-1.34,4.33-1.59,1.63-.25,3.41-.21,5.33.13.61.11,1.04.4,1.28.88.25.48.3,1.11.17,1.88l-2.86,16.27-3.65-.64,2.5-14.24.62.94c-1.55-.27-2.89-.27-4.02,0-1.13.27-2.05.79-2.75,1.55s-1.18,1.79-1.4,3.07c-.25,1.42-.13,2.69.35,3.8.48,1.11,1.28,2.04,2.39,2.77,1.11.74,2.49,1.25,4.15,1.54l.35.06c2.77.49,4.96.2,6.55-.86s2.62-2.86,3.06-5.39c.15-.88.22-1.89.19-3.02-.03-1.14-.22-2.24-.59-3.32-.28-.78-.35-1.44-.2-1.97.15-.53.42-.93.81-1.19s.84-.38,1.34-.37c.5.02.98.2,1.45.54s.83.85,1.09,1.52c.54,1.31.85,2.77.93,4.37.08,1.6.01,3.06-.22,4.38Z"/>
  </g>
</svg>