<?xml version="1.0" encoding="UTF-8"?>
<svg id="Layer_1" data-name="Layer 1" xmlns="http://www.w3.org/2000/svg" viewBox="0 0 600 600">
  <defs>
    <style>
      .cls-1 {
        fill: none;
      }

      .cls-2 {
        fill: #fff;
      }

      .cls-3 {
        fill: #1a8395;
      }

      .cls-4 {
        fill: #ed672d;
      }
    </style>
  </defs>
  <path class="cls-1" d="M300,576c-112.72,0-209.65-67.57-252.51-164.42h0c42.86,96.84,139.79,164.42,252.51,164.42s209.65-67.57,252.51-164.42h0c-42.86,96.84-139.79,164.42-252.51,164.42Z"/>
  <path class="cls-3" d="M32.69,368.98c3.79,14.71,8.76,28.95,14.8,42.61h0c-6.04-13.66-11.02-27.89-14.8-42.61Z"/>
  <path class="cls-3" d="M552.51,411.58c6.04-13.66,11.02-27.89,14.8-42.61-3.79,14.71-8.76,28.95-14.8,42.61h0Z"/>
  <path class="cls-4" d="M565.41,224.02c-5.68-19.89-13.55-38.87-23.31-56.65C495.19,81.92,404.36,24,300,24S104.81,81.92,57.9,167.37c-9.76,17.78-17.63,36.76-23.31,56.65-3.38,11.82-5.99,23.97-7.77,36.39-1.86,12.93-2.82,26.15-2.82,39.59,0,5.73.18,11.42.52,17.06.79,12.9,2.46,25.57,4.96,37.94.95,4.7,2.02,9.36,3.21,13.98,3.79,14.71,8.76,28.95,14.8,42.61,42.86,96.84,139.79,164.42,252.51,164.42s209.65-67.57,252.51-164.42c6.04-13.66,11.02-27.89,14.8-42.61,1.19-4.61,2.25-9.27,3.21-13.98,2.5-12.37,4.17-25.03,4.96-37.94.34-5.64.52-11.33.52-17.06,0-13.44-.97-26.66-2.82-39.59-1.78-12.41-4.39-24.56-7.77-36.39ZM460.12,293.92c.65,1.31,2.78,11.87,2.05,12.52-.33.33-14.41-6.06-15.72-6.79-9-4.58-14.24-8.76-21.53-15.72v-.08c-1.6-1.67-15.68-17.4-18.23-23.44-.58-1.36-.57-2.24.31-2.34,9.08-1.28,17.49-.41,24.87,2.34,13.83,5.15,24.03,16.91,28.25,33.51ZM394.31,355.72c-1.06.26-2.53-.08-4.19-.72-4.12-1.58-9.41-5.01-12.5-5.83-2.95-1.15-8.43,1.47-9.09.08-1.64-2.37-.49-5.4-3.76-10.23-.66-.74-4.01-4.17-3.6-4.5.41-.33,7.12,1.23,8.1,1.55,12.11,2.37,19.07-6.14,21.77-6.14,1.31.08-1.64,10.8-1.06,13.51.9,4.42,1.8,6.79,4.09,10.56h-.08s.3.53.46,1c.13.38.16.72-.13.72ZM297.73,407.28c-9.41-2.95-15.72-6.79-23.65-12.44-1.96-1.39-2.95-1.15-1.23-3.44,4.5-4.99,8.02-8.92,11.54-14.24.74-.65,1.8-2.29,2.78-1.96,1.72-.25,14.65,7.86,22.1,8.02,3.03-.25,3.44-2.62,2.13-4.67-.9-2.37-5.57-3.85-7.94-4.91-1.31-.65-10.97-5.32-10.97-5.32-1.06-.41-.74-1.39,0-2.05,1.75-3.58,4.42-7.39,6.52-11.28.06-.12.13-.23.19-.35.33-.98,2.46-4.99,3.19-5.65.74,0,9.74,4.01,10.4,4.01,1.27.45,2.96,1.22,4.7,1.98,2.4,1.06,4.92,2.12,6.67,2.35,4.1.94,8.25,1.44,9.15-2.35.2-.83.24-1.85.1-3.13-.9-3.77-1.88-4.83-5.24-5.57-6.38-1.23-12.03-3.03-18.42-4.91-.33-.33-2.37-.41-2.37-1.06-.33-.41,3.19-6.38,3.19-7.04,1.06-1.64,6.47-11.95,7.78-11.95.98-.33,29.71,10.56,32.74,11.62,4.34,1.8,5.65,1.88,8.27,5.97,4.22,5.28,3.32,10.95.56,16.06-1.74,3.22-4.21,6.21-6.61,8.74l-.08.08c-4.83,4.58-7.61,7.2-11.13,13.18-10.56,16.62-21.2,35.93-44.36,30.28ZM257.45,357.69c-2.63,4.58-12.93,10.96-17.51,13-5.07,1.88-11.62,3.6-17.19,3.19-2.27-.07-7.96-13.95-7.82-18.89.02-.57.11-1.03.29-1.33,1.8-2.86,14.73-11.62,18.33-13.67,3.93-2.95,10.8,3.85,13.42,6.14,2.87,2.95,5.73,5.81,8.84,8.27.23.2.44.39.63.59.73.76,1.11,1.56,1,2.69ZM195.9,326c-.07-1.84.33-5.32,1.01-8.94.89-4.76,2.26-9.75,3.66-11.52,1.8-2.86,23.74-11.7,30.04-14.08,3.19-1.15,8.68-2.86,9.25,2.7.33,3.85-3.36,15.31-4.67,19.4-.25,1.17-.56,2.33-.94,3.5-1.62,5.05-4.3,10.05-6.76,14.51v-.08c-1.56,3.44-7.78,9-11.62,10.48-4.26,1.23-12.03-2.37-15.47-3.93-4.34-1.96-4.75-7.94-4.5-12.03ZM193.69,303.41c-3.03-.33-9.58-3.36-12.36-4.09-.82-.41-6.88-2.13-7.12-2.78-.08-1.06,5.32-11.7,6.14-13.42,1.56-3.52,3.44-6.3,5.24-9.17l.08.08c.82-.65.57-.25,1.47.16,7.2,3.85,15.06,8.51,19.56,15.8,2.7,4.34-.25,5.07-3.6,7.78-2.29,1.56-6.88,5.73-9.41,5.65ZM279.18,317.06c-.01.06-.02.12-.03.18-3.03,11.21-8.59,23.41-14.9,32.58-1.06,1.06-1.47-.16-3.03-1.39-6.22-4.91-23.25-16.86-20.95-24.23v-.08c.72-2.32,1.7-4.73,2.45-7.06.44-1.37.81-2.72.99-3.99.49-3.44,2.46-15.63,5.16-17.02,2.13-1.06,5.65.49,7.78,1.47,6.79,3.68,16.62,10.8,21.94,16.37,1.35,1.58.93,1.41.61,3.17ZM392.68,317.06c-.32.63-.65,1.24-.99,1.82-2.78,4.58-7.04,9.9-12.11,11.46-7.86,2.21-14.24.98-21.94-.9-6.33-1.02-20.17-7.93-27.36-12.38-.9-.55-1.69-1.07-2.36-1.54-3.68-2.46-4.67-2.86-1.88-6.14,11.21-13.18,25.7-25.62,40.11-34.7.65-.65,3.77-2.95,4.09-2.62,3.27,4.83,6.55,8.92,10.48,13.1l9.17,9.66.08.08,2.95,3.11c4.43,5.25,2.73,13.17-.24,19.05ZM311.4,233.92c-.41.9-1.23,1.56-1.88.74,0,0-7.45-7.61-8.59-8.68-.51-.53-1.1-1.23-1.76-1.96-1.67-1.87-3.7-3.96-5.53-4.02-2.37-.57-4.42.57-3.68,3.52.06.16.13.33.2.5,2.97,6.91,14.29,16.08,14.53,17.76.66.9-.57,2.37-.98,3.27-3.9,4.96-6.51,9.52-9.68,15.36-.02.04-.04.07-.06.11-1.56,2.37-1.64,1.31-3.6-.08-.01-.01-.03-.02-.04-.03-7.84-5.72-13.55-10.38-19.36-18.3-4.09-6.38-5.37-12.37-4.83-18.08,1.15-12.24,10.7-23.15,19.08-33.65,4.58-5.24,6.14-8.76,8.92-14.82h-.08c1.47-2.76,3.24-5.69,5.37-8.19,4.04-4.76,9.34-7.97,16.16-5.56,4.59,1.03,5.21,2.29,8.06,5.56.1.11.19.22.29.33,2.05,2.54,21.69,26.19,21.69,27.26.41,1.31-7.61,9.66-8.84,11.21-.66.25-5.16,5.48-5.57,5.32-.66.25-1.39-1.72-1.8-1.88-3.76-5.4-7.37-10.23-10.56-15.88-1.8-2.95-3.11-3.52-6.96-3.19-7.04,1.56-4.91,6.14-2.21,10.56,1.31,2.7,5.73,6.79,7.78,9.33.25.65,6.88,7.86,7.12,8.51-.41.82-3.52,4.17-4.34,4.83-.08.08-.15.17-.23.25-3.02,3.3-5.82,7.1-8.61,9.9ZM289.95,133.82c4.34.98,6.88,1.06,11.38.49,2.78-.25,11.95-6.63,12.44-5.32.98,2.54-4.91,11.87,1.23,22.59.65.82,4.26,6.71,4.09,7.12-.16.41-4.5-1.55-5.4-1.96-5.57-1.47-8.1.49-10.89-.25-1.47-.16-.82-6.14-2.86-8.68-2.46-3.77-11.21-9.82-11.54-13.67-.25-.57,1.72-.25,1.72-.25l-.16-.08ZM354.29,183.75c-2.21,3.77-2.86,2.86-6.38.25-4.21-3-12.11-10.34-17.62-16.62-2.31-2.64-4.2-5.09-5.22-6.95-4.26-6.71-7.45-12.36-7.94-20.46-.16-5.4,3.44-11.05,6.96-15.22,4.58-5.32,12.28-10.64,19.4-7.94l3.93,1.8h-.08l12.2,5.57c5.24,2.37,10.15,4.17,15.8,5.65.41.16-.74,3.85-1.15,4.75-2.56,10.83-6.45,22.14-11.31,32.82-2.6,5.7-5.47,11.22-8.58,16.38ZM325.47,51.89c26.19-2.13,46.16,12.77,51.07,38.63.98,4.67-27.58-7.37-30.2-8.59v-.08c-8.84-4.58-14.57-8.18-21.85-15.22-1.06-.98-11.7-12.2-11.54-12.6.41-.82,11.05-2.29,12.52-2.13ZM290.44,63.18c3.36-1.64,13.42-6.47,16.37-7.2,0,0,14.57,14,16.12,15.22h.16c5.07,4.91,9.66,8.59,15.14,12.69,13.51,8.27,23.08,12.69,37.73,17.27,1.31.65,2.05.41,2.05,2.54.41,5.98-.25,12.03-.9,18.01-17.19-1.55-32.17-8.92-46.74-17.19-12.2-6.63-32.82-28.16-40.52-40.03-.9-.41.41-.9.57-1.31ZM263.76,83.56c3.11-3.27,18.83-17.11,21.28-14.41,6.63,7.2,11.87,14.32,19.32,20.87,1.8,1.8,18.5,16.86,18.33,17.27.74,2.95-8.51,12.85-11.21,15.31-2.46,2.05-7.28,5.57-10.64,6.14-7.69.74-14.81-3.11-20.14-7.61-5.98-5.4-13.83-11.13-18.99-17.11-1.31-1.64-3.11-3.52-4.42-5.16v.16c.16-.49-3.6-4.83-3.6-4.83,3.68-3.6,6.3-7.12,10.07-10.64ZM224.47,166.89c-.49-1.23-.57-4.42-.16-5.32,0-1.06.9-6.38,1.31-6.22,1.91-.46,14.79,7.91,20.95,12.03,1.48.99,2.58,1.74,3.04,2.05,1.31.57,5.48,1.88,5.57-.65.06-.46.07-.92.03-1.4-.38-4.64-5.17-10.02-8.21-12.84-4.34-4.09-8.35-8.02-12.77-12.11-.82-.41-3.27-3.11-3.52-3.77-.74-1.88,2.21-8.43,3.03-10.15,8.68,2.95,15.72,9.33,23.16,14.82,1.56,1.23,7.28,4.83,8.84,1.39,1.39-3.03-17.27-17.35-20.79-19.97-1.72-.74-6.06-3.77-6.55-5.07-.49-1.31,4.34-8.51,5.57-11.13l-.25-.08c1.8-2.86,1.15-2.62,4.5.49,13.67,11.46,27.99,22.75,40.76,34.87,11.87,10.72,5.4,13.51-3.93,22.35-.43.43-.82.83-1.2,1.22-6.59,6.72-6.27,7.01-10.99,16.3-4.42,7.45-9.66,15.55-14.57,22.75-3.6,5.65-6.88,10.48-14.98,10.97-8.1.49-15.8-5.65-21.94-10.56-.82-.33-1.06-.98-1.31-1.64-.33-1.72,1.15-7.28,1.15-9.41.41-1.96,1.23-15.22,1.39-15.63.65-1.31,3.52,1.64,3.93,1.8,3.11,2.46,7.28,5.97,10.56,7.94,3.27,1.96,7.37,4.42,11.13,1.96,2.46-1.96-1.96-6.14-3.27-7.78-5.32-5.57-11.46-9.41-17.6-14.32-.2-.46-1.77-1.61-2.51-2.38-.18-.19-.31-.36-.36-.48ZM217.59,217.63c.57-1.31,1.23-.49,2.37.57,4.2,2.8,7.52,4.54,10.78,5.82,4.56,1.78,9.03,2.64,15.66,4.17,5.16,1.31,7.78,2.54,10.07,7.78,3.52,8.43,4.5,13.1,10.97,20.79,1.02,1.2,2.18,2.42,3.44,3.65,4.99,4.89,11.46,9.86,16.37,13.78,1.15,1.06-.25,5.16-.82,6.47-2.13,7.94-3.11,15.88-4.75,24.06-.57,2.37-.57,1.31-2.78-.74-8.84-8.27-16.21-11.62-26.03-17.68-7.86-4.67-8.19-7.45-13.34-14.49-2.84-3.81-8.07-8.67-13.12-11.41-1.36-.73-2.7-1.32-3.98-1.69-1.72-.74-19.89-6.96-19.89-6.96-.65-.82,6.22-11.3,7.04-13.01v-.16c2.36-4.21,3.83-7.93,5.99-14.56.61-1.87,1.28-3.98,2.03-6.39ZM198.44,256.1c.27.16,4.92,2.52,8.5,4.31,1.78.89,3.29,1.64,3.86,1.91,7.37,3.44,19.32,7.28,17.52,18.01-.74,2.86-2.21,3.77-4.5,5.32-1.23,1.56-5.24,4.5-6.96,3.68-3.85-.74-13.42-10.89-17.35-13.75-2.21-2.05-7.04-5.32-9.82-6.06-.41-.16,0-1.06.16-1.47v-.08c.62-.66,3.17-4.44,5.35-7.56,1.59-2.28,2.97-4.2,3.25-4.31ZM171.51,306.85c.25-1.31.98-1.8,2.29-1.55,2.62.16,12.03,2.37,13.59,3.6,2.68,1.68,1.99,5.59,1.83,8.17-.01.18-.02.35-.03.51.16,4.26-.49,9.25-1.23,13.1l-.08-.08c-.65,4.91-4.91,6.14-9.33,7.78-.41-.16-4.83,1.47-5.73,1.06-1.31-.57-2.7-10.15-2.54-11.62-.42-3.13-.54-6.95-.32-10.74.2-3.64.71-7.25,1.55-10.21ZM177.9,349.17c-.9-1.47,0-1.06.82-1.72,3.6-2.05,9.41-5.65,13.1-4.5,2.78.74,16.86,6.71,17.43,10.07.04.28.08,1,.12,1.98.17,4.69.22,15.61-.12,16.35-1.06.08-1.88-.33-2.78-.74h-.08c-8.53-3.1-17.56-8.66-23.97-15.61-1.71-1.85-3.24-3.8-4.51-5.83ZM230.28,462.86c-6.14,4.5-23.08-7.69-29.71-11.95-1.64-1.06-3.03-1.15-2.29-2.46,6.63-8.92,16.29-18.17,25.95-24.64,1.64-.98,1.39-1.31,3.36-.57,7.04,3.27,16.94,10.23,22.59,15.47,1.64,1.72,4.26,4.5,3.85,6.88-.49,3.03-11.38,8.76-14.49,10.4-3.11,1.64-6.22,4.58-9.33,6.88h.08ZM188.87,495.52c-2.29-5.07-2.78-11.87-2.62-17.27.49-5.07,3.19-16.86,6.63-20.79l.08.08c1.31-.65,2.37-.33,3.68.41,3.27,2.05,6.96,3.85,10.64,5.65,2.95,1.72,11.62,6.06,10.15,10.72-.74,4.01-4.83,19.15-6.96,21.77-2.13,2.62-20.63,1.8-21.61-.57ZM228.15,528.67c-.41.98.33,1.72-1.39,1.31-11.05-2.7-22.35-11.05-29.55-20.05-.66-.65-1.31-1.39-1.64-2.37.65-.65,15.63-5.65,17.35-5.97,3.44-.57,13.59,10.89,15.22,13.26,2.29,3.11.74,9.82,0,13.83ZM230.04,505.09c-2.62-2.78-8.51-9-8.76-13.42.08-4.09,3.36-11.7,6.14-14.32v-.08c4.17-4.58,9-9.9,14.49-13.1,3.44-2.62,13.1-9.82,16.86-10.72,5.4-1.23,5.65,4.5,5.57,7.94-.16,6.79-1.47,30.37-3.6,32.99-2.13,3.36-13.75,9.74-17.84,11.05-3.77,1.56-9.49,3.11-12.85-.33ZM268.92,522.2c-5.16,3.6-13.34,6.71-19.48,7.94-1.39.65-10.89,2.46-11.87,1.39-.74-.65-.57-5.4-.9-5.73.08-4.75-.08-9.09,4.34-11.38l.08-.08c3.44-1.88,7.86-4.17,11.95-5.4,2.46-.98,6.22-3.27,8.84-1.15,1.64,1.06,6.79,9.33,7.78,11.7.65,1.15.41,2.05-.74,2.7ZM295.43,498.3c-2.13,2.7-4.17,5.32-6.96,7.94-1.39,1.31-9.74,9.82-10.72,10.15-.65,0-4.26-5.24-4.91-5.89-1.64-2.37-6.55-7.61-7.86-10.31-.98-2.37,1.55-8.02,2.29-10.72,1.47-4.01,1.23-7.04,6.22-5.89,8.43,1.88,15.39,7.78,21.28,13.34.65.74.98.41.65,1.39ZM299.61,492.33c-.41.33-1.06.98-1.39.65-1.64-2.46-6.3-5.97-8.92-7.37-3.93-2.78-16.62-8.51-18.58-11.95-1.31-1.39.16-6.14,1.23-7.78.74-2.7,1.15-4.34,3.52-5.98,9.58-5.16,17.11,4.83,22.67,10.72,1.31,1.39,9.58,9.41,9.9,9.74,0,.65-7.69,10.64-8.43,11.95ZM338.24,449.84c-9.33,6.88-13.1,9.82-17.27,14.41v-.16c-1.39,1.31-9.09,11.21-10.07,10.89,0,0-11.79-15.14-13.1-16.53-3.6-5.16-12.2-10.15-17.93-11.95-8.35-2.54-11.05-1.96-18.01-7.86-9-7.37-14.57-13.26-25.21-18.91-2.7-1.39-3.68-1.06-1.64-2.37,3.45-2,6.9-3.87,10.32-5.77,3.71-2.06,7.38-4.16,10.97-6.51,1.06-.98,4.5-3.6,5.81-2.86,4.42,2.84,9.86,6.44,15.18,9.37,2.66,1.47,5.28,2.77,7.73,3.72,9.41,3.68,14.16,3.11,23.25,3.68,5.73.49,7.69,2.54,10.64,7.04,6.14,9.99,8.43,14.41,18.01,21.77,1.31.74,2.37,1.06,1.31,2.05ZM408.72,411.95c-.21,0-.7-.15-1.29-.37-1.24-.46-2.93-1.26-3.37-1.76-5.32-2.86-10.31-5.32-15.63-8.19-4.01-2.13-11.7-5.4-16.12-3.11-2.37.9.25,4.34,1.23,5.4,1.04.78,5.4,4.07,9.9,7.66,5.45,4.35,11.08,9.13,11.22,10.43.33.41-4.5,2.95-5.48,3.27-.65.65-3.77,1.55-5.07,1.55-.65,0-3.03-1.8-3.68-1.8-6.63-4.17-12.2-8.76-19.23-11.95-.89-.32-2.41-1.05-3.92-1.51-1.47-.45-2.95-.66-3.84,0-.29.21-.52.52-.67.94-1.15,4.34,2.54,7.45,5.48,9.9,3.03,2.46,7.61,5.24,10.97,7.37.33.33,4.01,2.13,2.95,3.11-.33.33-12.61,5.4-14.32,6.38-2.05.66-6.88,3.85-8.59,4.17-.74,0-1.39,0-2.05-.74-6.63-4.26-14.98-9.49-17.11-17.35-1.59-5.86-.03-9.91,2.6-13.79.89-1.32,1.91-2.62,2.97-3.97,5.24-6.96,11.21-14.57,16.78-21.2,7.61-7.86,7.61-7.2,12.61-17.19,3.7-8.03,5.1-13.86,10.12-14.22.31-.02.63-.02.96,0,2.18.12,4.99,1.14,8.8,3.25,15.72,8.19,30.94,18.01,46.25,27.17,3.93,2.13,4.01,1.47,1.88,4.09l-.16.08c-2.05,1.96-7.37,8.92-8.68,8.92-1.31-.08-5.65-3.19-6.96-4.58-3.6-2.46-23.16-15.47-25.62-13.18-2.78,2.62,2.54,6.79,4.17,7.86,7.61,5.24,15.96,9.9,21.53,17.11-1.16,1.1-4.96,4.7-7.37,5.85-.47.22-.89.37-1.23.37ZM450.21,362.51c-2.13,4.67-4.58,8.35-6.71,13.01,0,0-5.4-2.13-5.73-1.8l-.08-.08c-2.05-.74-4.34-1.8-6.38-2.54-7.28-2.86-15.31-8.43-22.26-12.36-1.8-1.06-3.61-2.31-5.29-3.75-3.91-3.31-7.2-7.59-8.46-12.79-.57-3.44,1.31-9.09,2.37-12.11,1.06-2.36,4.67-9.27,7.74-13.03,1.19-1.46,2.3-2.45,3.14-2.52.13-.11,2.28.98,5.19,2.52,6.09,3.22,15.55,8.47,17.15,9.19,8.68,4.91,17.02,7.53,26.03,11.46,2.28,1-.65,10.21-3.43,17.29-1.32,3.35-2.6,6.22-3.28,7.51ZM460.94,330.75c-.33.33-.41,1.72-1.06.98-8.88-2.17-23.29-8.16-35.15-14.67-6.5-3.57-12.23-7.29-15.85-10.62-12.6-11.13-24.39-22.92-31.43-38.63,5.48-2.54,10.89-5.07,16.7-6.63,2.05-.65,2.05,0,3.03,1.06,9.09,12.36,16.37,19.97,28.57,30.12,5.65,3.85,10.64,7.04,16.94,10.23h.08c1.64,1.06,19.64,10.31,19.64,10.31.07.86.01,2.36-.11,4.16-.31,4.57-1.07,11.05-1.36,13.69Z"/>
  <g>
    <path class="cls-2" d="M212.93,501.57c-1.72.33-16.7,5.32-17.35,5.97.33.98.98,1.72,1.64,2.37,7.2,9,18.5,17.35,29.55,20.05,1.72.41.98-.33,1.39-1.31.74-4.01,2.29-10.72,0-13.83-1.64-2.37-11.79-13.83-15.22-13.26Z"/>
    <path class="cls-2" d="M210.47,496.09c2.13-2.62,6.22-17.76,6.96-21.77,1.47-4.67-7.2-9-10.15-10.72-3.68-1.8-7.37-3.6-10.64-5.65-1.31-.74-2.37-1.06-3.68-.41l-.08-.08c-3.44,3.93-6.14,15.72-6.63,20.79-.16,5.4.33,12.2,2.62,17.27.98,2.37,19.48,3.19,21.61.57Z"/>
    <path class="cls-2" d="M260.73,494.37c2.13-2.62,3.44-26.19,3.6-32.99.08-3.44-.16-9.17-5.57-7.94-3.77.9-13.42,8.1-16.86,10.72-5.48,3.19-10.31,8.51-14.49,13.1v.08c-2.78,2.62-6.06,10.23-6.14,14.32.25,4.42,6.14,10.64,8.76,13.42,3.36,3.44,9.09,1.88,12.85.33,4.09-1.31,15.72-7.69,17.84-11.05Z"/>
    <path class="cls-2" d="M261.88,507.8c-2.62-2.13-6.38.16-8.84,1.15-4.09,1.23-8.51,3.52-11.95,5.4l-.08.08c-4.42,2.29-4.26,6.63-4.34,11.38.33.33.16,5.07.9,5.73.98,1.06,10.48-.74,11.87-1.39,6.14-1.23,14.32-4.34,19.48-7.94,1.15-.65,1.39-1.56.74-2.7-.98-2.37-6.14-10.64-7.78-11.7Z"/>
    <path class="cls-2" d="M254.02,445.59c.41-2.37-2.21-5.16-3.85-6.88-5.65-5.24-15.55-12.2-22.59-15.47-1.96-.74-1.72-.41-3.36.57-9.66,6.47-19.32,15.72-25.95,24.64-.74,1.31.65,1.39,2.29,2.46,6.63,4.26,23.57,16.45,29.71,11.95h-.08c3.11-2.29,6.22-5.24,9.33-6.88,3.11-1.64,14-7.37,14.49-10.39Z"/>
    <path class="cls-2" d="M336.93,447.8c-9.58-7.37-11.87-11.79-18.01-21.77-2.95-4.5-4.91-6.55-10.64-7.04-9.09-.57-13.83,0-23.25-3.68-2.45-.95-5.08-2.26-7.73-3.72-5.32-2.94-10.76-6.54-15.18-9.37-1.31-.74-4.75,1.88-5.81,2.86-3.58,2.34-7.25,4.45-10.97,6.51-3.41,1.9-6.86,3.77-10.32,5.77-2.05,1.31-1.06.98,1.64,2.37,10.64,5.65,16.21,11.54,25.21,18.91,6.96,5.89,9.66,5.32,18.01,7.86,5.73,1.8,14.32,6.79,17.93,11.95,1.31,1.39,13.1,16.53,13.1,16.53.98.33,8.68-9.58,10.07-10.89v.16c4.17-4.58,7.94-7.53,17.27-14.41,1.06-.98,0-1.31-1.31-2.05Z"/>
    <path class="cls-2" d="M294.78,496.91c-5.89-5.57-12.85-11.46-21.28-13.34-4.99-1.15-4.75,1.88-6.22,5.89-.74,2.7-3.27,8.35-2.29,10.72,1.31,2.7,6.22,7.94,7.86,10.31.65.65,4.26,5.89,4.91,5.89.98-.33,9.33-8.84,10.72-10.15,2.78-2.62,4.83-5.24,6.96-7.94.33-.98,0-.66-.65-1.39Z"/>
    <path class="cls-2" d="M368.53,349.25c.65,1.39,6.14-1.23,9.09-.08,3.09.82,8.38,4.25,12.5,5.83,1.66.64,3.13.98,4.19.72.29,0,.26-.34.13-.72-.16-.47-.46-1-.46-1h.08c-2.29-3.76-3.19-6.14-4.09-10.56-.57-2.7,2.37-13.42,1.06-13.51-2.7,0-9.66,8.51-21.77,6.14-.98-.33-7.69-1.88-8.1-1.55-.41.33,2.95,3.76,3.6,4.5,3.27,4.83,2.13,7.86,3.76,10.23Z"/>
    <path class="cls-2" d="M456.93,337.71c-9-3.93-17.35-6.55-26.03-11.46-1.6-.72-11.06-5.96-17.15-9.19-2.92-1.54-5.06-2.62-5.19-2.52-.85.07-1.95,1.06-3.14,2.52-3.07,3.77-6.68,10.67-7.74,13.03-1.06,3.03-2.95,8.68-2.37,12.11,1.26,5.2,4.55,9.48,8.46,12.79,1.69,1.43,3.49,2.68,5.29,3.75,6.96,3.93,14.98,9.49,22.26,12.36,2.05.74,4.34,1.8,6.38,2.54l.08.08c.33-.33,5.73,1.8,5.73,1.8,2.13-4.67,4.58-8.35,6.71-13.01.68-1.29,1.97-4.16,3.28-7.51,2.78-7.07,5.7-16.29,3.43-17.29Z"/>
    <path class="cls-2" d="M298.14,470.63c-5.57-5.89-13.1-15.88-22.67-10.72-2.37,1.64-2.78,3.27-3.52,5.98-1.06,1.64-2.54,6.38-1.23,7.78,1.96,3.44,14.65,9.17,18.58,11.95,2.62,1.39,7.28,4.91,8.92,7.37.33.33.98-.33,1.39-.65.74-1.31,8.43-11.3,8.43-11.95-.33-.33-8.59-8.35-9.9-9.74Z"/>
    <path class="cls-2" d="M424.92,283.85v.08c7.28,6.96,12.52,11.13,21.53,15.72,1.31.74,15.39,7.12,15.72,6.79.74-.66-1.39-11.21-2.05-12.52-4.22-16.6-14.42-28.36-28.25-33.51-7.38-2.75-15.79-3.62-24.87-2.34-.87.11-.88.98-.31,2.34,2.55,6.05,16.63,21.77,18.23,23.44Z"/>
    <path class="cls-2" d="M392.92,298.01l-2.95-3.11-.08-.08-9.17-9.66c-3.93-4.17-7.2-8.27-10.48-13.1-.33-.33-3.44,1.96-4.09,2.62-14.41,9.09-28.89,21.53-40.11,34.7-2.78,3.27-1.8,3.68,1.88,6.14.66.46,1.46.98,2.36,1.54,7.19,4.45,21.02,11.36,27.36,12.38,7.69,1.88,14.08,3.11,21.94.9,5.07-1.55,9.33-6.88,12.11-11.46.34-.58.67-1.19.99-1.82,2.96-5.89,4.67-13.8.24-19.05Z"/>
    <path class="cls-2" d="M462.41,312.91s-18.01-9.25-19.64-10.31h-.08c-6.3-3.19-11.3-6.38-16.94-10.23-12.2-10.15-19.48-17.76-28.57-30.12-.98-1.06-.98-1.72-3.03-1.06-5.81,1.56-11.21,4.09-16.7,6.63,7.04,15.72,18.83,27.5,31.43,38.63,3.62,3.33,9.35,7.05,15.85,10.62,11.85,6.51,26.26,12.5,35.15,14.67.65.74.74-.65,1.06-.98.29-2.64,1.05-9.12,1.36-13.69.12-1.8.18-3.3.11-4.16Z"/>
    <path class="cls-2" d="M274.07,394.84c7.94,5.65,14.24,9.49,23.65,12.44,23.16,5.65,33.8-13.67,44.36-30.28,3.52-5.98,6.3-8.59,11.13-13.18l.08-.08c2.4-2.53,4.87-5.52,6.61-8.74,2.76-5.11,3.66-10.79-.56-16.06-2.62-4.09-3.93-4.17-8.27-5.97-3.03-1.06-31.76-11.95-32.74-11.62-1.31,0-6.71,10.31-7.78,11.95,0,.65-3.52,6.63-3.19,7.04,0,.65,2.05.74,2.37,1.06,6.38,1.88,12.03,3.68,18.42,4.91,3.36.74,4.34,1.8,5.24,5.57.15,1.28.1,2.3-.1,3.13-.9,3.79-5.05,3.29-9.15,2.35-1.75-.24-4.27-1.3-6.67-2.35-1.75-.77-3.43-1.54-4.7-1.98-.65,0-9.66-4.01-10.4-4.01-.74.65-2.86,4.67-3.19,5.65-.06.12-.13.23-.19.35-2.1,3.89-4.77,7.7-6.52,11.28-.74.65-1.06,1.64,0,2.05,0,0,9.66,4.67,10.97,5.32,2.37,1.06,7.04,2.54,7.94,4.91,1.31,2.05.9,4.42-2.13,4.67-7.45-.16-20.38-8.27-22.1-8.02-.98-.33-2.05,1.31-2.78,1.96-3.52,5.32-7.04,9.25-11.54,14.24-1.72,2.29-.74,2.05,1.23,3.44Z"/>
    <path class="cls-2" d="M431.14,385.43c-15.31-9.17-30.53-18.99-46.25-27.17-3.81-2.12-6.62-3.13-8.8-3.25h-.96c-5.02.37-6.42,6.2-10.12,14.22-4.99,9.99-4.99,9.33-12.61,17.19-5.57,6.63-11.54,14.24-16.78,21.2-1.06,1.35-2.08,2.65-2.97,3.97-2.63,3.88-4.19,7.92-2.6,13.79,2.13,7.86,10.48,13.1,17.11,17.35.65.74,1.31.74,2.05.74,1.72-.33,6.55-3.52,8.59-4.17,1.72-.98,14-6.06,14.32-6.38,1.06-.98-2.62-2.78-2.95-3.11-3.36-2.13-7.94-4.91-10.97-7.37-2.95-2.46-6.63-5.57-5.48-9.9.15-.42.38-.72.67-.94.89-.66,2.36-.45,3.84,0,1.51.47,3.03,1.19,3.92,1.51,7.04,3.19,12.61,7.78,19.23,11.95.66,0,3.03,1.8,3.68,1.8,1.31,0,4.42-.9,5.07-1.55.98-.33,5.81-2.86,5.48-3.27-.13-1.3-5.77-6.09-11.22-10.43-4.5-3.59-8.86-6.88-9.9-7.66-.98-1.06-3.6-4.5-1.23-5.4,4.42-2.29,12.11.98,16.12,3.11,5.32,2.86,10.31,5.32,15.63,8.19.44.5,2.13,1.3,3.37,1.76.59.22,1.08.37,1.29.37.33,0,.76-.14,1.23-.37,2.41-1.15,6.2-4.76,7.37-5.85-5.57-7.2-13.91-11.87-21.53-17.11-1.64-1.06-6.96-5.24-4.17-7.86,2.46-2.29,22.02,10.72,25.62,13.18,1.31,1.39,5.65,4.5,6.96,4.58,1.31,0,6.63-6.96,8.68-8.92l.16-.08c2.13-2.62,2.05-1.96-1.88-4.09Z"/>
    <path class="cls-2" d="M222.42,258.72c1.28.36,2.63.95,3.98,1.69,5.05,2.74,10.28,7.6,13.12,11.41,5.16,7.04,5.48,9.82,13.34,14.49,9.82,6.06,17.19,9.41,26.03,17.68,2.21,2.05,2.21,3.11,2.78.74,1.64-8.19,2.62-16.12,4.75-24.06.57-1.31,1.96-5.4.82-6.47-4.91-3.92-11.38-8.89-16.37-13.78-1.25-1.23-2.42-2.45-3.44-3.65-6.47-7.69-7.45-12.36-10.97-20.79-2.29-5.24-4.91-6.47-10.07-7.78-6.63-1.53-11.09-2.39-15.66-4.17-3.27-1.27-6.58-3.02-10.78-5.82-1.15-1.06-1.8-1.88-2.37-.57-.76,2.41-1.42,4.52-2.03,6.39-2.16,6.63-3.63,10.35-5.99,14.56v.16c-.82,1.72-7.69,12.2-7.04,13.01,0,0,18.17,6.22,19.89,6.96Z"/>
    <path class="cls-2" d="M200.41,338.04c3.44,1.56,11.21,5.16,15.47,3.93,3.85-1.47,10.07-7.04,11.62-10.48v.08c2.46-4.46,5.14-9.45,6.76-14.51.37-1.17.69-2.33.94-3.5,1.31-4.09,4.99-15.55,4.67-19.4-.57-5.57-6.06-3.85-9.25-2.7-6.3,2.37-28.24,11.21-30.04,14.08-1.4,1.77-2.76,6.76-3.66,11.52-.68,3.62-1.08,7.1-1.01,8.94-.25,4.09.16,10.07,4.5,12.03Z"/>
    <path class="cls-2" d="M178.55,338.36c4.42-1.64,8.68-2.86,9.33-7.78l.08.08c.74-3.85,1.39-8.84,1.23-13.1,0-.16.01-.33.03-.51.17-2.57.85-6.48-1.83-8.17-1.56-1.23-10.97-3.44-13.59-3.6-1.31-.25-2.05.25-2.29,1.55-.84,2.97-1.35,6.58-1.55,10.21-.21,3.79-.1,7.61.32,10.74-.16,1.47,1.23,11.05,2.54,11.62.9.41,5.32-1.23,5.73-1.06Z"/>
    <path class="cls-2" d="M264.25,349.82c6.3-9.17,11.87-21.36,14.9-32.58.01-.07.02-.12.03-.18.32-1.76.74-1.59-.61-3.17-5.32-5.57-15.14-12.69-21.94-16.37-2.13-.98-5.65-2.54-7.78-1.47-2.7,1.39-4.67,13.59-5.16,17.02-.18,1.28-.55,2.62-.99,3.99-.75,2.33-1.73,4.74-2.45,7.06v.08c-2.29,7.37,14.73,19.32,20.95,24.23,1.56,1.23,1.96,2.46,3.03,1.39Z"/>
    <path class="cls-2" d="M288.4,134.15c.33,3.85,9.09,9.9,11.54,13.67,2.05,2.54,1.39,8.51,2.86,8.68,2.78.74,5.32-1.23,10.89.25.9.41,5.24,2.37,5.4,1.96.16-.41-3.44-6.3-4.09-7.12-6.14-10.72-.25-20.05-1.23-22.59-.49-1.31-9.66,5.07-12.44,5.32-4.5.57-7.04.49-11.38-.49l.16.08s-1.96-.33-1.72.25Z"/>
    <path class="cls-2" d="M257.29,98.87c1.31,1.64,3.11,3.52,4.42,5.16,5.16,5.97,13.01,11.7,18.99,17.11,5.32,4.5,12.44,8.35,20.14,7.61,3.36-.57,8.19-4.09,10.64-6.14,2.7-2.46,11.95-12.36,11.21-15.31.16-.41-16.53-15.47-18.33-17.27-7.45-6.55-12.69-13.67-19.32-20.87-2.46-2.7-18.17,11.13-21.28,14.41-3.77,3.52-6.38,7.04-10.07,10.64,0,0,3.77,4.34,3.6,4.83v-.16Z"/>
    <path class="cls-2" d="M324.49,66.62c7.28,7.04,13.01,10.64,21.85,15.22v.08c2.62,1.23,31.18,13.26,30.2,8.59-4.91-25.87-24.88-40.76-51.07-38.63-1.47-.16-12.11,1.31-12.52,2.13-.16.41,10.48,11.62,11.54,12.6Z"/>
    <path class="cls-2" d="M289.87,64.49c7.69,11.87,28.32,33.4,40.52,40.03,14.57,8.27,29.55,15.63,46.74,17.19.66-5.97,1.31-12.03.9-18.01,0-2.13-.74-1.88-2.05-2.54-14.65-4.58-24.23-9-37.73-17.27-5.48-4.09-10.07-7.78-15.14-12.69h-.16c-1.56-1.23-16.12-15.22-16.12-15.22-2.95.74-13.01,5.57-16.37,7.2-.16.41-1.47.9-.57,1.31Z"/>
    <path class="cls-2" d="M343.48,116.79c-7.12-2.7-14.82,2.62-19.4,7.94-3.52,4.17-7.12,9.82-6.96,15.22.49,8.1,3.68,13.75,7.94,20.46,1.02,1.86,2.91,4.31,5.22,6.95,5.51,6.28,13.41,13.62,17.62,16.62,3.52,2.62,4.17,3.52,6.38-.25,3.11-5.16,5.98-10.68,8.58-16.38,4.86-10.67,8.75-21.98,11.31-32.82.41-.9,1.56-4.58,1.15-4.75-5.65-1.47-10.56-3.27-15.8-5.65l-12.2-5.57h.08l-3.93-1.8Z"/>
    <path class="cls-2" d="M266.13,224.02c-.54,5.71.75,11.71,4.83,18.08,5.8,7.92,11.52,12.59,19.36,18.3.01.01.03.02.04.03,1.96,1.39,2.05,2.46,3.6.08.02-.04.04-.07.06-.11,3.16-5.84,5.78-10.4,9.68-15.36.41-.9,1.64-2.37.98-3.27-.24-1.68-11.56-10.85-14.53-17.76-.07-.17-.14-.33-.2-.5-.74-2.95,1.31-4.09,3.68-3.52,1.82.06,3.86,2.15,5.53,4.02.65.73,1.25,1.43,1.76,1.96,1.15,1.06,8.59,8.68,8.59,8.68.65.82,1.47.16,1.88-.74,2.79-2.79,5.59-6.6,8.61-9.9.08-.08.15-.17.23-.25.82-.65,3.93-4.01,4.34-4.83-.25-.65-6.88-7.86-7.12-8.51-2.05-2.54-6.47-6.63-7.78-9.33-2.7-4.42-4.83-9,2.21-10.56,3.85-.33,5.16.25,6.96,3.19,3.19,5.65,6.79,10.48,10.56,15.88.41.16,1.15,2.13,1.8,1.88.41.16,4.91-5.07,5.57-5.32,1.23-1.56,9.25-9.9,8.84-11.21,0-1.06-19.64-24.72-21.69-27.26-.1-.12-.2-.22-.29-.33-2.85-3.27-3.47-4.53-8.06-5.56-6.81-2.41-12.12.8-16.16,5.56-2.12,2.5-3.9,5.43-5.37,8.19h.08c-2.78,6.06-4.34,9.58-8.92,14.81-8.37,10.49-17.92,21.41-19.08,33.65Z"/>
    <path class="cls-2" d="M221.36,206.83c6.14,4.91,13.83,11.05,21.94,10.56,8.1-.49,11.38-5.32,14.98-10.97,4.91-7.2,10.15-15.31,14.57-22.75,4.72-9.29,4.4-9.58,10.99-16.3.38-.39.78-.79,1.2-1.22,9.33-8.84,15.8-11.62,3.93-22.35-12.77-12.11-27.09-23.41-40.76-34.87-3.36-3.11-2.7-3.36-4.5-.49l.25.08c-1.23,2.62-6.06,9.82-5.57,11.13.49,1.31,4.83,4.34,6.55,5.07,3.52,2.62,22.18,16.94,20.79,19.97-1.56,3.44-7.28-.16-8.84-1.39-7.45-5.48-14.49-11.87-23.16-14.82-.82,1.72-3.77,8.27-3.03,10.15.25.66,2.7,3.36,3.52,3.77,4.42,4.09,8.43,8.02,12.77,12.11,3.04,2.82,7.84,8.2,8.22,12.84.04.48.03.94-.03,1.4-.08,2.54-4.26,1.23-5.57.65-.46-.32-1.56-1.06-3.04-2.05-6.16-4.12-19.03-12.49-20.95-12.03-.41-.16-1.31,5.16-1.31,6.22-.41.9-.33,4.09.16,5.32.05.13.18.3.36.48.74.77,2.31,1.92,2.5,2.38,6.14,4.91,12.28,8.76,17.6,14.32,1.31,1.64,5.73,5.81,3.27,7.78-3.77,2.46-7.86,0-11.13-1.96-3.27-1.96-7.45-5.48-10.56-7.94-.41-.16-3.27-3.11-3.93-1.8-.16.41-.98,13.67-1.39,15.63,0,2.13-1.47,7.69-1.15,9.41.25.65.49,1.31,1.31,1.64Z"/>
    <path class="cls-2" d="M181.33,299.32c2.78.74,9.33,3.77,12.36,4.09,2.54.08,7.12-4.09,9.41-5.65,3.36-2.7,6.3-3.44,3.6-7.78-4.5-7.28-12.36-11.95-19.56-15.8-.9-.41-.65-.82-1.47-.16l-.08-.08c-1.8,2.86-3.68,5.65-5.24,9.17-.82,1.72-6.22,12.36-6.14,13.42.25.65,6.3,2.37,7.12,2.78Z"/>
    <path class="cls-2" d="M189.68,269.53c2.78.74,7.61,4.01,9.82,6.06,3.93,2.86,13.51,13.01,17.35,13.75,1.72.82,5.73-2.13,6.96-3.68,2.29-1.55,3.77-2.46,4.5-5.32,1.8-10.72-10.15-14.57-17.52-18.01-.57-.27-2.08-1.02-3.86-1.91-3.57-1.79-8.22-4.14-8.5-4.31-.28.1-1.66,2.03-3.25,4.31-2.17,3.12-4.73,6.9-5.35,7.56v.08c-.16.41-.57,1.31-.16,1.47Z"/>
    <path class="cls-2" d="M206.46,370.61c.9.41,1.72.82,2.78.74.34-.74.29-11.66.12-16.35-.04-.98-.08-1.7-.12-1.98-.57-3.36-14.65-9.33-17.43-10.07-3.68-1.15-9.49,2.46-13.1,4.5-.82.65-1.72.25-.82,1.72,1.27,2.03,2.81,3.98,4.51,5.83,6.41,6.95,15.44,12.51,23.97,15.61h.08Z"/>
    <path class="cls-2" d="M256.45,355c-.19-.2-.39-.39-.63-.59-3.11-2.46-5.97-5.32-8.84-8.27-2.62-2.29-9.49-9.09-13.42-6.14-3.6,2.05-16.53,10.8-18.33,13.67-.19.3-.28.76-.29,1.33-.14,4.94,5.55,18.81,7.82,18.89,5.57.41,12.11-1.31,17.19-3.19,4.58-2.05,14.9-8.43,17.52-13.01v.08c.13-1.17-.27-1.99-1.01-2.76Z"/>
  </g>
</svg>